<?xml version="1.0" encoding="UTF-8" standalone="no"?>
<!DOCTYPE svg PUBLIC "-//W3C//DTD SVG 1.1//EN"
 "http://www.w3.org/Graphics/SVG/1.1/DTD/svg11.dtd">
<!-- Generated by graphviz version 2.26.3 (20100126.1600)
 -->
<!-- Title: name Pages: 1 -->
<svg width="1362pt" height="1174pt"
 viewBox="0.00 0.00 1362.00 1174.00" xmlns="http://www.w3.org/2000/svg" xmlns:xlink="http://www.w3.org/1999/xlink">
<g id="graph1" class="graph" transform="scale(1 1) rotate(0) translate(4 1170)">
<title>name</title>
<polygon fill="white" stroke="white" points="-4,5 -4,-1170 1359,-1170 1359,5 -4,5"/>
<!-- model_utils_models_TimeStampedModel -->
<g id="node1" class="node"><title>model_utils_models_TimeStampedModel</title>
<polygon fill="palegoldenrod" stroke="palegoldenrod" points="7.5,-1048.5 7.5,-1089.5 146.5,-1089.5 146.5,-1048.5 7.5,-1048.5"/>
<polygon fill="#698b22" stroke="#698b22" points="8,-1072 8,-1089 147,-1089 147,-1072 8,-1072"/>
<text text-anchor="start" x="38.5" y="-1078.63" font-family="Helvetica Bold" font-size="8.00" fill="white">TimeStampedModel</text>
<text text-anchor="start" x="10" y="-1064.13" font-family="Helvetica Bold" font-size="8.00">created</text>
<text text-anchor="start" x="54" y="-1064.13" font-family="Helvetica Bold" font-size="8.00">AutoCreatedField</text>
<text text-anchor="start" x="10" y="-1052.13" font-family="Helvetica Bold" font-size="8.00">modified</text>
<text text-anchor="start" x="54" y="-1052.13" font-family="Helvetica Bold" font-size="8.00">AutoLastModifiedField</text>
</g>
<!-- model_utils_models_StatusModel -->
<g id="node2" class="node"><title>model_utils_models_StatusModel</title>
<polygon fill="palegoldenrod" stroke="palegoldenrod" points="180,-1048.5 180,-1089.5 304,-1089.5 304,-1048.5 180,-1048.5"/>
<polygon fill="#698b22" stroke="#698b22" points="180,-1072 180,-1089 304,-1089 304,-1072 180,-1072"/>
<text text-anchor="start" x="217" y="-1078.63" font-family="Helvetica Bold" font-size="8.00" fill="white">StatusModel</text>
<text text-anchor="start" x="182" y="-1064.13" font-family="Helvetica Bold" font-size="8.00">status</text>
<text text-anchor="start" x="251" y="-1064.13" font-family="Helvetica Bold" font-size="8.00">StatusField</text>
<text text-anchor="start" x="182" y="-1052.13" font-family="Helvetica Bold" font-size="8.00">status_changed</text>
<text text-anchor="start" x="251" y="-1052.13" font-family="Helvetica Bold" font-size="8.00">MonitorField</text>
</g>
<!-- spike_eval_models_datafile_Datafile -->
<g id="node3" class="node"><title>spike_eval_models_datafile_Datafile</title>
<polygon fill="palegoldenrod" stroke="palegoldenrod" points="398,-88 398,-236 528,-236 528,-88 398,-88"/>
<polygon fill="#698b22" stroke="#698b22" points="398,-208 398,-236 528,-236 528,-208 398,-208"/>
<text text-anchor="start" x="447.5" y="-225.633" font-family="Helvetica Bold" font-size="8.00" fill="white">Datafile</text>
<text text-anchor="start" x="421.5" y="-216.033" font-family="Helvetica Bold" font-size="8.00" fill="white">&lt;</text>
<text text-anchor="start" x="426.5" y="-216.033" font-family="Helvetica Italic" font-size="8.00" fill="white">TimeStampedModel</text>
<text text-anchor="start" x="499.5" y="-216.033" font-family="Helvetica Bold" font-size="8.00" fill="white">&gt;</text>
<text text-anchor="start" x="400" y="-200.133" font-family="Helvetica Bold" font-size="8.00" fill="#7b7b7b">id</text>
<text text-anchor="start" x="447" y="-200.133" font-family="Helvetica Bold" font-size="8.00" fill="#7b7b7b">AutoField</text>
<text text-anchor="start" x="400" y="-188.133" font-family="Helvetica Italic" font-size="8.00">created</text>
<text text-anchor="start" x="447" y="-188.133" font-family="Helvetica Italic" font-size="8.00">AutoCreatedField</text>
<text text-anchor="start" x="400" y="-176.133" font-family="Helvetica Italic" font-size="8.00">modified</text>
<text text-anchor="start" x="447" y="-176.133" font-family="Helvetica Italic" font-size="8.00">AutoLastModifiedField</text>
<text text-anchor="start" x="400" y="-164.133" font-family="Helvetica Bold" font-size="8.00">name</text>
<text text-anchor="start" x="447" y="-164.133" font-family="Helvetica Bold" font-size="8.00">CharField</text>
<text text-anchor="start" x="400" y="-152.133" font-family="Helvetica Bold" font-size="8.00">file</text>
<text text-anchor="start" x="447" y="-152.133" font-family="Helvetica Bold" font-size="8.00">FileField</text>
<text text-anchor="start" x="400" y="-140.133" font-family="Helvetica Bold" font-size="8.00">file_type</text>
<text text-anchor="start" x="447" y="-140.133" font-family="Helvetica Bold" font-size="8.00">IntegerField</text>
<text text-anchor="start" x="400" y="-128.133" font-family="Helvetica Bold" font-size="8.00">task_state</text>
<text text-anchor="start" x="447" y="-128.133" font-family="Helvetica Bold" font-size="8.00">IntegerField</text>
<text text-anchor="start" x="400" y="-116.133" font-family="Helvetica Bold" font-size="8.00" fill="#7b7b7b">task_id</text>
<text text-anchor="start" x="447" y="-116.133" font-family="Helvetica Bold" font-size="8.00" fill="#7b7b7b">CharField</text>
<text text-anchor="start" x="400" y="-104.133" font-family="Helvetica Bold" font-size="8.00" fill="#7b7b7b">task_log</text>
<text text-anchor="start" x="447" y="-104.133" font-family="Helvetica Bold" font-size="8.00" fill="#7b7b7b">TextField</text>
<text text-anchor="start" x="400" y="-92.1333" font-family="Helvetica Bold" font-size="8.00">object_id</text>
<text text-anchor="start" x="447" y="-92.1333" font-family="Helvetica Bold" font-size="8.00">PositiveIntegerField</text>
</g>
<!-- django_contrib_contenttypes_models_ContentType -->
<g id="node4" class="node"><title>django_contrib_contenttypes_models_ContentType</title>
<polygon fill="palegoldenrod" stroke="palegoldenrod" points="432.5,-9.5 432.5,-26.5 493.5,-26.5 493.5,-9.5 432.5,-9.5"/>
<polygon fill="#698b22" stroke="#698b22" points="433,-9 433,-26 494,-26 494,-9 433,-9"/>
<text text-anchor="start" x="437.5" y="-15.6333" font-family="Helvetica Bold" font-size="8.00" fill="white">ContentType</text>
</g>
<!-- spike_eval_models_datafile_Datafile&#45;&gt;django_contrib_contenttypes_models_ContentType -->
<g id="edge2" class="edge"><title>spike_eval_models_datafile_Datafile&#45;&gt;django_contrib_contenttypes_models_ContentType</title>
<path fill="none" stroke="black" d="M463,-83.679C463,-65.868 463,-48.578 463,-36.211"/>
<text text-anchor="middle" x="503" y="-58.8" font-family="Helvetica,sans-Serif" font-size="8.00">content_type (datafile)</text>
</g>
<!-- spike_eval_models_result_Result -->
<g id="node6" class="node"><title>spike_eval_models_result_Result</title>
<polygon fill="palegoldenrod" stroke="palegoldenrod" points="338,-1037 338,-1101 468,-1101 468,-1037 338,-1037"/>
<polygon fill="#698b22" stroke="#698b22" points="338,-1073 338,-1101 468,-1101 468,-1073 338,-1073"/>
<text text-anchor="start" x="390" y="-1090.63" font-family="Helvetica Bold" font-size="8.00" fill="white">Result</text>
<text text-anchor="start" x="361.5" y="-1081.03" font-family="Helvetica Bold" font-size="8.00" fill="white">&lt;</text>
<text text-anchor="start" x="366.5" y="-1081.03" font-family="Helvetica Italic" font-size="8.00" fill="white">TimeStampedModel</text>
<text text-anchor="start" x="439.5" y="-1081.03" font-family="Helvetica Bold" font-size="8.00" fill="white">&gt;</text>
<text text-anchor="start" x="340" y="-1065.13" font-family="Helvetica Bold" font-size="8.00" fill="#7b7b7b">id</text>
<text text-anchor="start" x="387" y="-1065.13" font-family="Helvetica Bold" font-size="8.00" fill="#7b7b7b">AutoField</text>
<text text-anchor="start" x="340" y="-1053.13" font-family="Helvetica Italic" font-size="8.00">created</text>
<text text-anchor="start" x="387" y="-1053.13" font-family="Helvetica Italic" font-size="8.00">AutoCreatedField</text>
<text text-anchor="start" x="340" y="-1041.13" font-family="Helvetica Italic" font-size="8.00">modified</text>
<text text-anchor="start" x="387" y="-1041.13" font-family="Helvetica Italic" font-size="8.00">AutoLastModifiedField</text>
</g>
<!-- spike_eval_models_result_Result&#45;&gt;spike_eval_models_datafile_Datafile -->
<g id="edge8" class="edge"><title>spike_eval_models_result_Result&#45;&gt;spike_eval_models_datafile_Datafile</title>
<path fill="none" stroke="black" stroke-dasharray="1,5" d="M368.14,-1024.5C354.11,-1007.5 337.39,-988.3 321,-972 270.89,-922.16 199,-940.68 199,-870 199,-870 199,-870 199,-354 199,-263.1 302.63,-210.74 380.03,-184.3"/>
<polygon fill="black" stroke="black" points="365.779,-1027.14 374.8,-1032.7 371.212,-1022.73 365.779,-1027.14"/>
<polygon fill="black" stroke="black" points="381.424,-187.525 389.81,-181.05 379.216,-180.882 381.424,-187.525"/>
<text text-anchor="middle" x="233.5" y="-634.8" font-family="Helvetica,sans-Serif" font-size="8.00">datafile_set (result)</text>
</g>
<!-- spike_eval_models_evaluation_Evaluation -->
<g id="node7" class="node"><title>spike_eval_models_evaluation_Evaluation</title>
<polygon fill="palegoldenrod" stroke="palegoldenrod" points="338,-820 338,-920 468,-920 468,-820 338,-820"/>
<polygon fill="#698b22" stroke="#698b22" points="338,-892 338,-920 468,-920 468,-892 338,-892"/>
<text text-anchor="start" x="381.5" y="-909.633" font-family="Helvetica Bold" font-size="8.00" fill="white">Evaluation</text>
<text text-anchor="start" x="361.5" y="-900.033" font-family="Helvetica Bold" font-size="8.00" fill="white">&lt;</text>
<text text-anchor="start" x="366.5" y="-900.033" font-family="Helvetica Italic" font-size="8.00" fill="white">TimeStampedModel</text>
<text text-anchor="start" x="439.5" y="-900.033" font-family="Helvetica Bold" font-size="8.00" fill="white">&gt;</text>
<text text-anchor="start" x="340" y="-884.133" font-family="Helvetica Bold" font-size="8.00" fill="#7b7b7b">id</text>
<text text-anchor="start" x="387" y="-884.133" font-family="Helvetica Bold" font-size="8.00" fill="#7b7b7b">AutoField</text>
<text text-anchor="start" x="340" y="-872.133" font-family="Helvetica Italic" font-size="8.00">created</text>
<text text-anchor="start" x="387" y="-872.133" font-family="Helvetica Italic" font-size="8.00">AutoCreatedField</text>
<text text-anchor="start" x="340" y="-860.133" font-family="Helvetica Italic" font-size="8.00">modified</text>
<text text-anchor="start" x="387" y="-860.133" font-family="Helvetica Italic" font-size="8.00">AutoLastModifiedField</text>
<text text-anchor="start" x="340" y="-848.133" font-family="Helvetica Bold" font-size="8.00">task_state</text>
<text text-anchor="start" x="387" y="-848.133" font-family="Helvetica Bold" font-size="8.00">CharField</text>
<text text-anchor="start" x="340" y="-836.133" font-family="Helvetica Bold" font-size="8.00" fill="#7b7b7b">task_id</text>
<text text-anchor="start" x="387" y="-836.133" font-family="Helvetica Bold" font-size="8.00" fill="#7b7b7b">CharField</text>
<text text-anchor="start" x="340" y="-824.133" font-family="Helvetica Bold" font-size="8.00" fill="#7b7b7b">task_log</text>
<text text-anchor="start" x="387" y="-824.133" font-family="Helvetica Bold" font-size="8.00" fill="#7b7b7b">TextField</text>
</g>
<!-- spike_eval_models_result_Result&#45;&gt;spike_eval_models_evaluation_Evaluation -->
<g id="edge4" class="edge"><title>spike_eval_models_result_Result&#45;&gt;spike_eval_models_evaluation_Evaluation</title>
<path fill="none" stroke="black" d="M403,-1033C403,-1002.6 403,-958.73 403,-924.15"/>
<text text-anchor="middle" x="435" y="-946.8" font-family="Helvetica,sans-Serif" font-size="8.00">evaluation (result)</text>
</g>
<!-- spike_eval_models_metric_Metric -->
<g id="node9" class="node"><title>spike_eval_models_metric_Metric</title>
<polygon fill="palegoldenrod" stroke="palegoldenrod" points="396,-292 396,-416 530,-416 530,-292 396,-292"/>
<polygon fill="#698b22" stroke="#698b22" points="396,-388 396,-416 530,-416 530,-388 396,-388"/>
<text text-anchor="start" x="450.5" y="-405.633" font-family="Helvetica Bold" font-size="8.00" fill="white">Metric</text>
<text text-anchor="start" x="421.5" y="-396.033" font-family="Helvetica Bold" font-size="8.00" fill="white">&lt;</text>
<text text-anchor="start" x="426.5" y="-396.033" font-family="Helvetica Italic" font-size="8.00" fill="white">TimeStampedModel</text>
<text text-anchor="start" x="499.5" y="-396.033" font-family="Helvetica Bold" font-size="8.00" fill="white">&gt;</text>
<text text-anchor="start" x="398" y="-380.133" font-family="Helvetica Bold" font-size="8.00" fill="#7b7b7b">id</text>
<text text-anchor="start" x="449" y="-380.133" font-family="Helvetica Bold" font-size="8.00" fill="#7b7b7b">AutoField</text>
<text text-anchor="start" x="398" y="-368.133" font-family="Helvetica Italic" font-size="8.00">created</text>
<text text-anchor="start" x="449" y="-368.133" font-family="Helvetica Italic" font-size="8.00">AutoCreatedField</text>
<text text-anchor="start" x="398" y="-356.133" font-family="Helvetica Italic" font-size="8.00">modified</text>
<text text-anchor="start" x="449" y="-356.133" font-family="Helvetica Italic" font-size="8.00">AutoLastModifiedField</text>
<text text-anchor="start" x="398" y="-344.133" font-family="Helvetica Bold" font-size="8.00">name</text>
<text text-anchor="start" x="449" y="-344.133" font-family="Helvetica Bold" font-size="8.00">CharField</text>
<text text-anchor="start" x="398" y="-332.133" font-family="Helvetica Bold" font-size="8.00" fill="#7b7b7b">version</text>
<text text-anchor="start" x="449" y="-332.133" font-family="Helvetica Bold" font-size="8.00" fill="#7b7b7b">CharField</text>
<text text-anchor="start" x="398" y="-320.133" font-family="Helvetica Bold" font-size="8.00" fill="#7b7b7b">description</text>
<text text-anchor="start" x="449" y="-320.133" font-family="Helvetica Bold" font-size="8.00" fill="#7b7b7b">TextField</text>
<text text-anchor="start" x="398" y="-308.133" font-family="Helvetica Bold" font-size="8.00">exec_name</text>
<text text-anchor="start" x="449" y="-308.133" font-family="Helvetica Bold" font-size="8.00">TextField</text>
<text text-anchor="start" x="398" y="-296.133" font-family="Helvetica Bold" font-size="8.00" fill="#7b7b7b">temp_name</text>
<text text-anchor="start" x="449" y="-296.133" font-family="Helvetica Bold" font-size="8.00" fill="#7b7b7b">TextField</text>
</g>
<!-- spike_eval_models_result_Result&#45;&gt;spike_eval_models_metric_Metric -->
<g id="edge6" class="edge"><title>spike_eval_models_result_Result&#45;&gt;spike_eval_models_metric_Metric</title>
<path fill="none" stroke="black" d="M431.44,-1032.8C451.28,-1004.8 475.78,-964.32 485,-924 506.49,-829.99 482.55,-549.14 469.87,-420.13"/>
<text text-anchor="middle" x="518" y="-712.8" font-family="Helvetica,sans-Serif" font-size="8.00">metric (result)</text>
</g>
<!-- spike_eval_models_evaluation_Evaluation&#45;&gt;spike_eval_models_datafile_Datafile -->
<g id="edge16" class="edge"><title>spike_eval_models_evaluation_Evaluation&#45;&gt;spike_eval_models_datafile_Datafile</title>
<path fill="none" stroke="black" stroke-dasharray="1,5" d="M340.74,-807.6C331.83,-795.35 324,-781.95 319,-768 302.79,-722.82 315.17,-707.85 319,-660 322.34,-618.27 363.71,-326.97 379,-288 384.19,-274.78 390.93,-261.52 398.34,-248.84"/>
<polygon fill="black" stroke="black" points="338.205,-810.048 347.05,-815.88 343.772,-805.805 338.205,-810.048"/>
<polygon fill="black" stroke="black" points="401.406,-250.534 403.56,-240.16 395.407,-246.926 401.406,-250.534"/>
<text text-anchor="middle" x="386.5" y="-538.8" font-family="Helvetica,sans-Serif" font-size="8.00">datafile_set (evaluation)</text>
</g>
<!-- spike_eval_models_benchmark_Trial -->
<g id="node13" class="node"><title>spike_eval_models_benchmark_Trial</title>
<polygon fill="palegoldenrod" stroke="palegoldenrod" points="336,-664 336,-764 470,-764 470,-664 336,-664"/>
<polygon fill="#698b22" stroke="#698b22" points="336,-736 336,-764 470,-764 470,-736 336,-736"/>
<text text-anchor="start" x="394" y="-753.633" font-family="Helvetica Bold" font-size="8.00" fill="white">Trial</text>
<text text-anchor="start" x="361.5" y="-744.033" font-family="Helvetica Bold" font-size="8.00" fill="white">&lt;</text>
<text text-anchor="start" x="366.5" y="-744.033" font-family="Helvetica Italic" font-size="8.00" fill="white">TimeStampedModel</text>
<text text-anchor="start" x="439.5" y="-744.033" font-family="Helvetica Bold" font-size="8.00" fill="white">&gt;</text>
<text text-anchor="start" x="338" y="-728.133" font-family="Helvetica Bold" font-size="8.00" fill="#7b7b7b">id</text>
<text text-anchor="start" x="389" y="-728.133" font-family="Helvetica Bold" font-size="8.00" fill="#7b7b7b">AutoField</text>
<text text-anchor="start" x="338" y="-716.133" font-family="Helvetica Italic" font-size="8.00">created</text>
<text text-anchor="start" x="389" y="-716.133" font-family="Helvetica Italic" font-size="8.00">AutoCreatedField</text>
<text text-anchor="start" x="338" y="-704.133" font-family="Helvetica Italic" font-size="8.00">modified</text>
<text text-anchor="start" x="389" y="-704.133" font-family="Helvetica Italic" font-size="8.00">AutoLastModifiedField</text>
<text text-anchor="start" x="338" y="-692.133" font-family="Helvetica Bold" font-size="8.00">name</text>
<text text-anchor="start" x="389" y="-692.133" font-family="Helvetica Bold" font-size="8.00">CharField</text>
<text text-anchor="start" x="338" y="-680.133" font-family="Helvetica Bold" font-size="8.00" fill="#7b7b7b">description</text>
<text text-anchor="start" x="389" y="-680.133" font-family="Helvetica Bold" font-size="8.00" fill="#7b7b7b">TextField</text>
<text text-anchor="start" x="338" y="-668.133" font-family="Helvetica Bold" font-size="8.00">parameter</text>
<text text-anchor="start" x="389" y="-668.133" font-family="Helvetica Bold" font-size="8.00">FloatField</text>
</g>
<!-- spike_eval_models_evaluation_Evaluation&#45;&gt;spike_eval_models_benchmark_Trial -->
<g id="edge12" class="edge"><title>spike_eval_models_evaluation_Evaluation&#45;&gt;spike_eval_models_benchmark_Trial</title>
<path fill="none" stroke="black" d="M403,-815.88C403,-800.39 403,-783.51 403,-768.03"/>
<text text-anchor="middle" x="432" y="-790.8" font-family="Helvetica,sans-Serif" font-size="8.00">trial (evaluation)</text>
</g>
<!-- spike_eval_models_evaluation_Batch -->
<g id="node15" class="node"><title>spike_eval_models_evaluation_Batch</title>
<polygon fill="palegoldenrod" stroke="palegoldenrod" points="755.5,-664 755.5,-764 908.5,-764 908.5,-664 755.5,-664"/>
<polygon fill="#698b22" stroke="#698b22" points="756,-736 756,-764 909,-764 909,-736 756,-736"/>
<text text-anchor="start" x="820.5" y="-753.633" font-family="Helvetica Bold" font-size="8.00" fill="white">Batch</text>
<text text-anchor="start" x="768" y="-744.033" font-family="Helvetica Bold" font-size="8.00" fill="white">&lt;</text>
<text text-anchor="start" x="773" y="-744.033" font-family="Helvetica Italic" font-size="8.00" fill="white">StatusModel,TimeStampedModel</text>
<text text-anchor="start" x="892" y="-744.033" font-family="Helvetica Bold" font-size="8.00" fill="white">&gt;</text>
<text text-anchor="start" x="758" y="-728.133" font-family="Helvetica Bold" font-size="8.00" fill="#7b7b7b">id</text>
<text text-anchor="start" x="828" y="-728.133" font-family="Helvetica Bold" font-size="8.00" fill="#7b7b7b">AutoField</text>
<text text-anchor="start" x="758" y="-716.133" font-family="Helvetica Italic" font-size="8.00">created</text>
<text text-anchor="start" x="828" y="-716.133" font-family="Helvetica Italic" font-size="8.00">AutoCreatedField</text>
<text text-anchor="start" x="758" y="-704.133" font-family="Helvetica Italic" font-size="8.00">modified</text>
<text text-anchor="start" x="828" y="-704.133" font-family="Helvetica Italic" font-size="8.00">AutoLastModifiedField</text>
<text text-anchor="start" x="758" y="-692.133" font-family="Helvetica Italic" font-size="8.00">status</text>
<text text-anchor="start" x="828" y="-692.133" font-family="Helvetica Italic" font-size="8.00">StatusField</text>
<text text-anchor="start" x="758" y="-680.133" font-family="Helvetica Italic" font-size="8.00">status_changed</text>
<text text-anchor="start" x="828" y="-680.133" font-family="Helvetica Italic" font-size="8.00">MonitorField</text>
<text text-anchor="start" x="758" y="-668.133" font-family="Helvetica Bold" font-size="8.00" fill="#7b7b7b">description</text>
<text text-anchor="start" x="828" y="-668.133" font-family="Helvetica Bold" font-size="8.00" fill="#7b7b7b">TextField</text>
</g>
<!-- spike_eval_models_evaluation_Evaluation&#45;&gt;spike_eval_models_evaluation_Batch -->
<g id="edge14" class="edge"><title>spike_eval_models_evaluation_Evaluation&#45;&gt;spike_eval_models_evaluation_Batch</title>
<path fill="none" stroke="black" d="M476.26,-843.36C551.52,-815.99 668.55,-773.44 747.63,-744.68"/>
<text text-anchor="middle" x="662" y="-790.8" font-family="Helvetica,sans-Serif" font-size="8.00">batch (evaluation)</text>
</g>
<!-- spike_eval_models_metric_Metric&#45;&gt;spike_eval_models_datafile_Datafile -->
<g id="edge10" class="edge"><title>spike_eval_models_metric_Metric&#45;&gt;spike_eval_models_datafile_Datafile</title>
<path fill="none" stroke="black" stroke-dasharray="1,5" d="M463,-277.67C463,-268.69 463,-259.48 463,-250.35"/>
<polygon fill="black" stroke="black" points="459.5,-277.92 463,-287.92 466.5,-277.92 459.5,-277.92"/>
<polygon fill="black" stroke="black" points="466.5,-250.11 463,-240.11 459.5,-250.11 466.5,-250.11"/>
<text text-anchor="middle" x="498.5" y="-262.8" font-family="Helvetica,sans-Serif" font-size="8.00">datafile_set (metric)</text>
</g>
<!-- spike_eval_models_benchmark_Trial&#45;&gt;spike_eval_models_datafile_Datafile -->
<g id="edge36" class="edge"><title>spike_eval_models_benchmark_Trial&#45;&gt;spike_eval_models_datafile_Datafile</title>
<path fill="none" stroke="black" stroke-dasharray="1,5" d="M338.11,-651.94C328.05,-639.56 318.77,-626.02 312,-612 277.94,-541.46 271.07,-515.25 284,-438 297.97,-354.55 297.69,-327.46 346,-258 355.97,-243.66 368.65,-230.3 381.96,-218.37"/>
<polygon fill="black" stroke="black" points="335.693,-654.503 344.81,-659.9 341.048,-649.996 335.693,-654.503"/>
<polygon fill="black" stroke="black" points="384.593,-220.719 389.85,-211.52 380.004,-215.433 384.593,-220.719"/>
<text text-anchor="middle" x="315" y="-442.8" font-family="Helvetica,sans-Serif" font-size="8.00">datafile_set (trial)</text>
</g>
<!-- spike_eval_models_benchmark_Benchmark -->
<g id="node27" class="node"><title>spike_eval_models_benchmark_Benchmark</title>
<polygon fill="palegoldenrod" stroke="palegoldenrod" points="522.5,-472 522.5,-608 675.5,-608 675.5,-472 522.5,-472"/>
<polygon fill="#698b22" stroke="#698b22" points="523,-580 523,-608 676,-608 676,-580 523,-580"/>
<text text-anchor="start" x="577" y="-597.633" font-family="Helvetica Bold" font-size="8.00" fill="white">Benchmark</text>
<text text-anchor="start" x="535" y="-588.033" font-family="Helvetica Bold" font-size="8.00" fill="white">&lt;</text>
<text text-anchor="start" x="540" y="-588.033" font-family="Helvetica Italic" font-size="8.00" fill="white">StatusModel,TimeStampedModel</text>
<text text-anchor="start" x="659" y="-588.033" font-family="Helvetica Bold" font-size="8.00" fill="white">&gt;</text>
<text text-anchor="start" x="525" y="-572.133" font-family="Helvetica Bold" font-size="8.00" fill="#7b7b7b">id</text>
<text text-anchor="start" x="595" y="-572.133" font-family="Helvetica Bold" font-size="8.00" fill="#7b7b7b">AutoField</text>
<text text-anchor="start" x="525" y="-560.133" font-family="Helvetica Italic" font-size="8.00">created</text>
<text text-anchor="start" x="595" y="-560.133" font-family="Helvetica Italic" font-size="8.00">AutoCreatedField</text>
<text text-anchor="start" x="525" y="-548.133" font-family="Helvetica Italic" font-size="8.00">modified</text>
<text text-anchor="start" x="595" y="-548.133" font-family="Helvetica Italic" font-size="8.00">AutoLastModifiedField</text>
<text text-anchor="start" x="525" y="-536.133" font-family="Helvetica Italic" font-size="8.00">status</text>
<text text-anchor="start" x="595" y="-536.133" font-family="Helvetica Italic" font-size="8.00">StatusField</text>
<text text-anchor="start" x="525" y="-524.133" font-family="Helvetica Italic" font-size="8.00">status_changed</text>
<text text-anchor="start" x="595" y="-524.133" font-family="Helvetica Italic" font-size="8.00">MonitorField</text>
<text text-anchor="start" x="525" y="-512.133" font-family="Helvetica Bold" font-size="8.00">name</text>
<text text-anchor="start" x="595" y="-512.133" font-family="Helvetica Bold" font-size="8.00">CharField</text>
<text text-anchor="start" x="525" y="-500.133" font-family="Helvetica Bold" font-size="8.00" fill="#7b7b7b">description</text>
<text text-anchor="start" x="595" y="-500.133" font-family="Helvetica Bold" font-size="8.00" fill="#7b7b7b">TextField</text>
<text text-anchor="start" x="525" y="-488.133" font-family="Helvetica Bold" font-size="8.00">parameter</text>
<text text-anchor="start" x="595" y="-488.133" font-family="Helvetica Bold" font-size="8.00">CharField</text>
<text text-anchor="start" x="525" y="-476.133" font-family="Helvetica Bold" font-size="8.00">gt_access</text>
<text text-anchor="start" x="595" y="-476.133" font-family="Helvetica Bold" font-size="8.00">CharField</text>
</g>
<!-- spike_eval_models_benchmark_Trial&#45;&gt;spike_eval_models_benchmark_Benchmark -->
<g id="edge34" class="edge"><title>spike_eval_models_benchmark_Trial&#45;&gt;spike_eval_models_benchmark_Benchmark</title>
<path fill="none" stroke="black" d="M463.94,-659.9C480.91,-644.84 499.62,-628.23 517.56,-612.3"/>
<text text-anchor="middle" x="525.5" y="-634.8" font-family="Helvetica,sans-Serif" font-size="8.00">benchmark (trial)</text>
</g>
<!-- spike_eval_models_evaluation_Batch&#45;&gt;spike_eval_models_datafile_Datafile -->
<g id="edge44" class="edge"><title>spike_eval_models_evaluation_Batch&#45;&gt;spike_eval_models_datafile_Datafile</title>
<path fill="none" stroke="black" stroke-dasharray="1,5" d="M926.21,-700.91C980.41,-688.02 1044.3,-662.49 1078,-612 1160.6,-488.39 1110.1,-382.12 995,-288 926.85,-232.25 678.03,-191.12 546.23,-172.71"/>
<polygon fill="black" stroke="black" points="925.187,-697.553 916.21,-703.18 926.737,-704.379 925.187,-697.553"/>
<polygon fill="black" stroke="black" points="546.555,-169.222 536.17,-171.32 545.597,-176.156 546.555,-169.222"/>
<text text-anchor="middle" x="1147.5" y="-442.8" font-family="Helvetica,sans-Serif" font-size="8.00">datafile_set (batch)</text>
</g>
<!-- spike_eval_models_algorithm_Algorithm -->
<g id="node20" class="node"><title>spike_eval_models_algorithm_Algorithm</title>
<polygon fill="palegoldenrod" stroke="palegoldenrod" points="765,-490 765,-590 899,-590 899,-490 765,-490"/>
<polygon fill="#698b22" stroke="#698b22" points="765,-562 765,-590 899,-590 899,-562 765,-562"/>
<text text-anchor="start" x="812" y="-579.633" font-family="Helvetica Bold" font-size="8.00" fill="white">Algorithm</text>
<text text-anchor="start" x="790.5" y="-570.033" font-family="Helvetica Bold" font-size="8.00" fill="white">&lt;</text>
<text text-anchor="start" x="795.5" y="-570.033" font-family="Helvetica Italic" font-size="8.00" fill="white">TimeStampedModel</text>
<text text-anchor="start" x="868.5" y="-570.033" font-family="Helvetica Bold" font-size="8.00" fill="white">&gt;</text>
<text text-anchor="start" x="767" y="-554.133" font-family="Helvetica Bold" font-size="8.00" fill="#7b7b7b">id</text>
<text text-anchor="start" x="818" y="-554.133" font-family="Helvetica Bold" font-size="8.00" fill="#7b7b7b">AutoField</text>
<text text-anchor="start" x="767" y="-542.133" font-family="Helvetica Italic" font-size="8.00">created</text>
<text text-anchor="start" x="818" y="-542.133" font-family="Helvetica Italic" font-size="8.00">AutoCreatedField</text>
<text text-anchor="start" x="767" y="-530.133" font-family="Helvetica Italic" font-size="8.00">modified</text>
<text text-anchor="start" x="818" y="-530.133" font-family="Helvetica Italic" font-size="8.00">AutoLastModifiedField</text>
<text text-anchor="start" x="767" y="-518.133" font-family="Helvetica Bold" font-size="8.00">name</text>
<text text-anchor="start" x="818" y="-518.133" font-family="Helvetica Bold" font-size="8.00">CharField</text>
<text text-anchor="start" x="767" y="-506.133" font-family="Helvetica Bold" font-size="8.00">version</text>
<text text-anchor="start" x="818" y="-506.133" font-family="Helvetica Bold" font-size="8.00">CharField</text>
<text text-anchor="start" x="767" y="-494.133" font-family="Helvetica Bold" font-size="8.00" fill="#7b7b7b">description</text>
<text text-anchor="start" x="818" y="-494.133" font-family="Helvetica Bold" font-size="8.00" fill="#7b7b7b">TextField</text>
</g>
<!-- spike_eval_models_evaluation_Batch&#45;&gt;spike_eval_models_algorithm_Algorithm -->
<g id="edge40" class="edge"><title>spike_eval_models_evaluation_Batch&#45;&gt;spike_eval_models_algorithm_Algorithm</title>
<path fill="none" stroke="black" d="M832,-659.9C832,-638.95 832,-615.01 832,-594.07"/>
<text text-anchor="middle" x="862.5" y="-634.8" font-family="Helvetica,sans-Serif" font-size="8.00">algorithm (batch)</text>
</g>
<!-- django_contrib_auth_models_User -->
<g id="node21" class="node"><title>django_contrib_auth_models_User</title>
<polygon fill="palegoldenrod" stroke="palegoldenrod" points="944.5,-345.5 944.5,-362.5 973.5,-362.5 973.5,-345.5 944.5,-345.5"/>
<polygon fill="#698b22" stroke="#698b22" points="945,-345 945,-362 974,-362 974,-345 945,-345"/>
<text text-anchor="start" x="950" y="-351.633" font-family="Helvetica Bold" font-size="8.00" fill="white">User</text>
</g>
<!-- spike_eval_models_evaluation_Batch&#45;&gt;django_contrib_auth_models_User -->
<g id="edge38" class="edge"><title>spike_eval_models_evaluation_Batch&#45;&gt;django_contrib_auth_models_User</title>
<path fill="none" stroke="black" d="M916.21,-675.65C942.52,-659.62 969.06,-638.47 986,-612 1028.1,-546.2 1032.4,-513.15 1011,-438 1003.9,-413.09 987.1,-388.34 974.49,-372.23"/>
<text text-anchor="middle" x="1048.5" y="-538.8" font-family="Helvetica,sans-Serif" font-size="8.00">owner (batch)</text>
</g>
<!-- spike_eval_models_evaluation_Batch&#45;&gt;spike_eval_models_benchmark_Benchmark -->
<g id="edge42" class="edge"><title>spike_eval_models_evaluation_Batch&#45;&gt;spike_eval_models_benchmark_Benchmark</title>
<path fill="none" stroke="black" d="M759.55,-659.9C735.37,-641.84 708.23,-621.57 683.23,-602.9"/>
<text text-anchor="middle" x="763" y="-634.8" font-family="Helvetica,sans-Serif" font-size="8.00">benchmark (batch)</text>
</g>
<!-- spike_eval_models_result_EvaluationResult -->
<g id="node18" class="node"><title>spike_eval_models_result_EvaluationResult</title>
<polygon fill="palegoldenrod" stroke="palegoldenrod" points="502,-976.5 502,-1161.5 604,-1161.5 604,-976.5 502,-976.5"/>
<polygon fill="#698b22" stroke="#698b22" points="502,-1144 502,-1161 604,-1161 604,-1144 502,-1144"/>
<text text-anchor="start" x="519" y="-1150.63" font-family="Helvetica Bold" font-size="8.00" fill="white">EvaluationResult</text>
<text text-anchor="start" x="504" y="-1136.13" font-family="Helvetica Bold" font-size="8.00">gt_unit</text>
<text text-anchor="start" x="554" y="-1136.13" font-family="Helvetica Bold" font-size="8.00">CharField</text>
<text text-anchor="start" x="504" y="-1124.13" font-family="Helvetica Bold" font-size="8.00">found_unit</text>
<text text-anchor="start" x="554" y="-1124.13" font-family="Helvetica Bold" font-size="8.00">CharField</text>
<text text-anchor="start" x="504" y="-1112.13" font-family="Helvetica Bold" font-size="8.00">KS</text>
<text text-anchor="start" x="554" y="-1112.13" font-family="Helvetica Bold" font-size="8.00">IntegerField</text>
<text text-anchor="start" x="504" y="-1100.13" font-family="Helvetica Bold" font-size="8.00">KSO</text>
<text text-anchor="start" x="554" y="-1100.13" font-family="Helvetica Bold" font-size="8.00">IntegerField</text>
<text text-anchor="start" x="504" y="-1088.13" font-family="Helvetica Bold" font-size="8.00">FS</text>
<text text-anchor="start" x="554" y="-1088.13" font-family="Helvetica Bold" font-size="8.00">IntegerField</text>
<text text-anchor="start" x="504" y="-1076.13" font-family="Helvetica Bold" font-size="8.00">TP</text>
<text text-anchor="start" x="554" y="-1076.13" font-family="Helvetica Bold" font-size="8.00">IntegerField</text>
<text text-anchor="start" x="504" y="-1064.13" font-family="Helvetica Bold" font-size="8.00">TPO</text>
<text text-anchor="start" x="554" y="-1064.13" font-family="Helvetica Bold" font-size="8.00">IntegerField</text>
<text text-anchor="start" x="504" y="-1052.13" font-family="Helvetica Bold" font-size="8.00">FPA</text>
<text text-anchor="start" x="554" y="-1052.13" font-family="Helvetica Bold" font-size="8.00">IntegerField</text>
<text text-anchor="start" x="504" y="-1040.13" font-family="Helvetica Bold" font-size="8.00">FPAE</text>
<text text-anchor="start" x="554" y="-1040.13" font-family="Helvetica Bold" font-size="8.00">IntegerField</text>
<text text-anchor="start" x="504" y="-1028.13" font-family="Helvetica Bold" font-size="8.00">FPAO</text>
<text text-anchor="start" x="554" y="-1028.13" font-family="Helvetica Bold" font-size="8.00">IntegerField</text>
<text text-anchor="start" x="504" y="-1016.13" font-family="Helvetica Bold" font-size="8.00">FPAOE</text>
<text text-anchor="start" x="554" y="-1016.13" font-family="Helvetica Bold" font-size="8.00">IntegerField</text>
<text text-anchor="start" x="504" y="-1004.13" font-family="Helvetica Bold" font-size="8.00">FN</text>
<text text-anchor="start" x="554" y="-1004.13" font-family="Helvetica Bold" font-size="8.00">IntegerField</text>
<text text-anchor="start" x="504" y="-992.133" font-family="Helvetica Bold" font-size="8.00">FNO</text>
<text text-anchor="start" x="554" y="-992.133" font-family="Helvetica Bold" font-size="8.00">IntegerField</text>
<text text-anchor="start" x="504" y="-980.133" font-family="Helvetica Bold" font-size="8.00">FP</text>
<text text-anchor="start" x="554" y="-980.133" font-family="Helvetica Bold" font-size="8.00">IntegerField</text>
</g>
<!-- spike_eval_models_result_EvaluationResultImg -->
<g id="node19" class="node"><title>spike_eval_models_result_EvaluationResultImg</title>
<polygon fill="palegoldenrod" stroke="palegoldenrod" points="637.5,-1048.5 637.5,-1089.5 730.5,-1089.5 730.5,-1048.5 637.5,-1048.5"/>
<polygon fill="#698b22" stroke="#698b22" points="638,-1072 638,-1089 731,-1089 731,-1072 638,-1072"/>
<text text-anchor="start" x="643.5" y="-1078.63" font-family="Helvetica Bold" font-size="8.00" fill="white">EvaluationResultImg</text>
<text text-anchor="start" x="640" y="-1064.13" font-family="Helvetica Bold" font-size="8.00">file</text>
<text text-anchor="start" x="686" y="-1064.13" font-family="Helvetica Bold" font-size="8.00">ImageField</text>
<text text-anchor="start" x="640" y="-1052.13" font-family="Helvetica Bold" font-size="8.00">file_type</text>
<text text-anchor="start" x="686" y="-1052.13" font-family="Helvetica Bold" font-size="8.00">CharField</text>
</g>
<!-- spike_eval_models_algorithm_Algorithm&#45;&gt;spike_eval_models_datafile_Datafile -->
<g id="edge24" class="edge"><title>spike_eval_models_algorithm_Algorithm&#45;&gt;spike_eval_models_datafile_Datafile</title>
<path fill="none" stroke="black" stroke-dasharray="1,5" d="M831.9,-475.7C828.37,-419.33 814.47,-338.67 767,-288 708.36,-225.41 613.96,-192.9 545.9,-176.71"/>
<polygon fill="black" stroke="black" points="828.418,-476.128 832.44,-485.93 835.408,-475.759 828.418,-476.128"/>
<polygon fill="black" stroke="black" points="546.591,-173.278 536.06,-174.44 545.017,-180.098 546.591,-173.278"/>
<text text-anchor="middle" x="865" y="-352.8" font-family="Helvetica,sans-Serif" font-size="8.00">datafile_set (algorithm)</text>
</g>
<!-- spike_eval_models_algorithm_Algorithm&#45;&gt;spike_eval_models_algorithm_Algorithm -->
<g id="edge20" class="edge"><title>spike_eval_models_algorithm_Algorithm&#45;&gt;spike_eval_models_algorithm_Algorithm</title>
<path fill="none" stroke="black" d="M907.17,-556.15C917.84,-553.54 925,-548.16 925,-540 925,-531.84 917.84,-526.46 907.17,-523.85"/>
<text text-anchor="middle" x="951" y="-538.8" font-family="Helvetica,sans-Serif" font-size="8.00">parent (childs)</text>
</g>
<!-- spike_eval_models_algorithm_Algorithm&#45;&gt;django_contrib_auth_models_User -->
<g id="edge18" class="edge"><title>spike_eval_models_algorithm_Algorithm&#45;&gt;django_contrib_auth_models_User</title>
<path fill="none" stroke="black" d="M907.18,-486.25C918.51,-475.35 929.05,-463.15 937,-450 951.68,-425.71 956.57,-392.56 958.2,-372.25"/>
<text text-anchor="middle" x="975" y="-442.8" font-family="Helvetica,sans-Serif" font-size="8.00">owner (algorithm)</text>
</g>
<!-- taggit_models_TaggedItem -->
<g id="node24" class="node"><title>taggit_models_TaggedItem</title>
<polygon fill="palegoldenrod" stroke="palegoldenrod" points="693.5,-345.5 693.5,-362.5 750.5,-362.5 750.5,-345.5 693.5,-345.5"/>
<polygon fill="#698b22" stroke="#698b22" points="694,-345 694,-362 751,-362 751,-345 694,-345"/>
<text text-anchor="start" x="699" y="-351.633" font-family="Helvetica Bold" font-size="8.00" fill="white">TaggedItem</text>
</g>
<!-- spike_eval_models_algorithm_Algorithm&#45;&gt;taggit_models_TaggedItem -->
<g id="edge22" class="edge"><title>spike_eval_models_algorithm_Algorithm&#45;&gt;taggit_models_TaggedItem</title>
<path fill="none" stroke="black" stroke-dasharray="1,5" d="M749.86,-481.08C741.21,-471.63 733.56,-461.23 728,-450 717.57,-428.94 716.79,-402.03 718.21,-382.06"/>
<polygon fill="black" stroke="black" points="747.521,-483.696 756.99,-488.45 752.552,-478.829 747.521,-483.696"/>
<polygon fill="black" stroke="black" points="721.701,-382.321 719.14,-372.04 714.731,-381.674 721.701,-382.321"/>
<text text-anchor="middle" x="773" y="-442.8" font-family="Helvetica,sans-Serif" font-size="8.00">tagged_items (algorithm)</text>
</g>
<!-- spike_eval_models_benchmark_Benchmark&#45;&gt;spike_eval_models_datafile_Datafile -->
<g id="edge32" class="edge"><title>spike_eval_models_benchmark_Benchmark&#45;&gt;spike_eval_models_datafile_Datafile</title>
<path fill="none" stroke="black" stroke-dasharray="1,5" d="M592.67,-457.54C585.51,-399.15 570.29,-320.43 538,-258 536.4,-254.9 534.69,-251.8 532.9,-248.72"/>
<polygon fill="black" stroke="black" points="589.236,-458.307 593.88,-467.83 596.188,-457.49 589.236,-458.307"/>
<polygon fill="black" stroke="black" points="535.826,-246.796 527.64,-240.07 529.845,-250.433 535.826,-246.796"/>
<text text-anchor="middle" x="631.5" y="-352.8" font-family="Helvetica,sans-Serif" font-size="8.00">datafile_set (benchmark)</text>
</g>
<!-- spike_eval_models_benchmark_Benchmark&#45;&gt;spike_eval_models_metric_Metric -->
<g id="edge30" class="edge"><title>spike_eval_models_benchmark_Benchmark&#45;&gt;spike_eval_models_metric_Metric</title>
<path fill="none" stroke="black" d="M508.75,-477.94C500.18,-469.32 492.34,-459.97 486,-450 481.69,-443.22 478.18,-435.71 475.34,-427.95"/>
<ellipse fill="black" stroke="black" cx="511.917" cy="-481.007" rx="4.00002" ry="4.00002"/>
<ellipse fill="black" stroke="black" cx="473.981" cy="-423.929" rx="4.00001" ry="4.00001"/>
<text text-anchor="middle" x="523" y="-442.8" font-family="Helvetica,sans-Serif" font-size="8.00">metrics (benchmark)</text>
</g>
<!-- spike_eval_models_benchmark_Benchmark&#45;&gt;django_contrib_auth_models_User -->
<g id="edge26" class="edge"><title>spike_eval_models_benchmark_Benchmark&#45;&gt;django_contrib_auth_models_User</title>
<path fill="none" stroke="black" d="M683.16,-495.51C703.99,-485.58 726.5,-475.71 748,-468 779.86,-456.57 789.39,-459.05 822,-450 824.69,-449.25 915.79,-421.71 918,-420 934,-407.61 945.32,-387.08 951.96,-372.2"/>
<text text-anchor="middle" x="894.5" y="-442.8" font-family="Helvetica,sans-Serif" font-size="8.00">owner (benchmark)</text>
</g>
<!-- spike_eval_models_benchmark_Benchmark&#45;&gt;taggit_models_TaggedItem -->
<g id="edge28" class="edge"><title>spike_eval_models_benchmark_Benchmark&#45;&gt;taggit_models_TaggedItem</title>
<path fill="none" stroke="black" stroke-dasharray="1,5" d="M609.62,-458.3C612.81,-450.95 616.87,-444.02 622,-438 635.98,-421.61 649.57,-432.66 667,-420 681.75,-409.28 694.95,-393.76 704.72,-380.45"/>
<polygon fill="black" stroke="black" points="606.287,-457.218 606.03,-467.81 612.836,-459.691 606.287,-457.218"/>
<polygon fill="black" stroke="black" points="707.704,-382.293 710.63,-372.11 701.992,-378.245 707.704,-382.293"/>
<text text-anchor="middle" x="670.5" y="-442.8" font-family="Helvetica,sans-Serif" font-size="8.00">tagged_items (benchmark)</text>
</g>
<!-- spike_dev_models_BM -->
<g id="node38" class="node"><title>spike_dev_models_BM</title>
<polygon fill="palegoldenrod" stroke="palegoldenrod" points="771.5,-1060.5 771.5,-1077.5 794.5,-1077.5 794.5,-1060.5 771.5,-1060.5"/>
<polygon fill="#698b22" stroke="#698b22" points="772,-1060 772,-1077 795,-1077 795,-1060 772,-1060"/>
<text text-anchor="start" x="777" y="-1066.63" font-family="Helvetica Bold" font-size="8.00" fill="white">BM</text>
</g>
<!-- spike_dev_models_TR -->
<g id="node39" class="node"><title>spike_dev_models_TR</title>
<polygon fill="palegoldenrod" stroke="palegoldenrod" points="844.5,-1060.5 844.5,-1077.5 865.5,-1077.5 865.5,-1060.5 844.5,-1060.5"/>
<polygon fill="#698b22" stroke="#698b22" points="845,-1060 845,-1077 866,-1077 866,-1060 845,-1060"/>
<text text-anchor="start" x="849.5" y="-1066.63" font-family="Helvetica Bold" font-size="8.00" fill="white">TR</text>
</g>
<!-- spike_dev_models_DF -->
<g id="node40" class="node"><title>spike_dev_models_DF</title>
<polygon fill="palegoldenrod" stroke="palegoldenrod" points="916.5,-1060.5 916.5,-1077.5 937.5,-1077.5 937.5,-1060.5 916.5,-1060.5"/>
<polygon fill="#698b22" stroke="#698b22" points="917,-1060 917,-1077 938,-1077 938,-1060 917,-1060"/>
<text text-anchor="start" x="921.5" y="-1066.63" font-family="Helvetica Bold" font-size="8.00" fill="white">DF</text>
</g>
<!-- spike_dev_models_BT -->
<g id="node41" class="node"><title>spike_dev_models_BT</title>
<polygon fill="palegoldenrod" stroke="palegoldenrod" points="988.5,-1060.5 988.5,-1077.5 1009.5,-1077.5 1009.5,-1060.5 988.5,-1060.5"/>
<polygon fill="#698b22" stroke="#698b22" points="989,-1060 989,-1077 1010,-1077 1010,-1060 989,-1060"/>
<text text-anchor="start" x="993.5" y="-1066.63" font-family="Helvetica Bold" font-size="8.00" fill="white">BT</text>
</g>
<!-- spike_dev_models_EV -->
<g id="node42" class="node"><title>spike_dev_models_EV</title>
<polygon fill="palegoldenrod" stroke="palegoldenrod" points="1060.5,-1060.5 1060.5,-1077.5 1081.5,-1077.5 1081.5,-1060.5 1060.5,-1060.5"/>
<polygon fill="#698b22" stroke="#698b22" points="1061,-1060 1061,-1077 1082,-1077 1082,-1060 1061,-1060"/>
<text text-anchor="start" x="1066" y="-1066.63" font-family="Helvetica Bold" font-size="8.00" fill="white">EV</text>
</g>
<!-- spike_dev_models_AL -->
<g id="node43" class="node"><title>spike_dev_models_AL</title>
<polygon fill="palegoldenrod" stroke="palegoldenrod" points="1132.5,-1060.5 1132.5,-1077.5 1153.5,-1077.5 1153.5,-1060.5 1132.5,-1060.5"/>
<polygon fill="#698b22" stroke="#698b22" points="1133,-1060 1133,-1077 1154,-1077 1154,-1060 1133,-1060"/>
<text text-anchor="start" x="1137.5" y="-1066.63" font-family="Helvetica Bold" font-size="8.00" fill="white">AL</text>
</g>
<!-- spike_dev_models_MT -->
<g id="node44" class="node"><title>spike_dev_models_MT</title>
<polygon fill="palegoldenrod" stroke="palegoldenrod" points="1203.5,-1060.5 1203.5,-1077.5 1226.5,-1077.5 1226.5,-1060.5 1203.5,-1060.5"/>
<polygon fill="#698b22" stroke="#698b22" points="1204,-1060 1204,-1077 1227,-1077 1227,-1060 1204,-1060"/>
<text text-anchor="start" x="1209" y="-1066.63" font-family="Helvetica Bold" font-size="8.00" fill="white">MT</text>
</g>
<!-- spike_dev_models_ResultTest -->
<g id="node45" class="node"><title>spike_dev_models_ResultTest</title>
<polygon fill="palegoldenrod" stroke="palegoldenrod" points="1267.5,-1042.5 1267.5,-1095.5 1346.5,-1095.5 1346.5,-1042.5 1267.5,-1042.5"/>
<polygon fill="#698b22" stroke="#698b22" points="1268,-1078 1268,-1095 1347,-1095 1347,-1078 1268,-1078"/>
<text text-anchor="start" x="1286" y="-1084.63" font-family="Helvetica Bold" font-size="8.00" fill="white">ResultTest</text>
<text text-anchor="start" x="1270" y="-1070.13" font-family="Helvetica Bold" font-size="8.00">mini</text>
<text text-anchor="start" x="1297" y="-1070.13" font-family="Helvetica Bold" font-size="8.00">IntegerField</text>
<text text-anchor="start" x="1270" y="-1058.13" font-family="Helvetica Bold" font-size="8.00">maxi</text>
<text text-anchor="start" x="1297" y="-1058.13" font-family="Helvetica Bold" font-size="8.00">IntegerField</text>
<text text-anchor="start" x="1270" y="-1046.13" font-family="Helvetica Bold" font-size="8.00">mean</text>
<text text-anchor="start" x="1297" y="-1046.13" font-family="Helvetica Bold" font-size="8.00">IntegerField</text>
</g>
</g>
</svg>
