<?xml version="1.0" encoding="UTF-8" standalone="no"?>
<!DOCTYPE svg PUBLIC "-//W3C//DTD SVG 1.1//EN"
 "http://www.w3.org/Graphics/SVG/1.1/DTD/svg11.dtd">
<!-- Generated by graphviz version 2.26.3 (20100126.1600)
 -->
<!-- Title: name Pages: 1 -->
<svg width="1254pt" height="1018pt"
 viewBox="0.00 0.00 1254.00 1018.00" xmlns="http://www.w3.org/2000/svg" xmlns:xlink="http://www.w3.org/1999/xlink">
<g id="graph1" class="graph" transform="scale(1 1) rotate(0) translate(4 1014)">
<title>name</title>
<polygon fill="white" stroke="white" points="-4,5 -4,-1014 1251,-1014 1251,5 -4,5"/>
<!-- model_utils_models_TimeStampedModel -->
<g id="node1" class="node"><title>model_utils_models_TimeStampedModel</title>
<polygon fill="palegoldenrod" stroke="palegoldenrod" points="515.5,-892.5 515.5,-933.5 654.5,-933.5 654.5,-892.5 515.5,-892.5"/>
<polygon fill="#698b22" stroke="#698b22" points="516,-916 516,-933 655,-933 655,-916 516,-916"/>
<text text-anchor="start" x="546.5" y="-922.633" font-family="Helvetica Bold" font-size="8.00" fill="white">TimeStampedModel</text>
<text text-anchor="start" x="518" y="-908.133" font-family="Helvetica Bold" font-size="8.00">created</text>
<text text-anchor="start" x="562" y="-908.133" font-family="Helvetica Bold" font-size="8.00">AutoCreatedField</text>
<text text-anchor="start" x="518" y="-896.133" font-family="Helvetica Bold" font-size="8.00">modified</text>
<text text-anchor="start" x="562" y="-896.133" font-family="Helvetica Bold" font-size="8.00">AutoLastModifiedField</text>
</g>
<!-- model_utils_models_StatusModel -->
<g id="node2" class="node"><title>model_utils_models_StatusModel</title>
<polygon fill="palegoldenrod" stroke="palegoldenrod" points="688,-892.5 688,-933.5 812,-933.5 812,-892.5 688,-892.5"/>
<polygon fill="#698b22" stroke="#698b22" points="688,-916 688,-933 812,-933 812,-916 688,-916"/>
<text text-anchor="start" x="725" y="-922.633" font-family="Helvetica Bold" font-size="8.00" fill="white">StatusModel</text>
<text text-anchor="start" x="690" y="-908.133" font-family="Helvetica Bold" font-size="8.00">status</text>
<text text-anchor="start" x="759" y="-908.133" font-family="Helvetica Bold" font-size="8.00">StatusField</text>
<text text-anchor="start" x="690" y="-896.133" font-family="Helvetica Bold" font-size="8.00">status_changed</text>
<text text-anchor="start" x="759" y="-896.133" font-family="Helvetica Bold" font-size="8.00">MonitorField</text>
</g>
<!-- spike_core_algorithm_models_Algorithm -->
<g id="node3" class="node"><title>spike_core_algorithm_models_Algorithm</title>
<polygon fill="palegoldenrod" stroke="palegoldenrod" points="134,-298 134,-398 268,-398 268,-298 134,-298"/>
<polygon fill="#698b22" stroke="#698b22" points="134,-370 134,-398 268,-398 268,-370 134,-370"/>
<text text-anchor="start" x="181" y="-387.633" font-family="Helvetica Bold" font-size="8.00" fill="white">Algorithm</text>
<text text-anchor="start" x="159.5" y="-378.033" font-family="Helvetica Bold" font-size="8.00" fill="white">&lt;</text>
<text text-anchor="start" x="164.5" y="-378.033" font-family="Helvetica Italic" font-size="8.00" fill="white">TimeStampedModel</text>
<text text-anchor="start" x="237.5" y="-378.033" font-family="Helvetica Bold" font-size="8.00" fill="white">&gt;</text>
<text text-anchor="start" x="136" y="-362.133" font-family="Helvetica Bold" font-size="8.00" fill="#7b7b7b">id</text>
<text text-anchor="start" x="187" y="-362.133" font-family="Helvetica Bold" font-size="8.00" fill="#7b7b7b">AutoField</text>
<text text-anchor="start" x="136" y="-350.133" font-family="Helvetica Italic" font-size="8.00">created</text>
<text text-anchor="start" x="187" y="-350.133" font-family="Helvetica Italic" font-size="8.00">AutoCreatedField</text>
<text text-anchor="start" x="136" y="-338.133" font-family="Helvetica Italic" font-size="8.00">modified</text>
<text text-anchor="start" x="187" y="-338.133" font-family="Helvetica Italic" font-size="8.00">AutoLastModifiedField</text>
<text text-anchor="start" x="136" y="-326.133" font-family="Helvetica Bold" font-size="8.00">name</text>
<text text-anchor="start" x="187" y="-326.133" font-family="Helvetica Bold" font-size="8.00">CharField</text>
<text text-anchor="start" x="136" y="-314.133" font-family="Helvetica Bold" font-size="8.00">version</text>
<text text-anchor="start" x="187" y="-314.133" font-family="Helvetica Bold" font-size="8.00">CharField</text>
<text text-anchor="start" x="136" y="-302.133" font-family="Helvetica Bold" font-size="8.00" fill="#7b7b7b">description</text>
<text text-anchor="start" x="187" y="-302.133" font-family="Helvetica Bold" font-size="8.00" fill="#7b7b7b">TextField</text>
</g>
<!-- spike_core_algorithm_models_Algorithm&#45;&gt;spike_core_algorithm_models_Algorithm -->
<g id="edge8" class="edge"><title>spike_core_algorithm_models_Algorithm&#45;&gt;spike_core_algorithm_models_Algorithm</title>
<path fill="none" stroke="black" d="M276.17,-364.15C286.84,-361.54 294,-356.16 294,-348 294,-339.84 286.84,-334.46 276.17,-331.85"/>
<text text-anchor="middle" x="324" y="-346.8" font-family="Helvetica,sans-Serif" font-size="8.00">parent (children)</text>
</g>
<!-- taggit_models_TaggedItem -->
<g id="node4" class="node"><title>taggit_models_TaggedItem</title>
<polygon fill="palegoldenrod" stroke="palegoldenrod" points="236.5,-147.5 236.5,-164.5 293.5,-164.5 293.5,-147.5 236.5,-147.5"/>
<polygon fill="#698b22" stroke="#698b22" points="237,-147 237,-164 294,-164 294,-147 237,-147"/>
<text text-anchor="start" x="242" y="-153.633" font-family="Helvetica Bold" font-size="8.00" fill="white">TaggedItem</text>
</g>
<!-- spike_core_algorithm_models_Algorithm&#45;&gt;taggit_models_TaggedItem -->
<g id="edge2" class="edge"><title>spike_core_algorithm_models_Algorithm&#45;&gt;taggit_models_TaggedItem</title>
<path fill="none" stroke="black" stroke-dasharray="1,5" d="M201.35,-283.75C202.72,-271.02 205.08,-257.92 209,-246 216.58,-222.92 231.23,-199.72 243.65,-182.65"/>
<polygon fill="black" stroke="black" points="197.851,-283.579 200.45,-293.85 204.824,-284.2 197.851,-283.579"/>
<polygon fill="black" stroke="black" points="246.696,-184.422 249.89,-174.32 241.093,-180.225 246.696,-184.422"/>
<text text-anchor="middle" x="254" y="-250.8" font-family="Helvetica,sans-Serif" font-size="8.00">tagged_items (algorithm)</text>
</g>
<!-- django_contrib_auth_models_User -->
<g id="node6" class="node"><title>django_contrib_auth_models_User</title>
<polygon fill="palegoldenrod" stroke="palegoldenrod" points="12.5,-147.5 12.5,-164.5 41.5,-164.5 41.5,-147.5 12.5,-147.5"/>
<polygon fill="#698b22" stroke="#698b22" points="13,-147 13,-164 42,-164 42,-147 13,-147"/>
<text text-anchor="start" x="18" y="-153.633" font-family="Helvetica Bold" font-size="8.00" fill="white">User</text>
</g>
<!-- spike_core_algorithm_models_Algorithm&#45;&gt;django_contrib_auth_models_User -->
<g id="edge4" class="edge"><title>spike_core_algorithm_models_Algorithm&#45;&gt;django_contrib_auth_models_User</title>
<path fill="none" stroke="black" d="M125.59,-313.21C81.76,-292.23 33.977,-267.74 28,-258 12.253,-232.34 16.979,-195.78 21.931,-174.11"/>
<text text-anchor="middle" x="60" y="-250.8" font-family="Helvetica,sans-Serif" font-size="8.00">owner (algorithm)</text>
</g>
<!-- spike_core_datafile_models_Datafile -->
<g id="node8" class="node"><title>spike_core_datafile_models_Datafile</title>
<polygon fill="palegoldenrod" stroke="palegoldenrod" points="616,-88 616,-224 746,-224 746,-88 616,-88"/>
<polygon fill="#698b22" stroke="#698b22" points="616,-196 616,-224 746,-224 746,-196 616,-196"/>
<text text-anchor="start" x="665.5" y="-213.633" font-family="Helvetica Bold" font-size="8.00" fill="white">Datafile</text>
<text text-anchor="start" x="639.5" y="-204.033" font-family="Helvetica Bold" font-size="8.00" fill="white">&lt;</text>
<text text-anchor="start" x="644.5" y="-204.033" font-family="Helvetica Italic" font-size="8.00" fill="white">TimeStampedModel</text>
<text text-anchor="start" x="717.5" y="-204.033" font-family="Helvetica Bold" font-size="8.00" fill="white">&gt;</text>
<text text-anchor="start" x="618" y="-188.133" font-family="Helvetica Bold" font-size="8.00" fill="#7b7b7b">id</text>
<text text-anchor="start" x="665" y="-188.133" font-family="Helvetica Bold" font-size="8.00" fill="#7b7b7b">AutoField</text>
<text text-anchor="start" x="618" y="-176.133" font-family="Helvetica Italic" font-size="8.00">created</text>
<text text-anchor="start" x="665" y="-176.133" font-family="Helvetica Italic" font-size="8.00">AutoCreatedField</text>
<text text-anchor="start" x="618" y="-164.133" font-family="Helvetica Italic" font-size="8.00">modified</text>
<text text-anchor="start" x="665" y="-164.133" font-family="Helvetica Italic" font-size="8.00">AutoLastModifiedField</text>
<text text-anchor="start" x="618" y="-152.133" font-family="Helvetica Bold" font-size="8.00">name</text>
<text text-anchor="start" x="665" y="-152.133" font-family="Helvetica Bold" font-size="8.00">CharField</text>
<text text-anchor="start" x="618" y="-140.133" font-family="Helvetica Bold" font-size="8.00" fill="#7b7b7b">ext</text>
<text text-anchor="start" x="665" y="-140.133" font-family="Helvetica Bold" font-size="8.00" fill="#7b7b7b">CharField</text>
<text text-anchor="start" x="618" y="-128.133" font-family="Helvetica Bold" font-size="8.00" fill="#7b7b7b">sha1</text>
<text text-anchor="start" x="665" y="-128.133" font-family="Helvetica Bold" font-size="8.00" fill="#7b7b7b">CharField</text>
<text text-anchor="start" x="618" y="-116.133" font-family="Helvetica Bold" font-size="8.00">file</text>
<text text-anchor="start" x="665" y="-116.133" font-family="Helvetica Bold" font-size="8.00">FileField</text>
<text text-anchor="start" x="618" y="-104.133" font-family="Helvetica Bold" font-size="8.00" fill="#7b7b7b">file_type</text>
<text text-anchor="start" x="665" y="-104.133" font-family="Helvetica Bold" font-size="8.00" fill="#7b7b7b">TextField</text>
<text text-anchor="start" x="618" y="-92.1333" font-family="Helvetica Bold" font-size="8.00">object_id</text>
<text text-anchor="start" x="665" y="-92.1333" font-family="Helvetica Bold" font-size="8.00">PositiveIntegerField</text>
</g>
<!-- spike_core_algorithm_models_Algorithm&#45;&gt;spike_core_datafile_models_Datafile -->
<g id="edge6" class="edge"><title>spike_core_algorithm_models_Algorithm&#45;&gt;spike_core_datafile_models_Datafile</title>
<path fill="none" stroke="black" stroke-dasharray="1,5" d="M285.48,-308.4C310.23,-297.36 337.5,-285.73 363,-276 387.42,-266.68 394.36,-266.75 419,-258 421.29,-257.19 522.35,-217.83 598.26,-188.25"/>
<polygon fill="black" stroke="black" points="283.811,-305.313 276.12,-312.6 286.676,-311.699 283.811,-305.313"/>
<polygon fill="black" stroke="black" points="599.805,-191.404 607.85,-184.51 597.262,-184.883 599.805,-191.404"/>
<text text-anchor="middle" x="488" y="-250.8" font-family="Helvetica,sans-Serif" font-size="8.00">datafile_set (algorithm)</text>
</g>
<!-- django_contrib_contenttypes_models_ContentType -->
<g id="node11" class="node"><title>django_contrib_contenttypes_models_ContentType</title>
<polygon fill="palegoldenrod" stroke="palegoldenrod" points="650.5,-9.5 650.5,-26.5 711.5,-26.5 711.5,-9.5 650.5,-9.5"/>
<polygon fill="#698b22" stroke="#698b22" points="651,-9 651,-26 712,-26 712,-9 651,-9"/>
<text text-anchor="start" x="655.5" y="-15.6333" font-family="Helvetica Bold" font-size="8.00" fill="white">ContentType</text>
</g>
<!-- spike_core_datafile_models_Datafile&#45;&gt;django_contrib_contenttypes_models_ContentType -->
<g id="edge10" class="edge"><title>spike_core_datafile_models_Datafile&#45;&gt;django_contrib_contenttypes_models_ContentType</title>
<path fill="none" stroke="black" d="M681,-83.767C681,-66.029 681,-48.576 681,-36.112"/>
<text text-anchor="middle" x="721" y="-58.8" font-family="Helvetica,sans-Serif" font-size="8.00">content_type (datafile)</text>
</g>
<!-- spike_core_benchmark_models_Benchmark -->
<g id="node13" class="node"><title>spike_core_benchmark_models_Benchmark</title>
<polygon fill="palegoldenrod" stroke="palegoldenrod" points="379.5,-280 379.5,-416 532.5,-416 532.5,-280 379.5,-280"/>
<polygon fill="#698b22" stroke="#698b22" points="380,-388 380,-416 533,-416 533,-388 380,-388"/>
<text text-anchor="start" x="434" y="-405.633" font-family="Helvetica Bold" font-size="8.00" fill="white">Benchmark</text>
<text text-anchor="start" x="392" y="-396.033" font-family="Helvetica Bold" font-size="8.00" fill="white">&lt;</text>
<text text-anchor="start" x="397" y="-396.033" font-family="Helvetica Italic" font-size="8.00" fill="white">StatusModel,TimeStampedModel</text>
<text text-anchor="start" x="516" y="-396.033" font-family="Helvetica Bold" font-size="8.00" fill="white">&gt;</text>
<text text-anchor="start" x="382" y="-380.133" font-family="Helvetica Bold" font-size="8.00" fill="#7b7b7b">id</text>
<text text-anchor="start" x="452" y="-380.133" font-family="Helvetica Bold" font-size="8.00" fill="#7b7b7b">AutoField</text>
<text text-anchor="start" x="382" y="-368.133" font-family="Helvetica Italic" font-size="8.00">created</text>
<text text-anchor="start" x="452" y="-368.133" font-family="Helvetica Italic" font-size="8.00">AutoCreatedField</text>
<text text-anchor="start" x="382" y="-356.133" font-family="Helvetica Italic" font-size="8.00">modified</text>
<text text-anchor="start" x="452" y="-356.133" font-family="Helvetica Italic" font-size="8.00">AutoLastModifiedField</text>
<text text-anchor="start" x="382" y="-344.133" font-family="Helvetica Italic" font-size="8.00">status</text>
<text text-anchor="start" x="452" y="-344.133" font-family="Helvetica Italic" font-size="8.00">StatusField</text>
<text text-anchor="start" x="382" y="-332.133" font-family="Helvetica Italic" font-size="8.00">status_changed</text>
<text text-anchor="start" x="452" y="-332.133" font-family="Helvetica Italic" font-size="8.00">MonitorField</text>
<text text-anchor="start" x="382" y="-320.133" font-family="Helvetica Bold" font-size="8.00">name</text>
<text text-anchor="start" x="452" y="-320.133" font-family="Helvetica Bold" font-size="8.00">CharField</text>
<text text-anchor="start" x="382" y="-308.133" font-family="Helvetica Bold" font-size="8.00" fill="#7b7b7b">description</text>
<text text-anchor="start" x="452" y="-308.133" font-family="Helvetica Bold" font-size="8.00" fill="#7b7b7b">TextField</text>
<text text-anchor="start" x="382" y="-296.133" font-family="Helvetica Bold" font-size="8.00">parameter</text>
<text text-anchor="start" x="452" y="-296.133" font-family="Helvetica Bold" font-size="8.00">CharField</text>
<text text-anchor="start" x="382" y="-284.133" font-family="Helvetica Bold" font-size="8.00">gt_access</text>
<text text-anchor="start" x="452" y="-284.133" font-family="Helvetica Bold" font-size="8.00">CharField</text>
</g>
<!-- spike_core_benchmark_models_Benchmark&#45;&gt;taggit_models_TaggedItem -->
<g id="edge12" class="edge"><title>spike_core_benchmark_models_Benchmark&#45;&gt;taggit_models_TaggedItem</title>
<path fill="none" stroke="black" stroke-dasharray="1,5" d="M363.28,-276.17C363.19,-276.11 363.09,-276.06 363,-276 345.89,-265.83 336.73,-271.38 322,-258 299.5,-237.56 283.81,-206.11 274.67,-183.54"/>
<polygon fill="black" stroke="black" points="361.634,-279.267 371.98,-281.55 365.316,-273.314 361.634,-279.267"/>
<polygon fill="black" stroke="black" points="277.913,-182.223 271.04,-174.16 271.385,-184.749 277.913,-182.223"/>
<text text-anchor="middle" x="370.5" y="-250.8" font-family="Helvetica,sans-Serif" font-size="8.00">tagged_items (benchmark)</text>
</g>
<!-- spike_core_benchmark_models_Benchmark&#45;&gt;django_contrib_auth_models_User -->
<g id="edge14" class="edge"><title>spike_core_benchmark_models_Benchmark&#45;&gt;django_contrib_auth_models_User</title>
<path fill="none" stroke="black" d="M371.8,-279.77C368.89,-278.4 365.95,-277.14 363,-276 266.09,-238.64 224.46,-301.19 130,-258 89.717,-239.58 56.14,-198.28 39.088,-174.26"/>
<text text-anchor="middle" x="165.5" y="-250.8" font-family="Helvetica,sans-Serif" font-size="8.00">owner (benchmark)</text>
</g>
<!-- spike_core_benchmark_models_Benchmark&#45;&gt;spike_core_datafile_models_Datafile -->
<g id="edge16" class="edge"><title>spike_core_benchmark_models_Benchmark&#45;&gt;spike_core_datafile_models_Datafile</title>
<path fill="none" stroke="black" stroke-dasharray="1,5" d="M523.26,-268.54C530.99,-260.65 538.99,-252.98 547,-246 563.07,-232 581.41,-218.37 599.27,-206.13"/>
<polygon fill="black" stroke="black" points="520.652,-266.202 516.23,-275.83 525.691,-271.061 520.652,-266.202"/>
<polygon fill="black" stroke="black" points="601.657,-208.741 607.98,-200.24 597.736,-202.942 601.657,-208.741"/>
<text text-anchor="middle" x="591.5" y="-250.8" font-family="Helvetica,sans-Serif" font-size="8.00">datafile_set (benchmark)</text>
</g>
<!-- spike_core_benchmark_models_Trial -->
<g id="node17" class="node"><title>spike_core_benchmark_models_Trial</title>
<polygon fill="palegoldenrod" stroke="palegoldenrod" points="612.5,-472 612.5,-608 749.5,-608 749.5,-472 612.5,-472"/>
<polygon fill="#698b22" stroke="#698b22" points="613,-580 613,-608 750,-608 750,-580 613,-580"/>
<text text-anchor="start" x="672.5" y="-597.633" font-family="Helvetica Bold" font-size="8.00" fill="white">Trial</text>
<text text-anchor="start" x="640" y="-588.033" font-family="Helvetica Bold" font-size="8.00" fill="white">&lt;</text>
<text text-anchor="start" x="645" y="-588.033" font-family="Helvetica Italic" font-size="8.00" fill="white">TimeStampedModel</text>
<text text-anchor="start" x="718" y="-588.033" font-family="Helvetica Bold" font-size="8.00" fill="white">&gt;</text>
<text text-anchor="start" x="615" y="-572.133" font-family="Helvetica Bold" font-size="8.00" fill="#7b7b7b">id</text>
<text text-anchor="start" x="669" y="-572.133" font-family="Helvetica Bold" font-size="8.00" fill="#7b7b7b">AutoField</text>
<text text-anchor="start" x="615" y="-560.133" font-family="Helvetica Italic" font-size="8.00">created</text>
<text text-anchor="start" x="669" y="-560.133" font-family="Helvetica Italic" font-size="8.00">AutoCreatedField</text>
<text text-anchor="start" x="615" y="-548.133" font-family="Helvetica Italic" font-size="8.00">modified</text>
<text text-anchor="start" x="669" y="-548.133" font-family="Helvetica Italic" font-size="8.00">AutoLastModifiedField</text>
<text text-anchor="start" x="615" y="-536.133" font-family="Helvetica Bold" font-size="8.00">name</text>
<text text-anchor="start" x="669" y="-536.133" font-family="Helvetica Bold" font-size="8.00">CharField</text>
<text text-anchor="start" x="615" y="-524.133" font-family="Helvetica Bold" font-size="8.00" fill="#7b7b7b">description</text>
<text text-anchor="start" x="669" y="-524.133" font-family="Helvetica Bold" font-size="8.00" fill="#7b7b7b">TextField</text>
<text text-anchor="start" x="615" y="-512.133" font-family="Helvetica Bold" font-size="8.00">parameter</text>
<text text-anchor="start" x="669" y="-512.133" font-family="Helvetica Bold" font-size="8.00">FloatField</text>
<text text-anchor="start" x="615" y="-500.133" font-family="Helvetica Bold" font-size="8.00" fill="#7b7b7b">valid_rd_log</text>
<text text-anchor="start" x="669" y="-500.133" font-family="Helvetica Bold" font-size="8.00" fill="#7b7b7b">TextField</text>
<text text-anchor="start" x="615" y="-488.133" font-family="Helvetica Bold" font-size="8.00" fill="#7b7b7b">valid_gt_log</text>
<text text-anchor="start" x="669" y="-488.133" font-family="Helvetica Bold" font-size="8.00" fill="#7b7b7b">TextField</text>
<text text-anchor="start" x="615" y="-476.133" font-family="Helvetica Bold" font-size="8.00">gt_type</text>
<text text-anchor="start" x="669" y="-476.133" font-family="Helvetica Bold" font-size="8.00">CharField</text>
</g>
<!-- spike_core_benchmark_models_Trial&#45;&gt;spike_core_datafile_models_Datafile -->
<g id="edge18" class="edge"><title>spike_core_benchmark_models_Trial&#45;&gt;spike_core_datafile_models_Datafile</title>
<path fill="none" stroke="black" stroke-dasharray="1,5" d="M681,-457.5C681,-392.77 681,-303.09 681,-238.39"/>
<polygon fill="black" stroke="black" points="677.5,-457.77 681,-467.77 684.5,-457.77 677.5,-457.77"/>
<polygon fill="black" stroke="black" points="684.5,-238.23 681,-228.23 677.5,-238.23 684.5,-238.23"/>
<text text-anchor="middle" x="712" y="-346.8" font-family="Helvetica,sans-Serif" font-size="8.00">datafile_set (trial)</text>
</g>
<!-- spike_core_benchmark_models_Trial&#45;&gt;spike_core_benchmark_models_Benchmark -->
<g id="edge20" class="edge"><title>spike_core_benchmark_models_Trial&#45;&gt;spike_core_benchmark_models_Benchmark</title>
<path fill="none" stroke="black" d="M604.83,-475C584.04,-457.26 561.41,-437.95 540.21,-419.86"/>
<text text-anchor="middle" x="605.5" y="-442.8" font-family="Helvetica,sans-Serif" font-size="8.00">benchmark (trial)</text>
</g>
<!-- spike_core_evaluation_models_Batch -->
<g id="node20" class="node"><title>spike_core_evaluation_models_Batch</title>
<polygon fill="palegoldenrod" stroke="palegoldenrod" points="379.5,-490 379.5,-590 532.5,-590 532.5,-490 379.5,-490"/>
<polygon fill="#698b22" stroke="#698b22" points="380,-562 380,-590 533,-590 533,-562 380,-562"/>
<text text-anchor="start" x="444.5" y="-579.633" font-family="Helvetica Bold" font-size="8.00" fill="white">Batch</text>
<text text-anchor="start" x="392" y="-570.033" font-family="Helvetica Bold" font-size="8.00" fill="white">&lt;</text>
<text text-anchor="start" x="397" y="-570.033" font-family="Helvetica Italic" font-size="8.00" fill="white">StatusModel,TimeStampedModel</text>
<text text-anchor="start" x="516" y="-570.033" font-family="Helvetica Bold" font-size="8.00" fill="white">&gt;</text>
<text text-anchor="start" x="382" y="-554.133" font-family="Helvetica Bold" font-size="8.00" fill="#7b7b7b">id</text>
<text text-anchor="start" x="452" y="-554.133" font-family="Helvetica Bold" font-size="8.00" fill="#7b7b7b">AutoField</text>
<text text-anchor="start" x="382" y="-542.133" font-family="Helvetica Italic" font-size="8.00">created</text>
<text text-anchor="start" x="452" y="-542.133" font-family="Helvetica Italic" font-size="8.00">AutoCreatedField</text>
<text text-anchor="start" x="382" y="-530.133" font-family="Helvetica Italic" font-size="8.00">modified</text>
<text text-anchor="start" x="452" y="-530.133" font-family="Helvetica Italic" font-size="8.00">AutoLastModifiedField</text>
<text text-anchor="start" x="382" y="-518.133" font-family="Helvetica Italic" font-size="8.00">status</text>
<text text-anchor="start" x="452" y="-518.133" font-family="Helvetica Italic" font-size="8.00">StatusField</text>
<text text-anchor="start" x="382" y="-506.133" font-family="Helvetica Italic" font-size="8.00">status_changed</text>
<text text-anchor="start" x="452" y="-506.133" font-family="Helvetica Italic" font-size="8.00">MonitorField</text>
<text text-anchor="start" x="382" y="-494.133" font-family="Helvetica Bold" font-size="8.00" fill="#7b7b7b">description</text>
<text text-anchor="start" x="452" y="-494.133" font-family="Helvetica Bold" font-size="8.00" fill="#7b7b7b">TextField</text>
</g>
<!-- spike_core_evaluation_models_Batch&#45;&gt;spike_core_algorithm_models_Algorithm -->
<g id="edge26" class="edge"><title>spike_core_evaluation_models_Batch&#45;&gt;spike_core_algorithm_models_Algorithm</title>
<path fill="none" stroke="black" d="M383.95,-485.75C349.19,-459.58 307.61,-428.27 272.87,-402.12"/>
<text text-anchor="middle" x="366.5" y="-442.8" font-family="Helvetica,sans-Serif" font-size="8.00">algorithm (batch)</text>
</g>
<!-- spike_core_evaluation_models_Batch&#45;&gt;django_contrib_auth_models_User -->
<g id="edge22" class="edge"><title>spike_core_evaluation_models_Batch&#45;&gt;django_contrib_auth_models_User</title>
<path fill="none" stroke="black" d="M371.83,-523.84C270.56,-502.78 108.79,-463.49 66,-420 -1.1033,-351.81 14.674,-221.85 23.284,-174.15"/>
<text text-anchor="middle" x="91.5" y="-346.8" font-family="Helvetica,sans-Serif" font-size="8.00">owner (batch)</text>
</g>
<!-- spike_core_evaluation_models_Batch&#45;&gt;spike_core_datafile_models_Datafile -->
<g id="edge24" class="edge"><title>spike_core_evaluation_models_Batch&#45;&gt;spike_core_datafile_models_Datafile</title>
<path fill="none" stroke="black" stroke-dasharray="1,5" d="M506.7,-477.69C513.94,-468.48 521.23,-459.04 528,-450 537.76,-436.97 541.2,-434.28 549,-420 582.15,-359.3 563.75,-329.16 608,-276 617.46,-264.63 626.39,-269.24 636,-258 641.47,-251.6 646.38,-244.44 650.76,-236.95"/>
<polygon fill="black" stroke="black" points="503.814,-475.697 500.35,-485.71 509.302,-480.043 503.814,-475.697"/>
<polygon fill="black" stroke="black" points="653.914,-238.478 655.67,-228.03 647.782,-235.103 653.914,-238.478"/>
<text text-anchor="middle" x="642.5" y="-346.8" font-family="Helvetica,sans-Serif" font-size="8.00">datafile_set (batch)</text>
</g>
<!-- spike_core_evaluation_models_Batch&#45;&gt;spike_core_benchmark_models_Benchmark -->
<g id="edge28" class="edge"><title>spike_core_evaluation_models_Batch&#45;&gt;spike_core_benchmark_models_Benchmark</title>
<path fill="none" stroke="black" d="M456,-485.75C456,-465.35 456,-441.82 456,-420.04"/>
<text text-anchor="middle" x="490" y="-442.8" font-family="Helvetica,sans-Serif" font-size="8.00">benchmark (batch)</text>
</g>
<!-- spike_core_evaluation_models_Evaluation -->
<g id="node25" class="node"><title>spike_core_evaluation_models_Evaluation</title>
<polygon fill="palegoldenrod" stroke="palegoldenrod" points="690,-664 690,-764 820,-764 820,-664 690,-664"/>
<polygon fill="#698b22" stroke="#698b22" points="690,-736 690,-764 820,-764 820,-736 690,-736"/>
<text text-anchor="start" x="733.5" y="-753.633" font-family="Helvetica Bold" font-size="8.00" fill="white">Evaluation</text>
<text text-anchor="start" x="713.5" y="-744.033" font-family="Helvetica Bold" font-size="8.00" fill="white">&lt;</text>
<text text-anchor="start" x="718.5" y="-744.033" font-family="Helvetica Italic" font-size="8.00" fill="white">TimeStampedModel</text>
<text text-anchor="start" x="791.5" y="-744.033" font-family="Helvetica Bold" font-size="8.00" fill="white">&gt;</text>
<text text-anchor="start" x="692" y="-728.133" font-family="Helvetica Bold" font-size="8.00" fill="#7b7b7b">id</text>
<text text-anchor="start" x="739" y="-728.133" font-family="Helvetica Bold" font-size="8.00" fill="#7b7b7b">AutoField</text>
<text text-anchor="start" x="692" y="-716.133" font-family="Helvetica Italic" font-size="8.00">created</text>
<text text-anchor="start" x="739" y="-716.133" font-family="Helvetica Italic" font-size="8.00">AutoCreatedField</text>
<text text-anchor="start" x="692" y="-704.133" font-family="Helvetica Italic" font-size="8.00">modified</text>
<text text-anchor="start" x="739" y="-704.133" font-family="Helvetica Italic" font-size="8.00">AutoLastModifiedField</text>
<text text-anchor="start" x="692" y="-692.133" font-family="Helvetica Bold" font-size="8.00">task_state</text>
<text text-anchor="start" x="739" y="-692.133" font-family="Helvetica Bold" font-size="8.00">CharField</text>
<text text-anchor="start" x="692" y="-680.133" font-family="Helvetica Bold" font-size="8.00" fill="#7b7b7b">task_id</text>
<text text-anchor="start" x="739" y="-680.133" font-family="Helvetica Bold" font-size="8.00" fill="#7b7b7b">CharField</text>
<text text-anchor="start" x="692" y="-668.133" font-family="Helvetica Bold" font-size="8.00" fill="#7b7b7b">task_log</text>
<text text-anchor="start" x="739" y="-668.133" font-family="Helvetica Bold" font-size="8.00" fill="#7b7b7b">TextField</text>
</g>
<!-- spike_core_evaluation_models_Evaluation&#45;&gt;spike_core_datafile_models_Datafile -->
<g id="edge30" class="edge"><title>spike_core_evaluation_models_Evaluation&#45;&gt;spike_core_datafile_models_Datafile</title>
<path fill="none" stroke="black" stroke-dasharray="1,5" d="M782.2,-649.97C782.88,-647.3 783.49,-644.64 784,-642 785.01,-636.76 784.07,-635.33 784,-630 781.94,-471.82 801.08,-424.66 747,-276 742.32,-263.14 736.41,-250.01 730.06,-237.36"/>
<polygon fill="black" stroke="black" points="778.822,-649.051 779.4,-659.63 785.546,-651 778.822,-649.051"/>
<polygon fill="black" stroke="black" points="733.059,-235.539 725.37,-228.25 726.835,-238.743 733.059,-235.539"/>
<text text-anchor="middle" x="827.5" y="-442.8" font-family="Helvetica,sans-Serif" font-size="8.00">datafile_set (evaluation)</text>
</g>
<!-- spike_core_evaluation_models_Evaluation&#45;&gt;spike_core_benchmark_models_Trial -->
<g id="edge34" class="edge"><title>spike_core_evaluation_models_Evaluation&#45;&gt;spike_core_benchmark_models_Trial</title>
<path fill="none" stroke="black" d="M731.99,-659.9C725.59,-644.84 718.52,-628.23 711.75,-612.3"/>
<text text-anchor="middle" x="751" y="-634.8" font-family="Helvetica,sans-Serif" font-size="8.00">trial (evaluation)</text>
</g>
<!-- spike_core_evaluation_models_Evaluation&#45;&gt;spike_core_evaluation_models_Batch -->
<g id="edge32" class="edge"><title>spike_core_evaluation_models_Evaluation&#45;&gt;spike_core_evaluation_models_Batch</title>
<path fill="none" stroke="black" d="M681.86,-671.43C638.98,-646.48 584.65,-614.87 540.02,-588.9"/>
<text text-anchor="middle" x="655" y="-634.8" font-family="Helvetica,sans-Serif" font-size="8.00">batch (evaluation)</text>
</g>
<!-- spike_metric_models_core_Metric -->
<g id="node29" class="node"><title>spike_metric_models_core_Metric</title>
<polygon fill="palegoldenrod" stroke="palegoldenrod" points="844,-472 844,-608 978,-608 978,-472 844,-472"/>
<polygon fill="#698b22" stroke="#698b22" points="844,-580 844,-608 978,-608 978,-580 844,-580"/>
<text text-anchor="start" x="898.5" y="-597.633" font-family="Helvetica Bold" font-size="8.00" fill="white">Metric</text>
<text text-anchor="start" x="869.5" y="-588.033" font-family="Helvetica Bold" font-size="8.00" fill="white">&lt;</text>
<text text-anchor="start" x="874.5" y="-588.033" font-family="Helvetica Italic" font-size="8.00" fill="white">TimeStampedModel</text>
<text text-anchor="start" x="947.5" y="-588.033" font-family="Helvetica Bold" font-size="8.00" fill="white">&gt;</text>
<text text-anchor="start" x="846" y="-572.133" font-family="Helvetica Bold" font-size="8.00" fill="#7b7b7b">id</text>
<text text-anchor="start" x="897" y="-572.133" font-family="Helvetica Bold" font-size="8.00" fill="#7b7b7b">AutoField</text>
<text text-anchor="start" x="846" y="-560.133" font-family="Helvetica Italic" font-size="8.00">created</text>
<text text-anchor="start" x="897" y="-560.133" font-family="Helvetica Italic" font-size="8.00">AutoCreatedField</text>
<text text-anchor="start" x="846" y="-548.133" font-family="Helvetica Italic" font-size="8.00">modified</text>
<text text-anchor="start" x="897" y="-548.133" font-family="Helvetica Italic" font-size="8.00">AutoLastModifiedField</text>
<text text-anchor="start" x="846" y="-536.133" font-family="Helvetica Bold" font-size="8.00">name</text>
<text text-anchor="start" x="897" y="-536.133" font-family="Helvetica Bold" font-size="8.00">CharField</text>
<text text-anchor="start" x="846" y="-524.133" font-family="Helvetica Bold" font-size="8.00" fill="#7b7b7b">version</text>
<text text-anchor="start" x="897" y="-524.133" font-family="Helvetica Bold" font-size="8.00" fill="#7b7b7b">CharField</text>
<text text-anchor="start" x="846" y="-512.133" font-family="Helvetica Bold" font-size="8.00" fill="#7b7b7b">description</text>
<text text-anchor="start" x="897" y="-512.133" font-family="Helvetica Bold" font-size="8.00" fill="#7b7b7b">TextField</text>
<text text-anchor="start" x="846" y="-500.133" font-family="Helvetica Bold" font-size="8.00">exec_name</text>
<text text-anchor="start" x="897" y="-500.133" font-family="Helvetica Bold" font-size="8.00">TextField</text>
<text text-anchor="start" x="846" y="-488.133" font-family="Helvetica Bold" font-size="8.00" fill="#7b7b7b">temp_name</text>
<text text-anchor="start" x="897" y="-488.133" font-family="Helvetica Bold" font-size="8.00" fill="#7b7b7b">TextField</text>
<text text-anchor="start" x="846" y="-476.133" font-family="Helvetica Bold" font-size="8.00" fill="#7b7b7b">rest_name</text>
<text text-anchor="start" x="897" y="-476.133" font-family="Helvetica Bold" font-size="8.00" fill="#7b7b7b">TextField</text>
</g>
<!-- spike_metric_models_core_Metric&#45;&gt;spike_core_datafile_models_Datafile -->
<g id="edge36" class="edge"><title>spike_metric_models_core_Metric&#45;&gt;spike_core_datafile_models_Datafile</title>
<path fill="none" stroke="black" stroke-dasharray="1,5" d="M904.36,-457.95C895.4,-394.06 874.37,-306.37 825,-246 808.28,-225.55 785.62,-208.39 763.23,-194.72"/>
<polygon fill="black" stroke="black" points="900.907,-458.536 905.69,-467.99 907.846,-457.617 900.907,-458.536"/>
<polygon fill="black" stroke="black" points="764.729,-191.54 754.34,-189.46 761.164,-197.564 764.729,-191.54"/>
<text text-anchor="middle" x="932.5" y="-346.8" font-family="Helvetica,sans-Serif" font-size="8.00">datafile_set (metric)</text>
</g>
<!-- spike_metric_models_core_Metric&#45;&gt;spike_core_benchmark_models_Benchmark -->
<g id="edge38" class="edge"><title>spike_metric_models_core_Metric&#45;&gt;spike_core_benchmark_models_Benchmark</title>
<path fill="none" stroke="black" d="M828.37,-494.94C808.33,-485.15 786.71,-475.5 766,-468 711.87,-448.41 696.18,-450.56 640,-438 601.89,-429.48 589.66,-435.92 554,-420 551.83,-419.03 549.66,-418.01 547.5,-416.94"/>
<ellipse fill="black" stroke="black" cx="832.084" cy="-496.777" rx="4.00002" ry="4.00002"/>
<ellipse fill="black" stroke="black" cx="543.728" cy="-414.977" rx="4.00002" ry="4.00002"/>
<text text-anchor="middle" x="738" y="-442.8" font-family="Helvetica,sans-Serif" font-size="8.00">benchmarks (metric)</text>
</g>
<!-- spike_metric_models_core_Result -->
<g id="node32" class="node"><title>spike_metric_models_core_Result</title>
<polygon fill="palegoldenrod" stroke="palegoldenrod" points="846,-881 846,-945 976,-945 976,-881 846,-881"/>
<polygon fill="#698b22" stroke="#698b22" points="846,-917 846,-945 976,-945 976,-917 846,-917"/>
<text text-anchor="start" x="898" y="-934.633" font-family="Helvetica Bold" font-size="8.00" fill="white">Result</text>
<text text-anchor="start" x="869.5" y="-925.033" font-family="Helvetica Bold" font-size="8.00" fill="white">&lt;</text>
<text text-anchor="start" x="874.5" y="-925.033" font-family="Helvetica Italic" font-size="8.00" fill="white">TimeStampedModel</text>
<text text-anchor="start" x="947.5" y="-925.033" font-family="Helvetica Bold" font-size="8.00" fill="white">&gt;</text>
<text text-anchor="start" x="848" y="-909.133" font-family="Helvetica Bold" font-size="8.00" fill="#7b7b7b">id</text>
<text text-anchor="start" x="895" y="-909.133" font-family="Helvetica Bold" font-size="8.00" fill="#7b7b7b">AutoField</text>
<text text-anchor="start" x="848" y="-897.133" font-family="Helvetica Italic" font-size="8.00">created</text>
<text text-anchor="start" x="895" y="-897.133" font-family="Helvetica Italic" font-size="8.00">AutoCreatedField</text>
<text text-anchor="start" x="848" y="-885.133" font-family="Helvetica Italic" font-size="8.00">modified</text>
<text text-anchor="start" x="895" y="-885.133" font-family="Helvetica Italic" font-size="8.00">AutoLastModifiedField</text>
</g>
<!-- spike_metric_models_core_Result&#45;&gt;spike_core_datafile_models_Datafile -->
<g id="edge42" class="edge"><title>spike_metric_models_core_Result&#45;&gt;spike_core_datafile_models_Datafile</title>
<path fill="none" stroke="black" stroke-dasharray="1,5" d="M952.73,-868.95C984.21,-830.98 1022,-773.09 1022,-714 1022,-714 1022,-714 1022,-348 1022,-229.98 864.98,-183.72 764.04,-166.18"/>
<polygon fill="black" stroke="black" points="949.921,-866.851 946.12,-876.74 955.259,-871.38 949.921,-866.851"/>
<polygon fill="black" stroke="black" points="764.591,-162.724 754.15,-164.52 763.433,-169.627 764.591,-162.724"/>
<text text-anchor="middle" x="1056.5" y="-538.8" font-family="Helvetica,sans-Serif" font-size="8.00">datafile_set (result)</text>
</g>
<!-- spike_metric_models_core_Result&#45;&gt;spike_core_evaluation_models_Evaluation -->
<g id="edge44" class="edge"><title>spike_metric_models_core_Result&#45;&gt;spike_core_evaluation_models_Evaluation</title>
<path fill="none" stroke="black" d="M882.75,-876.96C858.96,-846.61 824.56,-802.73 797.45,-768.15"/>
<text text-anchor="middle" x="851" y="-790.8" font-family="Helvetica,sans-Serif" font-size="8.00">evaluation (result)</text>
</g>
<!-- spike_metric_models_core_Result&#45;&gt;spike_metric_models_core_Metric -->
<g id="edge40" class="edge"><title>spike_metric_models_core_Result&#45;&gt;spike_metric_models_core_Metric</title>
<path fill="none" stroke="black" d="M911,-876.9C911,-815.92 911,-691.44 911,-612.06"/>
<text text-anchor="middle" x="936" y="-712.8" font-family="Helvetica,sans-Serif" font-size="8.00">metric (result)</text>
</g>
<!-- spike_metric_models_old_EvaluationResult -->
<g id="node36" class="node"><title>spike_metric_models_old_EvaluationResult</title>
<polygon fill="palegoldenrod" stroke="palegoldenrod" points="1010,-820.5 1010,-1005.5 1112,-1005.5 1112,-820.5 1010,-820.5"/>
<polygon fill="#698b22" stroke="#698b22" points="1010,-988 1010,-1005 1112,-1005 1112,-988 1010,-988"/>
<text text-anchor="start" x="1027" y="-994.633" font-family="Helvetica Bold" font-size="8.00" fill="white">EvaluationResult</text>
<text text-anchor="start" x="1012" y="-980.133" font-family="Helvetica Bold" font-size="8.00">gt_unit</text>
<text text-anchor="start" x="1062" y="-980.133" font-family="Helvetica Bold" font-size="8.00">CharField</text>
<text text-anchor="start" x="1012" y="-968.133" font-family="Helvetica Bold" font-size="8.00">found_unit</text>
<text text-anchor="start" x="1062" y="-968.133" font-family="Helvetica Bold" font-size="8.00">CharField</text>
<text text-anchor="start" x="1012" y="-956.133" font-family="Helvetica Bold" font-size="8.00">KS</text>
<text text-anchor="start" x="1062" y="-956.133" font-family="Helvetica Bold" font-size="8.00">IntegerField</text>
<text text-anchor="start" x="1012" y="-944.133" font-family="Helvetica Bold" font-size="8.00">KSO</text>
<text text-anchor="start" x="1062" y="-944.133" font-family="Helvetica Bold" font-size="8.00">IntegerField</text>
<text text-anchor="start" x="1012" y="-932.133" font-family="Helvetica Bold" font-size="8.00">FS</text>
<text text-anchor="start" x="1062" y="-932.133" font-family="Helvetica Bold" font-size="8.00">IntegerField</text>
<text text-anchor="start" x="1012" y="-920.133" font-family="Helvetica Bold" font-size="8.00">TP</text>
<text text-anchor="start" x="1062" y="-920.133" font-family="Helvetica Bold" font-size="8.00">IntegerField</text>
<text text-anchor="start" x="1012" y="-908.133" font-family="Helvetica Bold" font-size="8.00">TPO</text>
<text text-anchor="start" x="1062" y="-908.133" font-family="Helvetica Bold" font-size="8.00">IntegerField</text>
<text text-anchor="start" x="1012" y="-896.133" font-family="Helvetica Bold" font-size="8.00">FPA</text>
<text text-anchor="start" x="1062" y="-896.133" font-family="Helvetica Bold" font-size="8.00">IntegerField</text>
<text text-anchor="start" x="1012" y="-884.133" font-family="Helvetica Bold" font-size="8.00">FPAE</text>
<text text-anchor="start" x="1062" y="-884.133" font-family="Helvetica Bold" font-size="8.00">IntegerField</text>
<text text-anchor="start" x="1012" y="-872.133" font-family="Helvetica Bold" font-size="8.00">FPAO</text>
<text text-anchor="start" x="1062" y="-872.133" font-family="Helvetica Bold" font-size="8.00">IntegerField</text>
<text text-anchor="start" x="1012" y="-860.133" font-family="Helvetica Bold" font-size="8.00">FPAOE</text>
<text text-anchor="start" x="1062" y="-860.133" font-family="Helvetica Bold" font-size="8.00">IntegerField</text>
<text text-anchor="start" x="1012" y="-848.133" font-family="Helvetica Bold" font-size="8.00">FN</text>
<text text-anchor="start" x="1062" y="-848.133" font-family="Helvetica Bold" font-size="8.00">IntegerField</text>
<text text-anchor="start" x="1012" y="-836.133" font-family="Helvetica Bold" font-size="8.00">FNO</text>
<text text-anchor="start" x="1062" y="-836.133" font-family="Helvetica Bold" font-size="8.00">IntegerField</text>
<text text-anchor="start" x="1012" y="-824.133" font-family="Helvetica Bold" font-size="8.00">FP</text>
<text text-anchor="start" x="1062" y="-824.133" font-family="Helvetica Bold" font-size="8.00">IntegerField</text>
</g>
<!-- spike_metric_models_old_EvaluationResultImg -->
<g id="node37" class="node"><title>spike_metric_models_old_EvaluationResultImg</title>
<polygon fill="palegoldenrod" stroke="palegoldenrod" points="1145.5,-892.5 1145.5,-933.5 1238.5,-933.5 1238.5,-892.5 1145.5,-892.5"/>
<polygon fill="#698b22" stroke="#698b22" points="1146,-916 1146,-933 1239,-933 1239,-916 1146,-916"/>
<text text-anchor="start" x="1151.5" y="-922.633" font-family="Helvetica Bold" font-size="8.00" fill="white">EvaluationResultImg</text>
<text text-anchor="start" x="1148" y="-908.133" font-family="Helvetica Bold" font-size="8.00">file</text>
<text text-anchor="start" x="1194" y="-908.133" font-family="Helvetica Bold" font-size="8.00">ImageField</text>
<text text-anchor="start" x="1148" y="-896.133" font-family="Helvetica Bold" font-size="8.00">file_type</text>
<text text-anchor="start" x="1194" y="-896.133" font-family="Helvetica Bold" font-size="8.00">CharField</text>
</g>
</g>
</svg>
