<?xml version="1.0" encoding="UTF-8" standalone="no"?>
<!DOCTYPE svg PUBLIC "-//W3C//DTD SVG 1.1//EN"
 "http://www.w3.org/Graphics/SVG/1.1/DTD/svg11.dtd">
<!-- Generated by graphviz version 2.26.3 (20100126.1600)
 -->
<!-- Title: name Pages: 1 -->
<svg width="1069pt" height="920pt"
 viewBox="0.00 0.00 1069.00 920.00" xmlns="http://www.w3.org/2000/svg" xmlns:xlink="http://www.w3.org/1999/xlink">
<g id="graph1" class="graph" transform="scale(1 1) rotate(0) translate(4 916)">
<title>name</title>
<polygon fill="white" stroke="white" points="-4,5 -4,-916 1066,-916 1066,5 -4,5"/>
<!-- model_utils_models_TimeStampedModel -->
<g id="node1" class="node"><title>model_utils_models_TimeStampedModel</title>
<polygon fill="palegoldenrod" stroke="palegoldenrod" points="390.5,-855.5 390.5,-896.5 529.5,-896.5 529.5,-855.5 390.5,-855.5"/>
<polygon fill="#698b22" stroke="#698b22" points="391,-879 391,-896 530,-896 530,-879 391,-879"/>
<text text-anchor="start" x="421.5" y="-885.633" font-family="Helvetica Bold" font-size="8.00" fill="white">TimeStampedModel</text>
<text text-anchor="start" x="393" y="-871.133" font-family="Helvetica Bold" font-size="8.00">created</text>
<text text-anchor="start" x="437" y="-871.133" font-family="Helvetica Bold" font-size="8.00">AutoCreatedField</text>
<text text-anchor="start" x="393" y="-859.133" font-family="Helvetica Bold" font-size="8.00">modified</text>
<text text-anchor="start" x="437" y="-859.133" font-family="Helvetica Bold" font-size="8.00">AutoLastModifiedField</text>
</g>
<!-- model_utils_models_StatusModel -->
<g id="node2" class="node"><title>model_utils_models_StatusModel</title>
<polygon fill="palegoldenrod" stroke="palegoldenrod" points="563,-855.5 563,-896.5 687,-896.5 687,-855.5 563,-855.5"/>
<polygon fill="#698b22" stroke="#698b22" points="563,-879 563,-896 687,-896 687,-879 563,-879"/>
<text text-anchor="start" x="600" y="-885.633" font-family="Helvetica Bold" font-size="8.00" fill="white">StatusModel</text>
<text text-anchor="start" x="565" y="-871.133" font-family="Helvetica Bold" font-size="8.00">status</text>
<text text-anchor="start" x="634" y="-871.133" font-family="Helvetica Bold" font-size="8.00">StatusField</text>
<text text-anchor="start" x="565" y="-859.133" font-family="Helvetica Bold" font-size="8.00">status_changed</text>
<text text-anchor="start" x="634" y="-859.133" font-family="Helvetica Bold" font-size="8.00">MonitorField</text>
</g>
<!-- spike_core_algorithm_models_Algorithm -->
<g id="node3" class="node"><title>spike_core_algorithm_models_Algorithm</title>
<polygon fill="palegoldenrod" stroke="palegoldenrod" points="129,-298 129,-398 263,-398 263,-298 129,-298"/>
<polygon fill="#698b22" stroke="#698b22" points="129,-370 129,-398 263,-398 263,-370 129,-370"/>
<text text-anchor="start" x="176" y="-387.633" font-family="Helvetica Bold" font-size="8.00" fill="white">Algorithm</text>
<text text-anchor="start" x="154.5" y="-378.033" font-family="Helvetica Bold" font-size="8.00" fill="white">&lt;</text>
<text text-anchor="start" x="159.5" y="-378.033" font-family="Helvetica Italic" font-size="8.00" fill="white">TimeStampedModel</text>
<text text-anchor="start" x="232.5" y="-378.033" font-family="Helvetica Bold" font-size="8.00" fill="white">&gt;</text>
<text text-anchor="start" x="131" y="-362.133" font-family="Helvetica Bold" font-size="8.00" fill="#7b7b7b">id</text>
<text text-anchor="start" x="182" y="-362.133" font-family="Helvetica Bold" font-size="8.00" fill="#7b7b7b">AutoField</text>
<text text-anchor="start" x="131" y="-350.133" font-family="Helvetica Italic" font-size="8.00">created</text>
<text text-anchor="start" x="182" y="-350.133" font-family="Helvetica Italic" font-size="8.00">AutoCreatedField</text>
<text text-anchor="start" x="131" y="-338.133" font-family="Helvetica Italic" font-size="8.00">modified</text>
<text text-anchor="start" x="182" y="-338.133" font-family="Helvetica Italic" font-size="8.00">AutoLastModifiedField</text>
<text text-anchor="start" x="131" y="-326.133" font-family="Helvetica Bold" font-size="8.00">name</text>
<text text-anchor="start" x="182" y="-326.133" font-family="Helvetica Bold" font-size="8.00">CharField</text>
<text text-anchor="start" x="131" y="-314.133" font-family="Helvetica Bold" font-size="8.00">version</text>
<text text-anchor="start" x="182" y="-314.133" font-family="Helvetica Bold" font-size="8.00">CharField</text>
<text text-anchor="start" x="131" y="-302.133" font-family="Helvetica Bold" font-size="8.00" fill="#7b7b7b">description</text>
<text text-anchor="start" x="182" y="-302.133" font-family="Helvetica Bold" font-size="8.00" fill="#7b7b7b">TextField</text>
</g>
<!-- spike_core_algorithm_models_Algorithm&#45;&gt;spike_core_algorithm_models_Algorithm -->
<g id="edge2" class="edge"><title>spike_core_algorithm_models_Algorithm&#45;&gt;spike_core_algorithm_models_Algorithm</title>
<path fill="none" stroke="black" d="M271.17,-364.15C281.84,-361.54 289,-356.16 289,-348 289,-339.84 281.84,-334.46 271.17,-331.85"/>
<text text-anchor="middle" x="319" y="-346.8" font-family="Helvetica,sans-Serif" font-size="8.00">parent (children)</text>
</g>
<!-- taggit_models_TaggedItem -->
<g id="node5" class="node"><title>taggit_models_TaggedItem</title>
<polygon fill="palegoldenrod" stroke="palegoldenrod" points="235.5,-147.5 235.5,-164.5 292.5,-164.5 292.5,-147.5 235.5,-147.5"/>
<polygon fill="#698b22" stroke="#698b22" points="236,-147 236,-164 293,-164 293,-147 236,-147"/>
<text text-anchor="start" x="241" y="-153.633" font-family="Helvetica Bold" font-size="8.00" fill="white">TaggedItem</text>
</g>
<!-- spike_core_algorithm_models_Algorithm&#45;&gt;taggit_models_TaggedItem -->
<g id="edge4" class="edge"><title>spike_core_algorithm_models_Algorithm&#45;&gt;taggit_models_TaggedItem</title>
<path fill="none" stroke="black" stroke-dasharray="1,5" d="M200.01,-283.72C201.96,-270.99 204.82,-257.9 209,-246 217.06,-223.05 231.56,-199.68 243.66,-182.51"/>
<polygon fill="black" stroke="black" points="196.517,-283.428 198.63,-293.81 203.453,-284.377 196.517,-283.428"/>
<polygon fill="black" stroke="black" points="246.694,-184.287 249.71,-174.13 241.019,-180.189 246.694,-184.287"/>
<text text-anchor="middle" x="254" y="-250.8" font-family="Helvetica,sans-Serif" font-size="8.00">tagged_items (algorithm)</text>
</g>
<!-- django_contrib_auth_models_User -->
<g id="node7" class="node"><title>django_contrib_auth_models_User</title>
<polygon fill="palegoldenrod" stroke="palegoldenrod" points="12.5,-147.5 12.5,-164.5 41.5,-164.5 41.5,-147.5 12.5,-147.5"/>
<polygon fill="#698b22" stroke="#698b22" points="13,-147 13,-164 42,-164 42,-147 13,-147"/>
<text text-anchor="start" x="18" y="-153.633" font-family="Helvetica Bold" font-size="8.00" fill="white">User</text>
</g>
<!-- spike_core_algorithm_models_Algorithm&#45;&gt;django_contrib_auth_models_User -->
<g id="edge6" class="edge"><title>spike_core_algorithm_models_Algorithm&#45;&gt;django_contrib_auth_models_User</title>
<path fill="none" stroke="black" d="M120.87,-312.15C78.821,-291.34 33.698,-267.41 28,-258 12.408,-232.25 17.083,-195.72 21.984,-174.08"/>
<text text-anchor="middle" x="60" y="-250.8" font-family="Helvetica,sans-Serif" font-size="8.00">owner (algorithm)</text>
</g>
<!-- spike_data_models_Data -->
<g id="node9" class="node"><title>spike_data_models_Data</title>
<polygon fill="palegoldenrod" stroke="palegoldenrod" points="593,-88 593,-224 723,-224 723,-88 593,-88"/>
<polygon fill="#698b22" stroke="#698b22" points="593,-196 593,-224 723,-224 723,-196 593,-196"/>
<text text-anchor="start" x="648.5" y="-213.633" font-family="Helvetica Bold" font-size="8.00" fill="white">Data</text>
<text text-anchor="start" x="616.5" y="-204.033" font-family="Helvetica Bold" font-size="8.00" fill="white">&lt;</text>
<text text-anchor="start" x="621.5" y="-204.033" font-family="Helvetica Italic" font-size="8.00" fill="white">TimeStampedModel</text>
<text text-anchor="start" x="694.5" y="-204.033" font-family="Helvetica Bold" font-size="8.00" fill="white">&gt;</text>
<text text-anchor="start" x="595" y="-188.133" font-family="Helvetica Bold" font-size="8.00" fill="#7b7b7b">id</text>
<text text-anchor="start" x="642" y="-188.133" font-family="Helvetica Bold" font-size="8.00" fill="#7b7b7b">AutoField</text>
<text text-anchor="start" x="595" y="-176.133" font-family="Helvetica Italic" font-size="8.00">created</text>
<text text-anchor="start" x="642" y="-176.133" font-family="Helvetica Italic" font-size="8.00">AutoCreatedField</text>
<text text-anchor="start" x="595" y="-164.133" font-family="Helvetica Italic" font-size="8.00">modified</text>
<text text-anchor="start" x="642" y="-164.133" font-family="Helvetica Italic" font-size="8.00">AutoLastModifiedField</text>
<text text-anchor="start" x="595" y="-152.133" font-family="Helvetica Bold" font-size="8.00">name</text>
<text text-anchor="start" x="642" y="-152.133" font-family="Helvetica Bold" font-size="8.00">CharField</text>
<text text-anchor="start" x="595" y="-140.133" font-family="Helvetica Bold" font-size="8.00" fill="#7b7b7b">ext</text>
<text text-anchor="start" x="642" y="-140.133" font-family="Helvetica Bold" font-size="8.00" fill="#7b7b7b">CharField</text>
<text text-anchor="start" x="595" y="-128.133" font-family="Helvetica Bold" font-size="8.00" fill="#7b7b7b">sha1</text>
<text text-anchor="start" x="642" y="-128.133" font-family="Helvetica Bold" font-size="8.00" fill="#7b7b7b">CharField</text>
<text text-anchor="start" x="595" y="-116.133" font-family="Helvetica Bold" font-size="8.00">file</text>
<text text-anchor="start" x="642" y="-116.133" font-family="Helvetica Bold" font-size="8.00">FileField</text>
<text text-anchor="start" x="595" y="-104.133" font-family="Helvetica Bold" font-size="8.00" fill="#7b7b7b">kind</text>
<text text-anchor="start" x="642" y="-104.133" font-family="Helvetica Bold" font-size="8.00" fill="#7b7b7b">TextField</text>
<text text-anchor="start" x="595" y="-92.1333" font-family="Helvetica Bold" font-size="8.00">object_id</text>
<text text-anchor="start" x="642" y="-92.1333" font-family="Helvetica Bold" font-size="8.00">PositiveIntegerField</text>
</g>
<!-- spike_core_algorithm_models_Algorithm&#45;&gt;spike_data_models_Data -->
<g id="edge8" class="edge"><title>spike_core_algorithm_models_Algorithm&#45;&gt;spike_data_models_Data</title>
<path fill="none" stroke="black" stroke-dasharray="1,5" d="M280.7,-307.84C305.36,-296.84 332.52,-285.38 358,-276 384.53,-266.24 392.4,-267.56 419,-258 434.77,-252.33 512.78,-218.86 575.45,-191.79"/>
<polygon fill="black" stroke="black" points="279.066,-304.737 271.38,-312.03 281.936,-311.122 279.066,-304.737"/>
<polygon fill="black" stroke="black" points="577.183,-194.854 584.97,-187.67 574.402,-188.43 577.183,-194.854"/>
<text text-anchor="middle" x="485" y="-250.8" font-family="Helvetica,sans-Serif" font-size="8.00">datafile_set (algorithm)</text>
</g>
<!-- django_contrib_contenttypes_models_ContentType -->
<g id="node11" class="node"><title>django_contrib_contenttypes_models_ContentType</title>
<polygon fill="palegoldenrod" stroke="palegoldenrod" points="727.5,-9.5 727.5,-26.5 788.5,-26.5 788.5,-9.5 727.5,-9.5"/>
<polygon fill="#698b22" stroke="#698b22" points="728,-9 728,-26 789,-26 789,-9 728,-9"/>
<text text-anchor="start" x="732.5" y="-15.6333" font-family="Helvetica Bold" font-size="8.00" fill="white">ContentType</text>
</g>
<!-- spike_data_models_Data&#45;&gt;django_contrib_contenttypes_models_ContentType -->
<g id="edge10" class="edge"><title>spike_data_models_Data&#45;&gt;django_contrib_contenttypes_models_ContentType</title>
<path fill="none" stroke="black" d="M681.78,-83.914C687.11,-73.242 693.48,-62.868 701,-54 706.83,-47.126 714.31,-41.13 721.92,-36.106"/>
<text text-anchor="middle" x="736" y="-58.8" font-family="Helvetica,sans-Serif" font-size="8.00">content_type (data)</text>
</g>
<!-- spike_core_benchmark_models_Benchmark -->
<g id="node13" class="node"><title>spike_core_benchmark_models_Benchmark</title>
<polygon fill="palegoldenrod" stroke="palegoldenrod" points="374.5,-280 374.5,-416 527.5,-416 527.5,-280 374.5,-280"/>
<polygon fill="#698b22" stroke="#698b22" points="375,-388 375,-416 528,-416 528,-388 375,-388"/>
<text text-anchor="start" x="429" y="-405.633" font-family="Helvetica Bold" font-size="8.00" fill="white">Benchmark</text>
<text text-anchor="start" x="387" y="-396.033" font-family="Helvetica Bold" font-size="8.00" fill="white">&lt;</text>
<text text-anchor="start" x="392" y="-396.033" font-family="Helvetica Italic" font-size="8.00" fill="white">StatusModel,TimeStampedModel</text>
<text text-anchor="start" x="511" y="-396.033" font-family="Helvetica Bold" font-size="8.00" fill="white">&gt;</text>
<text text-anchor="start" x="377" y="-380.133" font-family="Helvetica Bold" font-size="8.00" fill="#7b7b7b">id</text>
<text text-anchor="start" x="447" y="-380.133" font-family="Helvetica Bold" font-size="8.00" fill="#7b7b7b">AutoField</text>
<text text-anchor="start" x="377" y="-368.133" font-family="Helvetica Italic" font-size="8.00">created</text>
<text text-anchor="start" x="447" y="-368.133" font-family="Helvetica Italic" font-size="8.00">AutoCreatedField</text>
<text text-anchor="start" x="377" y="-356.133" font-family="Helvetica Italic" font-size="8.00">modified</text>
<text text-anchor="start" x="447" y="-356.133" font-family="Helvetica Italic" font-size="8.00">AutoLastModifiedField</text>
<text text-anchor="start" x="377" y="-344.133" font-family="Helvetica Italic" font-size="8.00">status</text>
<text text-anchor="start" x="447" y="-344.133" font-family="Helvetica Italic" font-size="8.00">StatusField</text>
<text text-anchor="start" x="377" y="-332.133" font-family="Helvetica Italic" font-size="8.00">status_changed</text>
<text text-anchor="start" x="447" y="-332.133" font-family="Helvetica Italic" font-size="8.00">MonitorField</text>
<text text-anchor="start" x="377" y="-320.133" font-family="Helvetica Bold" font-size="8.00">name</text>
<text text-anchor="start" x="447" y="-320.133" font-family="Helvetica Bold" font-size="8.00">CharField</text>
<text text-anchor="start" x="377" y="-308.133" font-family="Helvetica Bold" font-size="8.00" fill="#7b7b7b">description</text>
<text text-anchor="start" x="447" y="-308.133" font-family="Helvetica Bold" font-size="8.00" fill="#7b7b7b">TextField</text>
<text text-anchor="start" x="377" y="-296.133" font-family="Helvetica Bold" font-size="8.00">parameter</text>
<text text-anchor="start" x="447" y="-296.133" font-family="Helvetica Bold" font-size="8.00">CharField</text>
<text text-anchor="start" x="377" y="-284.133" font-family="Helvetica Bold" font-size="8.00">gt_access</text>
<text text-anchor="start" x="447" y="-284.133" font-family="Helvetica Bold" font-size="8.00">CharField</text>
</g>
<!-- spike_core_benchmark_models_Benchmark&#45;&gt;taggit_models_TaggedItem -->
<g id="edge12" class="edge"><title>spike_core_benchmark_models_Benchmark&#45;&gt;taggit_models_TaggedItem</title>
<path fill="none" stroke="black" stroke-dasharray="1,5" d="M358.28,-276.17C358.18,-276.12 358.09,-276.06 358,-276 342.86,-266.48 334.98,-270.31 322,-258 299.98,-237.12 283.95,-206.01 274.39,-183.64"/>
<polygon fill="black" stroke="black" points="356.567,-279.231 366.86,-281.74 360.378,-273.359 356.567,-279.231"/>
<polygon fill="black" stroke="black" points="277.61,-182.267 270.58,-174.34 271.132,-184.92 277.61,-182.267"/>
<text text-anchor="middle" x="370.5" y="-250.8" font-family="Helvetica,sans-Serif" font-size="8.00">tagged_items (benchmark)</text>
</g>
<!-- spike_core_benchmark_models_Benchmark&#45;&gt;django_contrib_auth_models_User -->
<g id="edge14" class="edge"><title>spike_core_benchmark_models_Benchmark&#45;&gt;django_contrib_auth_models_User</title>
<path fill="none" stroke="black" d="M366.8,-279.78C363.89,-278.41 360.95,-277.14 358,-276 263.19,-239.36 222.41,-300.34 130,-258 89.733,-239.55 56.149,-198.26 39.092,-174.25"/>
<text text-anchor="middle" x="165.5" y="-250.8" font-family="Helvetica,sans-Serif" font-size="8.00">owner (benchmark)</text>
</g>
<!-- spike_core_benchmark_models_Benchmark&#45;&gt;spike_data_models_Data -->
<g id="edge16" class="edge"><title>spike_core_benchmark_models_Benchmark&#45;&gt;spike_data_models_Data</title>
<path fill="none" stroke="black" stroke-dasharray="1,5" d="M523.73,-268.58C531.45,-260.81 539.29,-253.16 547,-246 556.49,-237.19 566.72,-228.23 577,-219.55"/>
<polygon fill="black" stroke="black" points="521.199,-266.162 516.69,-275.75 526.194,-271.067 521.199,-266.162"/>
<polygon fill="black" stroke="black" points="579.439,-222.073 584.86,-212.97 574.945,-216.705 579.439,-222.073"/>
<text text-anchor="middle" x="586.5" y="-250.8" font-family="Helvetica,sans-Serif" font-size="8.00">data_set (benchmark)</text>
</g>
<!-- spike_core_benchmark_models_Trial -->
<g id="node17" class="node"><title>spike_core_benchmark_models_Trial</title>
<polygon fill="palegoldenrod" stroke="palegoldenrod" points="607.5,-472 607.5,-608 744.5,-608 744.5,-472 607.5,-472"/>
<polygon fill="#698b22" stroke="#698b22" points="608,-580 608,-608 745,-608 745,-580 608,-580"/>
<text text-anchor="start" x="667.5" y="-597.633" font-family="Helvetica Bold" font-size="8.00" fill="white">Trial</text>
<text text-anchor="start" x="635" y="-588.033" font-family="Helvetica Bold" font-size="8.00" fill="white">&lt;</text>
<text text-anchor="start" x="640" y="-588.033" font-family="Helvetica Italic" font-size="8.00" fill="white">TimeStampedModel</text>
<text text-anchor="start" x="713" y="-588.033" font-family="Helvetica Bold" font-size="8.00" fill="white">&gt;</text>
<text text-anchor="start" x="610" y="-572.133" font-family="Helvetica Bold" font-size="8.00" fill="#7b7b7b">id</text>
<text text-anchor="start" x="664" y="-572.133" font-family="Helvetica Bold" font-size="8.00" fill="#7b7b7b">AutoField</text>
<text text-anchor="start" x="610" y="-560.133" font-family="Helvetica Italic" font-size="8.00">created</text>
<text text-anchor="start" x="664" y="-560.133" font-family="Helvetica Italic" font-size="8.00">AutoCreatedField</text>
<text text-anchor="start" x="610" y="-548.133" font-family="Helvetica Italic" font-size="8.00">modified</text>
<text text-anchor="start" x="664" y="-548.133" font-family="Helvetica Italic" font-size="8.00">AutoLastModifiedField</text>
<text text-anchor="start" x="610" y="-536.133" font-family="Helvetica Bold" font-size="8.00">name</text>
<text text-anchor="start" x="664" y="-536.133" font-family="Helvetica Bold" font-size="8.00">CharField</text>
<text text-anchor="start" x="610" y="-524.133" font-family="Helvetica Bold" font-size="8.00" fill="#7b7b7b">description</text>
<text text-anchor="start" x="664" y="-524.133" font-family="Helvetica Bold" font-size="8.00" fill="#7b7b7b">TextField</text>
<text text-anchor="start" x="610" y="-512.133" font-family="Helvetica Bold" font-size="8.00">parameter</text>
<text text-anchor="start" x="664" y="-512.133" font-family="Helvetica Bold" font-size="8.00">FloatField</text>
<text text-anchor="start" x="610" y="-500.133" font-family="Helvetica Bold" font-size="8.00" fill="#7b7b7b">valid_rd_log</text>
<text text-anchor="start" x="664" y="-500.133" font-family="Helvetica Bold" font-size="8.00" fill="#7b7b7b">TextField</text>
<text text-anchor="start" x="610" y="-488.133" font-family="Helvetica Bold" font-size="8.00" fill="#7b7b7b">valid_gt_log</text>
<text text-anchor="start" x="664" y="-488.133" font-family="Helvetica Bold" font-size="8.00" fill="#7b7b7b">TextField</text>
<text text-anchor="start" x="610" y="-476.133" font-family="Helvetica Bold" font-size="8.00">gt_type</text>
<text text-anchor="start" x="664" y="-476.133" font-family="Helvetica Bold" font-size="8.00">CharField</text>
</g>
<!-- spike_core_benchmark_models_Trial&#45;&gt;spike_data_models_Data -->
<g id="edge20" class="edge"><title>spike_core_benchmark_models_Trial&#45;&gt;spike_data_models_Data</title>
<path fill="none" stroke="black" stroke-dasharray="1,5" d="M672.13,-457.5C669.1,-392.77 664.9,-303.09 661.86,-238.39"/>
<polygon fill="black" stroke="black" points="668.647,-457.944 672.61,-467.77 675.639,-457.617 668.647,-457.944"/>
<polygon fill="black" stroke="black" points="665.348,-238.058 661.39,-228.23 658.356,-238.381 665.348,-238.058"/>
<text text-anchor="middle" x="696" y="-346.8" font-family="Helvetica,sans-Serif" font-size="8.00">data_set (trial)</text>
</g>
<!-- spike_core_benchmark_models_Trial&#45;&gt;spike_core_benchmark_models_Benchmark -->
<g id="edge18" class="edge"><title>spike_core_benchmark_models_Trial&#45;&gt;spike_core_benchmark_models_Benchmark</title>
<path fill="none" stroke="black" d="M599.83,-475C579.04,-457.26 556.41,-437.95 535.21,-419.86"/>
<text text-anchor="middle" x="600.5" y="-442.8" font-family="Helvetica,sans-Serif" font-size="8.00">benchmark (trial)</text>
</g>
<!-- spike_core_evaluation_models_Batch -->
<g id="node20" class="node"><title>spike_core_evaluation_models_Batch</title>
<polygon fill="palegoldenrod" stroke="palegoldenrod" points="374.5,-490 374.5,-590 527.5,-590 527.5,-490 374.5,-490"/>
<polygon fill="#698b22" stroke="#698b22" points="375,-562 375,-590 528,-590 528,-562 375,-562"/>
<text text-anchor="start" x="439.5" y="-579.633" font-family="Helvetica Bold" font-size="8.00" fill="white">Batch</text>
<text text-anchor="start" x="387" y="-570.033" font-family="Helvetica Bold" font-size="8.00" fill="white">&lt;</text>
<text text-anchor="start" x="392" y="-570.033" font-family="Helvetica Italic" font-size="8.00" fill="white">StatusModel,TimeStampedModel</text>
<text text-anchor="start" x="511" y="-570.033" font-family="Helvetica Bold" font-size="8.00" fill="white">&gt;</text>
<text text-anchor="start" x="377" y="-554.133" font-family="Helvetica Bold" font-size="8.00" fill="#7b7b7b">id</text>
<text text-anchor="start" x="447" y="-554.133" font-family="Helvetica Bold" font-size="8.00" fill="#7b7b7b">AutoField</text>
<text text-anchor="start" x="377" y="-542.133" font-family="Helvetica Italic" font-size="8.00">created</text>
<text text-anchor="start" x="447" y="-542.133" font-family="Helvetica Italic" font-size="8.00">AutoCreatedField</text>
<text text-anchor="start" x="377" y="-530.133" font-family="Helvetica Italic" font-size="8.00">modified</text>
<text text-anchor="start" x="447" y="-530.133" font-family="Helvetica Italic" font-size="8.00">AutoLastModifiedField</text>
<text text-anchor="start" x="377" y="-518.133" font-family="Helvetica Italic" font-size="8.00">status</text>
<text text-anchor="start" x="447" y="-518.133" font-family="Helvetica Italic" font-size="8.00">StatusField</text>
<text text-anchor="start" x="377" y="-506.133" font-family="Helvetica Italic" font-size="8.00">status_changed</text>
<text text-anchor="start" x="447" y="-506.133" font-family="Helvetica Italic" font-size="8.00">MonitorField</text>
<text text-anchor="start" x="377" y="-494.133" font-family="Helvetica Bold" font-size="8.00" fill="#7b7b7b">description</text>
<text text-anchor="start" x="447" y="-494.133" font-family="Helvetica Bold" font-size="8.00" fill="#7b7b7b">TextField</text>
</g>
<!-- spike_core_evaluation_models_Batch&#45;&gt;spike_core_algorithm_models_Algorithm -->
<g id="edge22" class="edge"><title>spike_core_evaluation_models_Batch&#45;&gt;spike_core_algorithm_models_Algorithm</title>
<path fill="none" stroke="black" d="M378.95,-485.75C344.19,-459.58 302.61,-428.27 267.87,-402.12"/>
<text text-anchor="middle" x="361.5" y="-442.8" font-family="Helvetica,sans-Serif" font-size="8.00">algorithm (batch)</text>
</g>
<!-- spike_core_evaluation_models_Batch&#45;&gt;django_contrib_auth_models_User -->
<g id="edge24" class="edge"><title>spike_core_evaluation_models_Batch&#45;&gt;django_contrib_auth_models_User</title>
<path fill="none" stroke="black" d="M366.59,-524.07C265.07,-503.26 103.04,-464.22 61,-420 -4.7482,-350.84 13.451,-221.48 22.947,-174.04"/>
<text text-anchor="middle" x="86.5" y="-346.8" font-family="Helvetica,sans-Serif" font-size="8.00">owner (batch)</text>
</g>
<!-- spike_core_evaluation_models_Batch&#45;&gt;spike_data_models_Data -->
<g id="edge28" class="edge"><title>spike_core_evaluation_models_Batch&#45;&gt;spike_data_models_Data</title>
<path fill="none" stroke="black" stroke-dasharray="1,5" d="M501.7,-477.69C508.94,-468.48 516.23,-459.04 523,-450 532.76,-436.97 536.78,-434.58 544,-420 573.82,-359.8 546.3,-327.03 590,-276 601.64,-262.41 614.4,-271.62 626,-258 631.2,-251.89 635.56,-244.94 639.21,-237.59"/>
<polygon fill="black" stroke="black" points="498.814,-475.697 495.35,-485.71 504.302,-480.043 498.814,-475.697"/>
<polygon fill="black" stroke="black" points="642.559,-238.676 643.47,-228.12 636.176,-235.804 642.559,-238.676"/>
<text text-anchor="middle" x="624.5" y="-346.8" font-family="Helvetica,sans-Serif" font-size="8.00">datafile_set (batch)</text>
</g>
<!-- spike_core_evaluation_models_Batch&#45;&gt;spike_core_benchmark_models_Benchmark -->
<g id="edge26" class="edge"><title>spike_core_evaluation_models_Batch&#45;&gt;spike_core_benchmark_models_Benchmark</title>
<path fill="none" stroke="black" d="M451,-485.75C451,-465.35 451,-441.82 451,-420.04"/>
<text text-anchor="middle" x="485" y="-442.8" font-family="Helvetica,sans-Serif" font-size="8.00">benchmark (batch)</text>
</g>
<!-- spike_core_evaluation_models_Evaluation -->
<g id="node25" class="node"><title>spike_core_evaluation_models_Evaluation</title>
<polygon fill="palegoldenrod" stroke="palegoldenrod" points="622.5,-664 622.5,-788 775.5,-788 775.5,-664 622.5,-664"/>
<polygon fill="#698b22" stroke="#698b22" points="623,-760 623,-788 776,-788 776,-760 623,-760"/>
<text text-anchor="start" x="678" y="-777.633" font-family="Helvetica Bold" font-size="8.00" fill="white">Evaluation</text>
<text text-anchor="start" x="635" y="-768.033" font-family="Helvetica Bold" font-size="8.00" fill="white">&lt;</text>
<text text-anchor="start" x="640" y="-768.033" font-family="Helvetica Italic" font-size="8.00" fill="white">StatusModel,TimeStampedModel</text>
<text text-anchor="start" x="759" y="-768.033" font-family="Helvetica Bold" font-size="8.00" fill="white">&gt;</text>
<text text-anchor="start" x="625" y="-752.133" font-family="Helvetica Bold" font-size="8.00" fill="#7b7b7b">id</text>
<text text-anchor="start" x="695" y="-752.133" font-family="Helvetica Bold" font-size="8.00" fill="#7b7b7b">AutoField</text>
<text text-anchor="start" x="625" y="-740.133" font-family="Helvetica Italic" font-size="8.00">created</text>
<text text-anchor="start" x="695" y="-740.133" font-family="Helvetica Italic" font-size="8.00">AutoCreatedField</text>
<text text-anchor="start" x="625" y="-728.133" font-family="Helvetica Italic" font-size="8.00">modified</text>
<text text-anchor="start" x="695" y="-728.133" font-family="Helvetica Italic" font-size="8.00">AutoLastModifiedField</text>
<text text-anchor="start" x="625" y="-716.133" font-family="Helvetica Italic" font-size="8.00">status</text>
<text text-anchor="start" x="695" y="-716.133" font-family="Helvetica Italic" font-size="8.00">StatusField</text>
<text text-anchor="start" x="625" y="-704.133" font-family="Helvetica Italic" font-size="8.00">status_changed</text>
<text text-anchor="start" x="695" y="-704.133" font-family="Helvetica Italic" font-size="8.00">MonitorField</text>
<text text-anchor="start" x="625" y="-692.133" font-family="Helvetica Bold" font-size="8.00" fill="#7b7b7b">task_id</text>
<text text-anchor="start" x="695" y="-692.133" font-family="Helvetica Bold" font-size="8.00" fill="#7b7b7b">CharField</text>
<text text-anchor="start" x="625" y="-680.133" font-family="Helvetica Bold" font-size="8.00" fill="#7b7b7b">task_log</text>
<text text-anchor="start" x="695" y="-680.133" font-family="Helvetica Bold" font-size="8.00" fill="#7b7b7b">TextField</text>
<text text-anchor="start" x="625" y="-668.133" font-family="Helvetica Bold" font-size="8.00" fill="#7b7b7b">valid_ev_log</text>
<text text-anchor="start" x="695" y="-668.133" font-family="Helvetica Bold" font-size="8.00" fill="#7b7b7b">TextField</text>
</g>
<!-- spike_core_evaluation_models_Evaluation&#45;&gt;spike_data_models_Data -->
<g id="edge34" class="edge"><title>spike_core_evaluation_models_Evaluation&#45;&gt;spike_data_models_Data</title>
<path fill="none" stroke="black" stroke-dasharray="1,5" d="M745.58,-650.83C747.12,-647.87 748.59,-644.92 750,-642 789.55,-559.83 784.57,-528.32 772,-438 761.68,-363.87 754.88,-345.05 726,-276 720.65,-263.2 714.23,-250.05 707.52,-237.36"/>
<polygon fill="black" stroke="black" points="742.462,-649.239 740.85,-659.71 748.64,-652.529 742.462,-649.239"/>
<polygon fill="black" stroke="black" points="710.411,-235.347 702.58,-228.21 704.251,-238.672 710.411,-235.347"/>
<text text-anchor="middle" x="815.5" y="-442.8" font-family="Helvetica,sans-Serif" font-size="8.00">datafile_set (evaluation)</text>
</g>
<!-- spike_core_evaluation_models_Evaluation&#45;&gt;spike_core_benchmark_models_Trial -->
<g id="edge30" class="edge"><title>spike_core_evaluation_models_Evaluation&#45;&gt;spike_core_benchmark_models_Trial</title>
<path fill="none" stroke="black" d="M690.83,-659.9C688.92,-644.45 686.87,-627.91 684.93,-612.2"/>
<text text-anchor="middle" x="717" y="-634.8" font-family="Helvetica,sans-Serif" font-size="8.00">trial (evaluation)</text>
</g>
<!-- spike_core_evaluation_models_Evaluation&#45;&gt;spike_core_evaluation_models_Batch -->
<g id="edge32" class="edge"><title>spike_core_evaluation_models_Evaluation&#45;&gt;spike_core_evaluation_models_Batch</title>
<path fill="none" stroke="black" d="M614.69,-662.77C584.92,-640.44 551.74,-615.56 523.08,-594.06"/>
<text text-anchor="middle" x="614" y="-634.8" font-family="Helvetica,sans-Serif" font-size="8.00">batch (evaluation)</text>
</g>
<!-- spike_log_models_Log -->
<g id="node29" class="node"><title>spike_log_models_Log</title>
<polygon fill="palegoldenrod" stroke="palegoldenrod" points="757,-106 757,-206 887,-206 887,-106 757,-106"/>
<polygon fill="#698b22" stroke="#698b22" points="757,-178 757,-206 887,-206 887,-178 757,-178"/>
<text text-anchor="start" x="814" y="-195.633" font-family="Helvetica Bold" font-size="8.00" fill="white">Log</text>
<text text-anchor="start" x="780.5" y="-186.033" font-family="Helvetica Bold" font-size="8.00" fill="white">&lt;</text>
<text text-anchor="start" x="785.5" y="-186.033" font-family="Helvetica Italic" font-size="8.00" fill="white">TimeStampedModel</text>
<text text-anchor="start" x="858.5" y="-186.033" font-family="Helvetica Bold" font-size="8.00" fill="white">&gt;</text>
<text text-anchor="start" x="759" y="-170.133" font-family="Helvetica Bold" font-size="8.00" fill="#7b7b7b">id</text>
<text text-anchor="start" x="806" y="-170.133" font-family="Helvetica Bold" font-size="8.00" fill="#7b7b7b">AutoField</text>
<text text-anchor="start" x="759" y="-158.133" font-family="Helvetica Italic" font-size="8.00">created</text>
<text text-anchor="start" x="806" y="-158.133" font-family="Helvetica Italic" font-size="8.00">AutoCreatedField</text>
<text text-anchor="start" x="759" y="-146.133" font-family="Helvetica Italic" font-size="8.00">modified</text>
<text text-anchor="start" x="806" y="-146.133" font-family="Helvetica Italic" font-size="8.00">AutoLastModifiedField</text>
<text text-anchor="start" x="759" y="-134.133" font-family="Helvetica Bold" font-size="8.00">text</text>
<text text-anchor="start" x="806" y="-134.133" font-family="Helvetica Bold" font-size="8.00">TextField</text>
<text text-anchor="start" x="759" y="-122.133" font-family="Helvetica Bold" font-size="8.00" fill="#7b7b7b">kind</text>
<text text-anchor="start" x="806" y="-122.133" font-family="Helvetica Bold" font-size="8.00" fill="#7b7b7b">TextField</text>
<text text-anchor="start" x="759" y="-110.133" font-family="Helvetica Bold" font-size="8.00">object_id</text>
<text text-anchor="start" x="806" y="-110.133" font-family="Helvetica Bold" font-size="8.00">PositiveIntegerField</text>
</g>
<!-- spike_log_models_Log&#45;&gt;django_contrib_contenttypes_models_ContentType -->
<g id="edge36" class="edge"><title>spike_log_models_Log&#45;&gt;django_contrib_contenttypes_models_ContentType</title>
<path fill="none" stroke="black" d="M796.89,-101.85C786.1,-78.598 774.22,-52.976 766.46,-36.252"/>
<text text-anchor="middle" x="810.5" y="-58.8" font-family="Helvetica,sans-Serif" font-size="8.00">content_type (log)</text>
</g>
<!-- spike_metric_models_Metric -->
<g id="node31" class="node"><title>spike_metric_models_Metric</title>
<polygon fill="palegoldenrod" stroke="palegoldenrod" points="841,-472 841,-608 975,-608 975,-472 841,-472"/>
<polygon fill="#698b22" stroke="#698b22" points="841,-580 841,-608 975,-608 975,-580 841,-580"/>
<text text-anchor="start" x="895.5" y="-597.633" font-family="Helvetica Bold" font-size="8.00" fill="white">Metric</text>
<text text-anchor="start" x="866.5" y="-588.033" font-family="Helvetica Bold" font-size="8.00" fill="white">&lt;</text>
<text text-anchor="start" x="871.5" y="-588.033" font-family="Helvetica Italic" font-size="8.00" fill="white">TimeStampedModel</text>
<text text-anchor="start" x="944.5" y="-588.033" font-family="Helvetica Bold" font-size="8.00" fill="white">&gt;</text>
<text text-anchor="start" x="843" y="-572.133" font-family="Helvetica Bold" font-size="8.00" fill="#7b7b7b">id</text>
<text text-anchor="start" x="894" y="-572.133" font-family="Helvetica Bold" font-size="8.00" fill="#7b7b7b">AutoField</text>
<text text-anchor="start" x="843" y="-560.133" font-family="Helvetica Italic" font-size="8.00">created</text>
<text text-anchor="start" x="894" y="-560.133" font-family="Helvetica Italic" font-size="8.00">AutoCreatedField</text>
<text text-anchor="start" x="843" y="-548.133" font-family="Helvetica Italic" font-size="8.00">modified</text>
<text text-anchor="start" x="894" y="-548.133" font-family="Helvetica Italic" font-size="8.00">AutoLastModifiedField</text>
<text text-anchor="start" x="843" y="-536.133" font-family="Helvetica Bold" font-size="8.00">name</text>
<text text-anchor="start" x="894" y="-536.133" font-family="Helvetica Bold" font-size="8.00">CharField</text>
<text text-anchor="start" x="843" y="-524.133" font-family="Helvetica Bold" font-size="8.00" fill="#7b7b7b">version</text>
<text text-anchor="start" x="894" y="-524.133" font-family="Helvetica Bold" font-size="8.00" fill="#7b7b7b">CharField</text>
<text text-anchor="start" x="843" y="-512.133" font-family="Helvetica Bold" font-size="8.00" fill="#7b7b7b">description</text>
<text text-anchor="start" x="894" y="-512.133" font-family="Helvetica Bold" font-size="8.00" fill="#7b7b7b">TextField</text>
<text text-anchor="start" x="843" y="-500.133" font-family="Helvetica Bold" font-size="8.00">exec_name</text>
<text text-anchor="start" x="894" y="-500.133" font-family="Helvetica Bold" font-size="8.00">TextField</text>
<text text-anchor="start" x="843" y="-488.133" font-family="Helvetica Bold" font-size="8.00" fill="#7b7b7b">temp_name</text>
<text text-anchor="start" x="894" y="-488.133" font-family="Helvetica Bold" font-size="8.00" fill="#7b7b7b">TextField</text>
<text text-anchor="start" x="843" y="-476.133" font-family="Helvetica Bold" font-size="8.00" fill="#7b7b7b">rest_name</text>
<text text-anchor="start" x="894" y="-476.133" font-family="Helvetica Bold" font-size="8.00" fill="#7b7b7b">TextField</text>
</g>
<!-- spike_metric_models_Metric&#45;&gt;spike_data_models_Data -->
<g id="edge42" class="edge"><title>spike_metric_models_Metric&#45;&gt;spike_data_models_Data</title>
<path fill="none" stroke="black" stroke-dasharray="1,5" d="M906.32,-457.84C900.29,-390.65 880.49,-298.46 820,-246 794.62,-223.99 775.65,-241.32 740.7,-227.5"/>
<polygon fill="black" stroke="black" points="902.846,-458.299 907.15,-467.98 909.822,-457.728 902.846,-458.299"/>
<polygon fill="black" stroke="black" points="742.009,-224.25 731.46,-223.27 739.096,-230.615 742.009,-224.25"/>
<text text-anchor="middle" x="936.5" y="-346.8" font-family="Helvetica,sans-Serif" font-size="8.00">datafile_set (metric)</text>
</g>
<!-- spike_metric_models_Metric&#45;&gt;spike_core_benchmark_models_Benchmark -->
<g id="edge40" class="edge"><title>spike_metric_models_Metric&#45;&gt;spike_core_benchmark_models_Benchmark</title>
<path fill="none" stroke="black" d="M825.48,-495.61C804.81,-485.61 782.41,-475.69 761,-468 706.82,-448.55 691.18,-450.56 635,-438 596.89,-429.48 584.66,-435.92 549,-420 546.83,-419.03 544.66,-418.01 542.5,-416.94"/>
<ellipse fill="black" stroke="black" cx="829.127" cy="-497.393" rx="4.00002" ry="4.00002"/>
<ellipse fill="black" stroke="black" cx="538.728" cy="-414.977" rx="4.00002" ry="4.00002"/>
<text text-anchor="middle" x="731" y="-442.8" font-family="Helvetica,sans-Serif" font-size="8.00">benchmarks (metric)</text>
</g>
<!-- spike_metric_models_Metric&#45;&gt;spike_metric_models_Metric -->
<g id="edge38" class="edge"><title>spike_metric_models_Metric&#45;&gt;spike_metric_models_Metric</title>
<path fill="none" stroke="black" d="M983.17,-556.15C993.84,-553.54 1001,-548.16 1001,-540 1001,-531.84 993.84,-526.46 983.17,-523.85"/>
<text text-anchor="middle" x="1031" y="-538.8" font-family="Helvetica,sans-Serif" font-size="8.00">parent (children)</text>
</g>
<!-- spike_metric_models_Result -->
<g id="node35" class="node"><title>spike_metric_models_Result</title>
<polygon fill="palegoldenrod" stroke="palegoldenrod" points="721,-844 721,-908 851,-908 851,-844 721,-844"/>
<polygon fill="#698b22" stroke="#698b22" points="721,-880 721,-908 851,-908 851,-880 721,-880"/>
<text text-anchor="start" x="773" y="-897.633" font-family="Helvetica Bold" font-size="8.00" fill="white">Result</text>
<text text-anchor="start" x="744.5" y="-888.033" font-family="Helvetica Bold" font-size="8.00" fill="white">&lt;</text>
<text text-anchor="start" x="749.5" y="-888.033" font-family="Helvetica Italic" font-size="8.00" fill="white">TimeStampedModel</text>
<text text-anchor="start" x="822.5" y="-888.033" font-family="Helvetica Bold" font-size="8.00" fill="white">&gt;</text>
<text text-anchor="start" x="723" y="-872.133" font-family="Helvetica Bold" font-size="8.00" fill="#7b7b7b">id</text>
<text text-anchor="start" x="770" y="-872.133" font-family="Helvetica Bold" font-size="8.00" fill="#7b7b7b">AutoField</text>
<text text-anchor="start" x="723" y="-860.133" font-family="Helvetica Italic" font-size="8.00">created</text>
<text text-anchor="start" x="770" y="-860.133" font-family="Helvetica Italic" font-size="8.00">AutoCreatedField</text>
<text text-anchor="start" x="723" y="-848.133" font-family="Helvetica Italic" font-size="8.00">modified</text>
<text text-anchor="start" x="770" y="-848.133" font-family="Helvetica Italic" font-size="8.00">AutoLastModifiedField</text>
</g>
<!-- spike_metric_models_Result&#45;&gt;spike_core_evaluation_models_Evaluation -->
<g id="edge46" class="edge"><title>spike_metric_models_Result&#45;&gt;spike_core_evaluation_models_Evaluation</title>
<path fill="none" stroke="black" d="M764.94,-839.69C756.64,-825.38 746.84,-808.49 737.38,-792.16"/>
<text text-anchor="middle" x="784" y="-814.8" font-family="Helvetica,sans-Serif" font-size="8.00">evaluation (result)</text>
</g>
<!-- spike_metric_models_Result&#45;&gt;spike_metric_models_Metric -->
<g id="edge44" class="edge"><title>spike_metric_models_Result&#45;&gt;spike_metric_models_Metric</title>
<path fill="none" stroke="black" d="M810.55,-839.83C813.98,-834 817.26,-827.94 820,-822 851.69,-753.31 876.07,-670.16 891.05,-612.01"/>
<text text-anchor="middle" x="902" y="-724.8" font-family="Helvetica,sans-Serif" font-size="8.00">metric (result)</text>
</g>
</g>
</svg>
