<?xml version="1.0" encoding="UTF-8" standalone="no"?>
<!DOCTYPE svg PUBLIC "-//W3C//DTD SVG 1.1//EN"
 "http://www.w3.org/Graphics/SVG/1.1/DTD/svg11.dtd">
<!-- Generated by graphviz version 2.26.3 (20100126.1600)
 -->
<!-- Title: name Pages: 1 -->
<svg width="1281pt" height="920pt"
 viewBox="0.00 0.00 1281.00 920.00" xmlns="http://www.w3.org/2000/svg" xmlns:xlink="http://www.w3.org/1999/xlink">
<g id="graph1" class="graph" transform="scale(1 1) rotate(0) translate(4 916)">
<title>name</title>
<polygon fill="white" stroke="white" points="-4,5 -4,-916 1278,-916 1278,5 -4,5"/>
<!-- model_utils_models_StatusModel -->
<g id="node1" class="node"><title>model_utils_models_StatusModel</title>
<polygon fill="palegoldenrod" stroke="palegoldenrod" points="8,-855.5 8,-896.5 132,-896.5 132,-855.5 8,-855.5"/>
<polygon fill="#698b22" stroke="#698b22" points="8,-879 8,-896 132,-896 132,-879 8,-879"/>
<text text-anchor="start" x="45" y="-885.633" font-family="Helvetica Bold" font-size="8.00" fill="white">StatusModel</text>
<text text-anchor="start" x="10" y="-871.133" font-family="Helvetica Bold" font-size="8.00">status</text>
<text text-anchor="start" x="79" y="-871.133" font-family="Helvetica Bold" font-size="8.00">StatusField</text>
<text text-anchor="start" x="10" y="-859.133" font-family="Helvetica Bold" font-size="8.00">status_changed</text>
<text text-anchor="start" x="79" y="-859.133" font-family="Helvetica Bold" font-size="8.00">MonitorField</text>
</g>
<!-- model_utils_models_TimeStampedModel -->
<g id="node2" class="node"><title>model_utils_models_TimeStampedModel</title>
<polygon fill="palegoldenrod" stroke="palegoldenrod" points="165.5,-855.5 165.5,-896.5 304.5,-896.5 304.5,-855.5 165.5,-855.5"/>
<polygon fill="#698b22" stroke="#698b22" points="166,-879 166,-896 305,-896 305,-879 166,-879"/>
<text text-anchor="start" x="196.5" y="-885.633" font-family="Helvetica Bold" font-size="8.00" fill="white">TimeStampedModel</text>
<text text-anchor="start" x="168" y="-871.133" font-family="Helvetica Bold" font-size="8.00">created</text>
<text text-anchor="start" x="212" y="-871.133" font-family="Helvetica Bold" font-size="8.00">AutoCreatedField</text>
<text text-anchor="start" x="168" y="-859.133" font-family="Helvetica Bold" font-size="8.00">modified</text>
<text text-anchor="start" x="212" y="-859.133" font-family="Helvetica Bold" font-size="8.00">AutoLastModifiedField</text>
</g>
<!-- spike_core_algorithm_models_Algorithm -->
<g id="node3" class="node"><title>spike_core_algorithm_models_Algorithm</title>
<polygon fill="palegoldenrod" stroke="palegoldenrod" points="913,-298 913,-398 1047,-398 1047,-298 913,-298"/>
<polygon fill="#698b22" stroke="#698b22" points="913,-370 913,-398 1047,-398 1047,-370 913,-370"/>
<text text-anchor="start" x="960" y="-387.633" font-family="Helvetica Bold" font-size="8.00" fill="white">Algorithm</text>
<text text-anchor="start" x="938.5" y="-378.033" font-family="Helvetica Bold" font-size="8.00" fill="white">&lt;</text>
<text text-anchor="start" x="943.5" y="-378.033" font-family="Helvetica Italic" font-size="8.00" fill="white">TimeStampedModel</text>
<text text-anchor="start" x="1016.5" y="-378.033" font-family="Helvetica Bold" font-size="8.00" fill="white">&gt;</text>
<text text-anchor="start" x="915" y="-362.133" font-family="Helvetica Bold" font-size="8.00" fill="#7b7b7b">id</text>
<text text-anchor="start" x="966" y="-362.133" font-family="Helvetica Bold" font-size="8.00" fill="#7b7b7b">AutoField</text>
<text text-anchor="start" x="915" y="-350.133" font-family="Helvetica Italic" font-size="8.00">created</text>
<text text-anchor="start" x="966" y="-350.133" font-family="Helvetica Italic" font-size="8.00">AutoCreatedField</text>
<text text-anchor="start" x="915" y="-338.133" font-family="Helvetica Italic" font-size="8.00">modified</text>
<text text-anchor="start" x="966" y="-338.133" font-family="Helvetica Italic" font-size="8.00">AutoLastModifiedField</text>
<text text-anchor="start" x="915" y="-326.133" font-family="Helvetica Bold" font-size="8.00">name</text>
<text text-anchor="start" x="966" y="-326.133" font-family="Helvetica Bold" font-size="8.00">CharField</text>
<text text-anchor="start" x="915" y="-314.133" font-family="Helvetica Bold" font-size="8.00">version</text>
<text text-anchor="start" x="966" y="-314.133" font-family="Helvetica Bold" font-size="8.00">CharField</text>
<text text-anchor="start" x="915" y="-302.133" font-family="Helvetica Bold" font-size="8.00" fill="#7b7b7b">description</text>
<text text-anchor="start" x="966" y="-302.133" font-family="Helvetica Bold" font-size="8.00" fill="#7b7b7b">TextField</text>
</g>
<!-- spike_core_algorithm_models_Algorithm&#45;&gt;spike_core_algorithm_models_Algorithm -->
<g id="edge2" class="edge"><title>spike_core_algorithm_models_Algorithm&#45;&gt;spike_core_algorithm_models_Algorithm</title>
<path fill="none" stroke="black" d="M1055.2,-364.15C1065.8,-361.54 1073,-356.16 1073,-348 1073,-339.84 1065.8,-334.46 1055.2,-331.85"/>
<text text-anchor="middle" x="1103" y="-346.8" font-family="Helvetica,sans-Serif" font-size="8.00">parent (children)</text>
</g>
<!-- taggit_models_TaggedItem -->
<g id="node5" class="node"><title>taggit_models_TaggedItem</title>
<polygon fill="palegoldenrod" stroke="palegoldenrod" points="826.5,-147.5 826.5,-164.5 883.5,-164.5 883.5,-147.5 826.5,-147.5"/>
<polygon fill="#698b22" stroke="#698b22" points="827,-147 827,-164 884,-164 884,-147 827,-147"/>
<text text-anchor="start" x="832" y="-153.633" font-family="Helvetica Bold" font-size="8.00" fill="white">TaggedItem</text>
</g>
<!-- spike_core_algorithm_models_Algorithm&#45;&gt;taggit_models_TaggedItem -->
<g id="edge4" class="edge"><title>spike_core_algorithm_models_Algorithm&#45;&gt;taggit_models_TaggedItem</title>
<path fill="none" stroke="black" stroke-dasharray="1,5" d="M963.13,-284.26C958.29,-271.1 952.3,-257.69 945,-246 929.27,-220.79 905.23,-197.23 885.95,-180.55"/>
<polygon fill="black" stroke="black" points="959.852,-285.49 966.45,-293.78 966.462,-283.185 959.852,-285.49"/>
<polygon fill="black" stroke="black" points="888.182,-177.854 878.29,-174.06 883.657,-183.195 888.182,-177.854"/>
<text text-anchor="middle" x="995" y="-250.8" font-family="Helvetica,sans-Serif" font-size="8.00">tagged_items (algorithm)</text>
</g>
<!-- spike_data_models_Data -->
<g id="node7" class="node"><title>spike_data_models_Data</title>
<polygon fill="palegoldenrod" stroke="palegoldenrod" points="508,-88 508,-224 638,-224 638,-88 508,-88"/>
<polygon fill="#698b22" stroke="#698b22" points="508,-196 508,-224 638,-224 638,-196 508,-196"/>
<text text-anchor="start" x="563.5" y="-213.633" font-family="Helvetica Bold" font-size="8.00" fill="white">Data</text>
<text text-anchor="start" x="531.5" y="-204.033" font-family="Helvetica Bold" font-size="8.00" fill="white">&lt;</text>
<text text-anchor="start" x="536.5" y="-204.033" font-family="Helvetica Italic" font-size="8.00" fill="white">TimeStampedModel</text>
<text text-anchor="start" x="609.5" y="-204.033" font-family="Helvetica Bold" font-size="8.00" fill="white">&gt;</text>
<text text-anchor="start" x="510" y="-188.133" font-family="Helvetica Bold" font-size="8.00" fill="#7b7b7b">id</text>
<text text-anchor="start" x="557" y="-188.133" font-family="Helvetica Bold" font-size="8.00" fill="#7b7b7b">AutoField</text>
<text text-anchor="start" x="510" y="-176.133" font-family="Helvetica Italic" font-size="8.00">created</text>
<text text-anchor="start" x="557" y="-176.133" font-family="Helvetica Italic" font-size="8.00">AutoCreatedField</text>
<text text-anchor="start" x="510" y="-164.133" font-family="Helvetica Italic" font-size="8.00">modified</text>
<text text-anchor="start" x="557" y="-164.133" font-family="Helvetica Italic" font-size="8.00">AutoLastModifiedField</text>
<text text-anchor="start" x="510" y="-152.133" font-family="Helvetica Bold" font-size="8.00">name</text>
<text text-anchor="start" x="557" y="-152.133" font-family="Helvetica Bold" font-size="8.00">CharField</text>
<text text-anchor="start" x="510" y="-140.133" font-family="Helvetica Bold" font-size="8.00" fill="#7b7b7b">ext</text>
<text text-anchor="start" x="557" y="-140.133" font-family="Helvetica Bold" font-size="8.00" fill="#7b7b7b">CharField</text>
<text text-anchor="start" x="510" y="-128.133" font-family="Helvetica Bold" font-size="8.00" fill="#7b7b7b">sha1</text>
<text text-anchor="start" x="557" y="-128.133" font-family="Helvetica Bold" font-size="8.00" fill="#7b7b7b">CharField</text>
<text text-anchor="start" x="510" y="-116.133" font-family="Helvetica Bold" font-size="8.00">file</text>
<text text-anchor="start" x="557" y="-116.133" font-family="Helvetica Bold" font-size="8.00">FileField</text>
<text text-anchor="start" x="510" y="-104.133" font-family="Helvetica Bold" font-size="8.00" fill="#7b7b7b">kind</text>
<text text-anchor="start" x="557" y="-104.133" font-family="Helvetica Bold" font-size="8.00" fill="#7b7b7b">TextField</text>
<text text-anchor="start" x="510" y="-92.1333" font-family="Helvetica Bold" font-size="8.00">object_id</text>
<text text-anchor="start" x="557" y="-92.1333" font-family="Helvetica Bold" font-size="8.00">PositiveIntegerField</text>
</g>
<!-- spike_core_algorithm_models_Algorithm&#45;&gt;spike_data_models_Data -->
<g id="edge6" class="edge"><title>spike_core_algorithm_models_Algorithm&#45;&gt;spike_data_models_Data</title>
<path fill="none" stroke="black" stroke-dasharray="1,5" d="M906.99,-287.35C901.65,-283.41 896.29,-279.59 891,-276 877.5,-266.84 873.01,-266.36 859,-258 850.42,-252.88 849.02,-250.29 840,-246 780.54,-217.7 709.78,-194.28 656.05,-178.43"/>
<polygon fill="black" stroke="black" points="905.244,-290.416 915.34,-293.63 909.452,-284.822 905.244,-290.416"/>
<polygon fill="black" stroke="black" points="656.801,-175.003 646.22,-175.55 654.833,-181.721 656.801,-175.003"/>
<text text-anchor="middle" x="900" y="-250.8" font-family="Helvetica,sans-Serif" font-size="8.00">datafile_set (algorithm)</text>
</g>
<!-- django_contrib_auth_models_User -->
<g id="node9" class="node"><title>django_contrib_auth_models_User</title>
<polygon fill="palegoldenrod" stroke="palegoldenrod" points="1159.5,-147.5 1159.5,-164.5 1188.5,-164.5 1188.5,-147.5 1159.5,-147.5"/>
<polygon fill="#698b22" stroke="#698b22" points="1160,-147 1160,-164 1189,-164 1189,-147 1160,-147"/>
<text text-anchor="start" x="1165" y="-153.633" font-family="Helvetica Bold" font-size="8.00" fill="white">User</text>
</g>
<!-- spike_core_algorithm_models_Algorithm&#45;&gt;django_contrib_auth_models_User -->
<g id="edge8" class="edge"><title>spike_core_algorithm_models_Algorithm&#45;&gt;django_contrib_auth_models_User</title>
<path fill="none" stroke="black" d="M1055.1,-325.32C1089.5,-311.24 1127.9,-289.65 1152,-258 1170.8,-233.35 1174.3,-196.12 1174.5,-174.11"/>
<text text-anchor="middle" x="1191" y="-250.8" font-family="Helvetica,sans-Serif" font-size="8.00">owner (algorithm)</text>
</g>
<!-- django_contrib_contenttypes_models_ContentType -->
<g id="node11" class="node"><title>django_contrib_contenttypes_models_ContentType</title>
<polygon fill="palegoldenrod" stroke="palegoldenrod" points="441.5,-9.5 441.5,-26.5 502.5,-26.5 502.5,-9.5 441.5,-9.5"/>
<polygon fill="#698b22" stroke="#698b22" points="442,-9 442,-26 503,-26 503,-9 442,-9"/>
<text text-anchor="start" x="446.5" y="-15.6333" font-family="Helvetica Bold" font-size="8.00" fill="white">ContentType</text>
</g>
<!-- spike_data_models_Data&#45;&gt;django_contrib_contenttypes_models_ContentType -->
<g id="edge10" class="edge"><title>spike_data_models_Data&#45;&gt;django_contrib_contenttypes_models_ContentType</title>
<path fill="none" stroke="black" d="M534.47,-83.814C527.83,-73.44 520.59,-63.183 513,-54 507.81,-47.722 501.48,-41.6 495.36,-36.236"/>
<text text-anchor="middle" x="555" y="-58.8" font-family="Helvetica,sans-Serif" font-size="8.00">content_type (data)</text>
</g>
<!-- spike_core_benchmark_models_Benchmark -->
<g id="node13" class="node"><title>spike_core_benchmark_models_Benchmark</title>
<polygon fill="palegoldenrod" stroke="palegoldenrod" points="621.5,-280 621.5,-416 774.5,-416 774.5,-280 621.5,-280"/>
<polygon fill="#698b22" stroke="#698b22" points="622,-388 622,-416 775,-416 775,-388 622,-388"/>
<text text-anchor="start" x="676" y="-405.633" font-family="Helvetica Bold" font-size="8.00" fill="white">Benchmark</text>
<text text-anchor="start" x="634" y="-396.033" font-family="Helvetica Bold" font-size="8.00" fill="white">&lt;</text>
<text text-anchor="start" x="639" y="-396.033" font-family="Helvetica Italic" font-size="8.00" fill="white">StatusModel,TimeStampedModel</text>
<text text-anchor="start" x="758" y="-396.033" font-family="Helvetica Bold" font-size="8.00" fill="white">&gt;</text>
<text text-anchor="start" x="624" y="-380.133" font-family="Helvetica Bold" font-size="8.00" fill="#7b7b7b">id</text>
<text text-anchor="start" x="694" y="-380.133" font-family="Helvetica Bold" font-size="8.00" fill="#7b7b7b">AutoField</text>
<text text-anchor="start" x="624" y="-368.133" font-family="Helvetica Italic" font-size="8.00">created</text>
<text text-anchor="start" x="694" y="-368.133" font-family="Helvetica Italic" font-size="8.00">AutoCreatedField</text>
<text text-anchor="start" x="624" y="-356.133" font-family="Helvetica Italic" font-size="8.00">modified</text>
<text text-anchor="start" x="694" y="-356.133" font-family="Helvetica Italic" font-size="8.00">AutoLastModifiedField</text>
<text text-anchor="start" x="624" y="-344.133" font-family="Helvetica Italic" font-size="8.00">status</text>
<text text-anchor="start" x="694" y="-344.133" font-family="Helvetica Italic" font-size="8.00">StatusField</text>
<text text-anchor="start" x="624" y="-332.133" font-family="Helvetica Italic" font-size="8.00">status_changed</text>
<text text-anchor="start" x="694" y="-332.133" font-family="Helvetica Italic" font-size="8.00">MonitorField</text>
<text text-anchor="start" x="624" y="-320.133" font-family="Helvetica Bold" font-size="8.00">name</text>
<text text-anchor="start" x="694" y="-320.133" font-family="Helvetica Bold" font-size="8.00">CharField</text>
<text text-anchor="start" x="624" y="-308.133" font-family="Helvetica Bold" font-size="8.00" fill="#7b7b7b">description</text>
<text text-anchor="start" x="694" y="-308.133" font-family="Helvetica Bold" font-size="8.00" fill="#7b7b7b">TextField</text>
<text text-anchor="start" x="624" y="-296.133" font-family="Helvetica Bold" font-size="8.00">parameter</text>
<text text-anchor="start" x="694" y="-296.133" font-family="Helvetica Bold" font-size="8.00">CharField</text>
<text text-anchor="start" x="624" y="-284.133" font-family="Helvetica Bold" font-size="8.00">gt_access</text>
<text text-anchor="start" x="694" y="-284.133" font-family="Helvetica Bold" font-size="8.00">CharField</text>
</g>
<!-- spike_core_benchmark_models_Benchmark&#45;&gt;taggit_models_TaggedItem -->
<g id="edge12" class="edge"><title>spike_core_benchmark_models_Benchmark&#45;&gt;taggit_models_TaggedItem</title>
<path fill="none" stroke="black" stroke-dasharray="1,5" d="M729.54,-266.58C733.62,-259.35 738.11,-252.37 743,-246 763.29,-219.57 792.91,-196.21 816.59,-179.92"/>
<polygon fill="black" stroke="black" points="726.212,-265.382 724.58,-275.85 732.384,-268.684 726.212,-265.382"/>
<polygon fill="black" stroke="black" points="818.67,-182.739 825.01,-174.25 814.76,-176.932 818.67,-182.739"/>
<text text-anchor="middle" x="791.5" y="-250.8" font-family="Helvetica,sans-Serif" font-size="8.00">tagged_items (benchmark)</text>
</g>
<!-- spike_core_benchmark_models_Benchmark&#45;&gt;spike_data_models_Data -->
<g id="edge14" class="edge"><title>spike_core_benchmark_models_Benchmark&#45;&gt;spike_data_models_Data</title>
<path fill="none" stroke="black" stroke-dasharray="1,5" d="M622.4,-267.48C620.17,-264.33 618.03,-261.17 616,-258 611.81,-251.45 607.88,-244.43 604.22,-237.25"/>
<polygon fill="black" stroke="black" points="619.739,-269.768 628.49,-275.74 625.373,-265.614 619.739,-269.768"/>
<polygon fill="black" stroke="black" points="607.271,-235.522 599.73,-228.08 600.984,-238.6 607.271,-235.522"/>
<text text-anchor="middle" x="655.5" y="-250.8" font-family="Helvetica,sans-Serif" font-size="8.00">data_set (benchmark)</text>
</g>
<!-- spike_core_benchmark_models_Benchmark&#45;&gt;django_contrib_auth_models_User -->
<g id="edge16" class="edge"><title>spike_core_benchmark_models_Benchmark&#45;&gt;django_contrib_auth_models_User</title>
<path fill="none" stroke="black" d="M782.15,-281.95C786.72,-279.72 791.34,-277.72 796,-276 899.7,-237.79 940.92,-297.85 1044,-258 1091.1,-239.8 1134.9,-198.41 1157.6,-174.32"/>
<text text-anchor="middle" x="1103.5" y="-250.8" font-family="Helvetica,sans-Serif" font-size="8.00">owner (benchmark)</text>
</g>
<!-- spike_core_benchmark_models_Trial -->
<g id="node17" class="node"><title>spike_core_benchmark_models_Trial</title>
<polygon fill="palegoldenrod" stroke="palegoldenrod" points="533.5,-472 533.5,-608 670.5,-608 670.5,-472 533.5,-472"/>
<polygon fill="#698b22" stroke="#698b22" points="534,-580 534,-608 671,-608 671,-580 534,-580"/>
<text text-anchor="start" x="593.5" y="-597.633" font-family="Helvetica Bold" font-size="8.00" fill="white">Trial</text>
<text text-anchor="start" x="561" y="-588.033" font-family="Helvetica Bold" font-size="8.00" fill="white">&lt;</text>
<text text-anchor="start" x="566" y="-588.033" font-family="Helvetica Italic" font-size="8.00" fill="white">TimeStampedModel</text>
<text text-anchor="start" x="639" y="-588.033" font-family="Helvetica Bold" font-size="8.00" fill="white">&gt;</text>
<text text-anchor="start" x="536" y="-572.133" font-family="Helvetica Bold" font-size="8.00" fill="#7b7b7b">id</text>
<text text-anchor="start" x="590" y="-572.133" font-family="Helvetica Bold" font-size="8.00" fill="#7b7b7b">AutoField</text>
<text text-anchor="start" x="536" y="-560.133" font-family="Helvetica Italic" font-size="8.00">created</text>
<text text-anchor="start" x="590" y="-560.133" font-family="Helvetica Italic" font-size="8.00">AutoCreatedField</text>
<text text-anchor="start" x="536" y="-548.133" font-family="Helvetica Italic" font-size="8.00">modified</text>
<text text-anchor="start" x="590" y="-548.133" font-family="Helvetica Italic" font-size="8.00">AutoLastModifiedField</text>
<text text-anchor="start" x="536" y="-536.133" font-family="Helvetica Bold" font-size="8.00">name</text>
<text text-anchor="start" x="590" y="-536.133" font-family="Helvetica Bold" font-size="8.00">CharField</text>
<text text-anchor="start" x="536" y="-524.133" font-family="Helvetica Bold" font-size="8.00" fill="#7b7b7b">description</text>
<text text-anchor="start" x="590" y="-524.133" font-family="Helvetica Bold" font-size="8.00" fill="#7b7b7b">TextField</text>
<text text-anchor="start" x="536" y="-512.133" font-family="Helvetica Bold" font-size="8.00">parameter</text>
<text text-anchor="start" x="590" y="-512.133" font-family="Helvetica Bold" font-size="8.00">FloatField</text>
<text text-anchor="start" x="536" y="-500.133" font-family="Helvetica Bold" font-size="8.00" fill="#7b7b7b">valid_rd_log</text>
<text text-anchor="start" x="590" y="-500.133" font-family="Helvetica Bold" font-size="8.00" fill="#7b7b7b">TextField</text>
<text text-anchor="start" x="536" y="-488.133" font-family="Helvetica Bold" font-size="8.00" fill="#7b7b7b">valid_gt_log</text>
<text text-anchor="start" x="590" y="-488.133" font-family="Helvetica Bold" font-size="8.00" fill="#7b7b7b">TextField</text>
<text text-anchor="start" x="536" y="-476.133" font-family="Helvetica Bold" font-size="8.00">gt_type</text>
<text text-anchor="start" x="590" y="-476.133" font-family="Helvetica Bold" font-size="8.00">CharField</text>
</g>
<!-- spike_core_benchmark_models_Trial&#45;&gt;spike_data_models_Data -->
<g id="edge18" class="edge"><title>spike_core_benchmark_models_Trial&#45;&gt;spike_data_models_Data</title>
<path fill="none" stroke="black" stroke-dasharray="1,5" d="M594.22,-457.93C591.59,-450.85 588.25,-444.08 584,-438 574.88,-424.94 560.95,-433.81 553,-420 521.07,-364.53 547.72,-339.78 553,-276 554.02,-263.71 555.61,-250.78 557.47,-238.15"/>
<polygon fill="black" stroke="black" points="590.98,-459.289 597.37,-467.74 597.645,-457.149 590.98,-459.289"/>
<polygon fill="black" stroke="black" points="560.955,-238.513 559,-228.1 554.035,-237.459 560.955,-238.513"/>
<text text-anchor="middle" x="579" y="-346.8" font-family="Helvetica,sans-Serif" font-size="8.00">data_set (trial)</text>
</g>
<!-- spike_core_benchmark_models_Trial&#45;&gt;spike_core_benchmark_models_Benchmark -->
<g id="edge20" class="edge"><title>spike_core_benchmark_models_Trial&#45;&gt;spike_core_benchmark_models_Benchmark</title>
<path fill="none" stroke="black" d="M632.7,-467.97C637.33,-457.83 642.18,-447.6 647,-438 649.9,-432.22 653,-426.29 656.17,-420.36"/>
<text text-anchor="middle" x="677.5" y="-442.8" font-family="Helvetica,sans-Serif" font-size="8.00">benchmark (trial)</text>
</g>
<!-- spike_core_evaluation_models_Batch -->
<g id="node20" class="node"><title>spike_core_evaluation_models_Batch</title>
<polygon fill="palegoldenrod" stroke="palegoldenrod" points="741.5,-490 741.5,-590 894.5,-590 894.5,-490 741.5,-490"/>
<polygon fill="#698b22" stroke="#698b22" points="742,-562 742,-590 895,-590 895,-562 742,-562"/>
<text text-anchor="start" x="806.5" y="-579.633" font-family="Helvetica Bold" font-size="8.00" fill="white">Batch</text>
<text text-anchor="start" x="754" y="-570.033" font-family="Helvetica Bold" font-size="8.00" fill="white">&lt;</text>
<text text-anchor="start" x="759" y="-570.033" font-family="Helvetica Italic" font-size="8.00" fill="white">StatusModel,TimeStampedModel</text>
<text text-anchor="start" x="878" y="-570.033" font-family="Helvetica Bold" font-size="8.00" fill="white">&gt;</text>
<text text-anchor="start" x="744" y="-554.133" font-family="Helvetica Bold" font-size="8.00" fill="#7b7b7b">id</text>
<text text-anchor="start" x="814" y="-554.133" font-family="Helvetica Bold" font-size="8.00" fill="#7b7b7b">AutoField</text>
<text text-anchor="start" x="744" y="-542.133" font-family="Helvetica Italic" font-size="8.00">created</text>
<text text-anchor="start" x="814" y="-542.133" font-family="Helvetica Italic" font-size="8.00">AutoCreatedField</text>
<text text-anchor="start" x="744" y="-530.133" font-family="Helvetica Italic" font-size="8.00">modified</text>
<text text-anchor="start" x="814" y="-530.133" font-family="Helvetica Italic" font-size="8.00">AutoLastModifiedField</text>
<text text-anchor="start" x="744" y="-518.133" font-family="Helvetica Italic" font-size="8.00">status</text>
<text text-anchor="start" x="814" y="-518.133" font-family="Helvetica Italic" font-size="8.00">StatusField</text>
<text text-anchor="start" x="744" y="-506.133" font-family="Helvetica Italic" font-size="8.00">status_changed</text>
<text text-anchor="start" x="814" y="-506.133" font-family="Helvetica Italic" font-size="8.00">MonitorField</text>
<text text-anchor="start" x="744" y="-494.133" font-family="Helvetica Bold" font-size="8.00" fill="#7b7b7b">description</text>
<text text-anchor="start" x="814" y="-494.133" font-family="Helvetica Bold" font-size="8.00" fill="#7b7b7b">TextField</text>
</g>
<!-- spike_core_evaluation_models_Batch&#45;&gt;spike_core_algorithm_models_Algorithm -->
<g id="edge22" class="edge"><title>spike_core_evaluation_models_Batch&#45;&gt;spike_core_algorithm_models_Algorithm</title>
<path fill="none" stroke="black" d="M863.77,-485.75C885.85,-459.58 912.27,-428.27 934.34,-402.12"/>
<text text-anchor="middle" x="933.5" y="-442.8" font-family="Helvetica,sans-Serif" font-size="8.00">algorithm (batch)</text>
</g>
<!-- spike_core_evaluation_models_Batch&#45;&gt;spike_data_models_Data -->
<g id="edge24" class="edge"><title>spike_core_evaluation_models_Batch&#45;&gt;spike_data_models_Data</title>
<path fill="none" stroke="black" stroke-dasharray="1,5" d="M819.34,-475.69C819.42,-407.45 815.25,-305.49 791,-276 773.59,-254.83 756.88,-269.51 732,-258 705.77,-245.87 678.76,-230 654.62,-214.41"/>
<polygon fill="black" stroke="black" points="815.839,-475.896 819.3,-485.91 822.839,-475.924 815.839,-475.896"/>
<polygon fill="black" stroke="black" points="656.488,-211.45 646.2,-208.92 652.665,-217.314 656.488,-211.45"/>
<text text-anchor="middle" x="852.5" y="-346.8" font-family="Helvetica,sans-Serif" font-size="8.00">datafile_set (batch)</text>
</g>
<!-- spike_core_evaluation_models_Batch&#45;&gt;django_contrib_auth_models_User -->
<g id="edge26" class="edge"><title>spike_core_evaluation_models_Batch&#45;&gt;django_contrib_auth_models_User</title>
<path fill="none" stroke="black" d="M902.12,-526.26C973.14,-510.91 1073.9,-479.9 1142,-420 1203.1,-366.32 1207.5,-336.95 1227,-258 1234.8,-226.42 1211.2,-193.7 1193,-174.1"/>
<text text-anchor="middle" x="1247.5" y="-346.8" font-family="Helvetica,sans-Serif" font-size="8.00">owner (batch)</text>
</g>
<!-- spike_core_evaluation_models_Batch&#45;&gt;spike_core_benchmark_models_Benchmark -->
<g id="edge28" class="edge"><title>spike_core_evaluation_models_Batch&#45;&gt;spike_core_benchmark_models_Benchmark</title>
<path fill="none" stroke="black" d="M762.39,-485.53C752.78,-474.37 743.49,-462.27 736,-450 730.34,-440.72 725.31,-430.47 720.9,-420.14"/>
<text text-anchor="middle" x="770" y="-442.8" font-family="Helvetica,sans-Serif" font-size="8.00">benchmark (batch)</text>
</g>
<!-- spike_core_evaluation_models_Evaluation -->
<g id="node25" class="node"><title>spike_core_evaluation_models_Evaluation</title>
<polygon fill="palegoldenrod" stroke="palegoldenrod" points="455.5,-664 455.5,-788 608.5,-788 608.5,-664 455.5,-664"/>
<polygon fill="#698b22" stroke="#698b22" points="456,-760 456,-788 609,-788 609,-760 456,-760"/>
<text text-anchor="start" x="511" y="-777.633" font-family="Helvetica Bold" font-size="8.00" fill="white">Evaluation</text>
<text text-anchor="start" x="468" y="-768.033" font-family="Helvetica Bold" font-size="8.00" fill="white">&lt;</text>
<text text-anchor="start" x="473" y="-768.033" font-family="Helvetica Italic" font-size="8.00" fill="white">StatusModel,TimeStampedModel</text>
<text text-anchor="start" x="592" y="-768.033" font-family="Helvetica Bold" font-size="8.00" fill="white">&gt;</text>
<text text-anchor="start" x="458" y="-752.133" font-family="Helvetica Bold" font-size="8.00" fill="#7b7b7b">id</text>
<text text-anchor="start" x="528" y="-752.133" font-family="Helvetica Bold" font-size="8.00" fill="#7b7b7b">AutoField</text>
<text text-anchor="start" x="458" y="-740.133" font-family="Helvetica Italic" font-size="8.00">created</text>
<text text-anchor="start" x="528" y="-740.133" font-family="Helvetica Italic" font-size="8.00">AutoCreatedField</text>
<text text-anchor="start" x="458" y="-728.133" font-family="Helvetica Italic" font-size="8.00">modified</text>
<text text-anchor="start" x="528" y="-728.133" font-family="Helvetica Italic" font-size="8.00">AutoLastModifiedField</text>
<text text-anchor="start" x="458" y="-716.133" font-family="Helvetica Italic" font-size="8.00">status</text>
<text text-anchor="start" x="528" y="-716.133" font-family="Helvetica Italic" font-size="8.00">StatusField</text>
<text text-anchor="start" x="458" y="-704.133" font-family="Helvetica Italic" font-size="8.00">status_changed</text>
<text text-anchor="start" x="528" y="-704.133" font-family="Helvetica Italic" font-size="8.00">MonitorField</text>
<text text-anchor="start" x="458" y="-692.133" font-family="Helvetica Bold" font-size="8.00" fill="#7b7b7b">task_id</text>
<text text-anchor="start" x="528" y="-692.133" font-family="Helvetica Bold" font-size="8.00" fill="#7b7b7b">CharField</text>
<text text-anchor="start" x="458" y="-680.133" font-family="Helvetica Bold" font-size="8.00" fill="#7b7b7b">task_log</text>
<text text-anchor="start" x="528" y="-680.133" font-family="Helvetica Bold" font-size="8.00" fill="#7b7b7b">TextField</text>
<text text-anchor="start" x="458" y="-668.133" font-family="Helvetica Bold" font-size="8.00" fill="#7b7b7b">valid_ev_log</text>
<text text-anchor="start" x="528" y="-668.133" font-family="Helvetica Bold" font-size="8.00" fill="#7b7b7b">TextField</text>
</g>
<!-- spike_core_evaluation_models_Evaluation&#45;&gt;spike_data_models_Data -->
<g id="edge34" class="edge"><title>spike_core_evaluation_models_Evaluation&#45;&gt;spike_data_models_Data</title>
<path fill="none" stroke="black" stroke-dasharray="1,5" d="M512.14,-650.17C499.39,-592.13 486.66,-510.07 495,-438 503.5,-364.54 512.84,-347.15 533,-276 536.53,-263.54 540.56,-250.45 544.66,-237.69"/>
<polygon fill="black" stroke="black" points="508.742,-651.011 514.35,-660 515.571,-649.476 508.742,-651.011"/>
<polygon fill="black" stroke="black" points="548.044,-238.602 547.81,-228.01 541.387,-236.436 548.044,-238.602"/>
<text text-anchor="middle" x="537.5" y="-442.8" font-family="Helvetica,sans-Serif" font-size="8.00">datafile_set (evaluation)</text>
</g>
<!-- spike_core_evaluation_models_Evaluation&#45;&gt;spike_core_benchmark_models_Trial -->
<g id="edge30" class="edge"><title>spike_core_evaluation_models_Evaluation&#45;&gt;spike_core_benchmark_models_Trial</title>
<path fill="none" stroke="black" d="M556.88,-659.9C562.69,-644.45 568.92,-627.91 574.83,-612.2"/>
<text text-anchor="middle" x="596" y="-634.8" font-family="Helvetica,sans-Serif" font-size="8.00">trial (evaluation)</text>
</g>
<!-- spike_core_evaluation_models_Evaluation&#45;&gt;spike_core_evaluation_models_Batch -->
<g id="edge32" class="edge"><title>spike_core_evaluation_models_Evaluation&#45;&gt;spike_core_evaluation_models_Batch</title>
<path fill="none" stroke="black" d="M616.26,-671.2C653.67,-646.87 697.56,-618.33 734.83,-594.09"/>
<text text-anchor="middle" x="707" y="-634.8" font-family="Helvetica,sans-Serif" font-size="8.00">batch (evaluation)</text>
</g>
<!-- spike_log_models_Log -->
<g id="node29" class="node"><title>spike_log_models_Log</title>
<polygon fill="palegoldenrod" stroke="palegoldenrod" points="344,-106 344,-206 474,-206 474,-106 344,-106"/>
<polygon fill="#698b22" stroke="#698b22" points="344,-178 344,-206 474,-206 474,-178 344,-178"/>
<text text-anchor="start" x="401" y="-195.633" font-family="Helvetica Bold" font-size="8.00" fill="white">Log</text>
<text text-anchor="start" x="367.5" y="-186.033" font-family="Helvetica Bold" font-size="8.00" fill="white">&lt;</text>
<text text-anchor="start" x="372.5" y="-186.033" font-family="Helvetica Italic" font-size="8.00" fill="white">TimeStampedModel</text>
<text text-anchor="start" x="445.5" y="-186.033" font-family="Helvetica Bold" font-size="8.00" fill="white">&gt;</text>
<text text-anchor="start" x="346" y="-170.133" font-family="Helvetica Bold" font-size="8.00" fill="#7b7b7b">id</text>
<text text-anchor="start" x="393" y="-170.133" font-family="Helvetica Bold" font-size="8.00" fill="#7b7b7b">AutoField</text>
<text text-anchor="start" x="346" y="-158.133" font-family="Helvetica Italic" font-size="8.00">created</text>
<text text-anchor="start" x="393" y="-158.133" font-family="Helvetica Italic" font-size="8.00">AutoCreatedField</text>
<text text-anchor="start" x="346" y="-146.133" font-family="Helvetica Italic" font-size="8.00">modified</text>
<text text-anchor="start" x="393" y="-146.133" font-family="Helvetica Italic" font-size="8.00">AutoLastModifiedField</text>
<text text-anchor="start" x="346" y="-134.133" font-family="Helvetica Bold" font-size="8.00">text</text>
<text text-anchor="start" x="393" y="-134.133" font-family="Helvetica Bold" font-size="8.00">TextField</text>
<text text-anchor="start" x="346" y="-122.133" font-family="Helvetica Bold" font-size="8.00" fill="#7b7b7b">kind</text>
<text text-anchor="start" x="393" y="-122.133" font-family="Helvetica Bold" font-size="8.00" fill="#7b7b7b">TextField</text>
<text text-anchor="start" x="346" y="-110.133" font-family="Helvetica Bold" font-size="8.00">object_id</text>
<text text-anchor="start" x="393" y="-110.133" font-family="Helvetica Bold" font-size="8.00">PositiveIntegerField</text>
</g>
<!-- spike_log_models_Log&#45;&gt;django_contrib_contenttypes_models_ContentType -->
<g id="edge36" class="edge"><title>spike_log_models_Log&#45;&gt;django_contrib_contenttypes_models_ContentType</title>
<path fill="none" stroke="black" d="M427.15,-101.82C433.11,-86.079 440.22,-69.077 448,-54 451.1,-47.993 454.99,-41.76 458.73,-36.203"/>
<text text-anchor="middle" x="480.5" y="-58.8" font-family="Helvetica,sans-Serif" font-size="8.00">content_type (log)</text>
</g>
<!-- spike_metric_models_Metric -->
<g id="node31" class="node"><title>spike_metric_models_Metric</title>
<polygon fill="palegoldenrod" stroke="palegoldenrod" points="250,-472 250,-608 384,-608 384,-472 250,-472"/>
<polygon fill="#698b22" stroke="#698b22" points="250,-580 250,-608 384,-608 384,-580 250,-580"/>
<text text-anchor="start" x="304.5" y="-597.633" font-family="Helvetica Bold" font-size="8.00" fill="white">Metric</text>
<text text-anchor="start" x="275.5" y="-588.033" font-family="Helvetica Bold" font-size="8.00" fill="white">&lt;</text>
<text text-anchor="start" x="280.5" y="-588.033" font-family="Helvetica Italic" font-size="8.00" fill="white">TimeStampedModel</text>
<text text-anchor="start" x="353.5" y="-588.033" font-family="Helvetica Bold" font-size="8.00" fill="white">&gt;</text>
<text text-anchor="start" x="252" y="-572.133" font-family="Helvetica Bold" font-size="8.00" fill="#7b7b7b">id</text>
<text text-anchor="start" x="303" y="-572.133" font-family="Helvetica Bold" font-size="8.00" fill="#7b7b7b">AutoField</text>
<text text-anchor="start" x="252" y="-560.133" font-family="Helvetica Italic" font-size="8.00">created</text>
<text text-anchor="start" x="303" y="-560.133" font-family="Helvetica Italic" font-size="8.00">AutoCreatedField</text>
<text text-anchor="start" x="252" y="-548.133" font-family="Helvetica Italic" font-size="8.00">modified</text>
<text text-anchor="start" x="303" y="-548.133" font-family="Helvetica Italic" font-size="8.00">AutoLastModifiedField</text>
<text text-anchor="start" x="252" y="-536.133" font-family="Helvetica Bold" font-size="8.00">name</text>
<text text-anchor="start" x="303" y="-536.133" font-family="Helvetica Bold" font-size="8.00">CharField</text>
<text text-anchor="start" x="252" y="-524.133" font-family="Helvetica Bold" font-size="8.00" fill="#7b7b7b">version</text>
<text text-anchor="start" x="303" y="-524.133" font-family="Helvetica Bold" font-size="8.00" fill="#7b7b7b">CharField</text>
<text text-anchor="start" x="252" y="-512.133" font-family="Helvetica Bold" font-size="8.00" fill="#7b7b7b">description</text>
<text text-anchor="start" x="303" y="-512.133" font-family="Helvetica Bold" font-size="8.00" fill="#7b7b7b">TextField</text>
<text text-anchor="start" x="252" y="-500.133" font-family="Helvetica Bold" font-size="8.00">exec_name</text>
<text text-anchor="start" x="303" y="-500.133" font-family="Helvetica Bold" font-size="8.00">TextField</text>
<text text-anchor="start" x="252" y="-488.133" font-family="Helvetica Bold" font-size="8.00" fill="#7b7b7b">temp_name</text>
<text text-anchor="start" x="303" y="-488.133" font-family="Helvetica Bold" font-size="8.00" fill="#7b7b7b">TextField</text>
<text text-anchor="start" x="252" y="-476.133" font-family="Helvetica Bold" font-size="8.00" fill="#7b7b7b">rest_name</text>
<text text-anchor="start" x="303" y="-476.133" font-family="Helvetica Bold" font-size="8.00" fill="#7b7b7b">TextField</text>
</g>
<!-- spike_metric_models_Metric&#45;&gt;spike_data_models_Data -->
<g id="edge40" class="edge"><title>spike_metric_models_Metric&#45;&gt;spike_data_models_Data</title>
<path fill="none" stroke="black" stroke-dasharray="1,5" d="M331.94,-458.07C345.49,-402.01 370.12,-328.6 413,-276 438.72,-244.45 458.26,-252.18 491,-228 491.18,-227.87 491.36,-227.73 491.54,-227.6"/>
<polygon fill="black" stroke="black" points="328.492,-457.445 329.62,-467.98 335.307,-459.041 328.492,-457.445"/>
<polygon fill="black" stroke="black" points="493.89,-230.21 499.73,-221.37 489.652,-224.639 493.89,-230.21"/>
<text text-anchor="middle" x="448.5" y="-346.8" font-family="Helvetica,sans-Serif" font-size="8.00">datafile_set (metric)</text>
</g>
<!-- spike_metric_models_Metric&#45;&gt;spike_core_benchmark_models_Benchmark -->
<g id="edge42" class="edge"><title>spike_metric_models_Metric&#45;&gt;spike_core_benchmark_models_Benchmark</title>
<path fill="none" stroke="black" d="M370.28,-461.85C379.8,-452.47 390.42,-444.08 402,-438 480.24,-396.93 517.37,-451.31 600,-420 602.17,-419.18 604.34,-418.29 606.5,-417.35"/>
<ellipse fill="black" stroke="black" cx="367.285" cy="-464.939" rx="4.00002" ry="4.00002"/>
<ellipse fill="black" stroke="black" cx="610.185" cy="-415.631" rx="4.00002" ry="4.00002"/>
<text text-anchor="middle" x="439" y="-442.8" font-family="Helvetica,sans-Serif" font-size="8.00">benchmarks (metric)</text>
</g>
<!-- spike_metric_models_Metric&#45;&gt;spike_metric_models_Metric -->
<g id="edge38" class="edge"><title>spike_metric_models_Metric&#45;&gt;spike_metric_models_Metric</title>
<path fill="none" stroke="black" d="M392.17,-556.15C402.84,-553.54 410,-548.16 410,-540 410,-531.84 402.84,-526.46 392.17,-523.85"/>
<text text-anchor="middle" x="440" y="-538.8" font-family="Helvetica,sans-Serif" font-size="8.00">parent (children)</text>
</g>
<!-- spike_metric_models_Result -->
<g id="node35" class="node"><title>spike_metric_models_Result</title>
<polygon fill="palegoldenrod" stroke="palegoldenrod" points="338,-844 338,-908 468,-908 468,-844 338,-844"/>
<polygon fill="#698b22" stroke="#698b22" points="338,-880 338,-908 468,-908 468,-880 338,-880"/>
<text text-anchor="start" x="390" y="-897.633" font-family="Helvetica Bold" font-size="8.00" fill="white">Result</text>
<text text-anchor="start" x="361.5" y="-888.033" font-family="Helvetica Bold" font-size="8.00" fill="white">&lt;</text>
<text text-anchor="start" x="366.5" y="-888.033" font-family="Helvetica Italic" font-size="8.00" fill="white">TimeStampedModel</text>
<text text-anchor="start" x="439.5" y="-888.033" font-family="Helvetica Bold" font-size="8.00" fill="white">&gt;</text>
<text text-anchor="start" x="340" y="-872.133" font-family="Helvetica Bold" font-size="8.00" fill="#7b7b7b">id</text>
<text text-anchor="start" x="387" y="-872.133" font-family="Helvetica Bold" font-size="8.00" fill="#7b7b7b">AutoField</text>
<text text-anchor="start" x="340" y="-860.133" font-family="Helvetica Italic" font-size="8.00">created</text>
<text text-anchor="start" x="387" y="-860.133" font-family="Helvetica Italic" font-size="8.00">AutoCreatedField</text>
<text text-anchor="start" x="340" y="-848.133" font-family="Helvetica Italic" font-size="8.00">modified</text>
<text text-anchor="start" x="387" y="-848.133" font-family="Helvetica Italic" font-size="8.00">AutoLastModifiedField</text>
</g>
<!-- spike_metric_models_Result&#45;&gt;spike_core_evaluation_models_Evaluation -->
<g id="edge46" class="edge"><title>spike_metric_models_Result&#45;&gt;spike_core_evaluation_models_Evaluation</title>
<path fill="none" stroke="black" d="M434.23,-839.69C446.53,-825.38 461.06,-808.49 475.1,-792.16"/>
<text text-anchor="middle" x="487" y="-814.8" font-family="Helvetica,sans-Serif" font-size="8.00">evaluation (result)</text>
</g>
<!-- spike_metric_models_Result&#45;&gt;spike_metric_models_Metric -->
<g id="edge44" class="edge"><title>spike_metric_models_Result&#45;&gt;spike_metric_models_Metric</title>
<path fill="none" stroke="black" d="M393.71,-839.72C379.84,-785.51 353.41,-682.24 335.49,-612.25"/>
<text text-anchor="middle" x="405" y="-724.8" font-family="Helvetica,sans-Serif" font-size="8.00">metric (result)</text>
</g>
</g>
</svg>
