<?xml version="1.0" encoding="UTF-8" standalone="no"?>
<!DOCTYPE svg PUBLIC "-//W3C//DTD SVG 1.1//EN"
 "http://www.w3.org/Graphics/SVG/1.1/DTD/svg11.dtd">
<!-- Generated by graphviz version 2.26.3 (20100126.1600)
 -->
<!-- Title: name Pages: 1 -->
<svg width="1133pt" height="1042pt"
 viewBox="0.00 0.00 1133.00 1042.00" xmlns="http://www.w3.org/2000/svg" xmlns:xlink="http://www.w3.org/1999/xlink">
<g id="graph1" class="graph" transform="scale(1 1) rotate(0) translate(4 1038)">
<title>name</title>
<polygon fill="white" stroke="white" points="-4,5 -4,-1038 1130,-1038 1130,5 -4,5"/>
<!-- model_utils_models_TimeStampedModel -->
<g id="node1" class="node"><title>model_utils_models_TimeStampedModel</title>
<polygon fill="palegoldenrod" stroke="palegoldenrod" points="394.5,-916.5 394.5,-957.5 533.5,-957.5 533.5,-916.5 394.5,-916.5"/>
<polygon fill="#698b22" stroke="#698b22" points="395,-940 395,-957 534,-957 534,-940 395,-940"/>
<text text-anchor="start" x="425.5" y="-946.633" font-family="Helvetica Bold" font-size="8.00" fill="white">TimeStampedModel</text>
<text text-anchor="start" x="397" y="-932.133" font-family="Helvetica Bold" font-size="8.00">created</text>
<text text-anchor="start" x="441" y="-932.133" font-family="Helvetica Bold" font-size="8.00">AutoCreatedField</text>
<text text-anchor="start" x="397" y="-920.133" font-family="Helvetica Bold" font-size="8.00">modified</text>
<text text-anchor="start" x="441" y="-920.133" font-family="Helvetica Bold" font-size="8.00">AutoLastModifiedField</text>
</g>
<!-- model_utils_models_StatusModel -->
<g id="node2" class="node"><title>model_utils_models_StatusModel</title>
<polygon fill="palegoldenrod" stroke="palegoldenrod" points="567,-916.5 567,-957.5 691,-957.5 691,-916.5 567,-916.5"/>
<polygon fill="#698b22" stroke="#698b22" points="567,-940 567,-957 691,-957 691,-940 567,-940"/>
<text text-anchor="start" x="604" y="-946.633" font-family="Helvetica Bold" font-size="8.00" fill="white">StatusModel</text>
<text text-anchor="start" x="569" y="-932.133" font-family="Helvetica Bold" font-size="8.00">status</text>
<text text-anchor="start" x="638" y="-932.133" font-family="Helvetica Bold" font-size="8.00">StatusField</text>
<text text-anchor="start" x="569" y="-920.133" font-family="Helvetica Bold" font-size="8.00">status_changed</text>
<text text-anchor="start" x="638" y="-920.133" font-family="Helvetica Bold" font-size="8.00">MonitorField</text>
</g>
<!-- spike_algorithm_models_Algorithm -->
<g id="node3" class="node"><title>spike_algorithm_models_Algorithm</title>
<polygon fill="palegoldenrod" stroke="palegoldenrod" points="129,-292 129,-392 263,-392 263,-292 129,-292"/>
<polygon fill="#698b22" stroke="#698b22" points="129,-364 129,-392 263,-392 263,-364 129,-364"/>
<text text-anchor="start" x="176" y="-381.633" font-family="Helvetica Bold" font-size="8.00" fill="white">Algorithm</text>
<text text-anchor="start" x="154.5" y="-372.033" font-family="Helvetica Bold" font-size="8.00" fill="white">&lt;</text>
<text text-anchor="start" x="159.5" y="-372.033" font-family="Helvetica Italic" font-size="8.00" fill="white">TimeStampedModel</text>
<text text-anchor="start" x="232.5" y="-372.033" font-family="Helvetica Bold" font-size="8.00" fill="white">&gt;</text>
<text text-anchor="start" x="131" y="-356.133" font-family="Helvetica Bold" font-size="8.00" fill="#7b7b7b">id</text>
<text text-anchor="start" x="182" y="-356.133" font-family="Helvetica Bold" font-size="8.00" fill="#7b7b7b">AutoField</text>
<text text-anchor="start" x="131" y="-344.133" font-family="Helvetica Italic" font-size="8.00">created</text>
<text text-anchor="start" x="182" y="-344.133" font-family="Helvetica Italic" font-size="8.00">AutoCreatedField</text>
<text text-anchor="start" x="131" y="-332.133" font-family="Helvetica Italic" font-size="8.00">modified</text>
<text text-anchor="start" x="182" y="-332.133" font-family="Helvetica Italic" font-size="8.00">AutoLastModifiedField</text>
<text text-anchor="start" x="131" y="-320.133" font-family="Helvetica Bold" font-size="8.00">name</text>
<text text-anchor="start" x="182" y="-320.133" font-family="Helvetica Bold" font-size="8.00">CharField</text>
<text text-anchor="start" x="131" y="-308.133" font-family="Helvetica Bold" font-size="8.00">version</text>
<text text-anchor="start" x="182" y="-308.133" font-family="Helvetica Bold" font-size="8.00">CharField</text>
<text text-anchor="start" x="131" y="-296.133" font-family="Helvetica Bold" font-size="8.00" fill="#7b7b7b">description</text>
<text text-anchor="start" x="182" y="-296.133" font-family="Helvetica Bold" font-size="8.00" fill="#7b7b7b">TextField</text>
</g>
<!-- spike_algorithm_models_Algorithm&#45;&gt;spike_algorithm_models_Algorithm -->
<g id="edge8" class="edge"><title>spike_algorithm_models_Algorithm&#45;&gt;spike_algorithm_models_Algorithm</title>
<path fill="none" stroke="black" d="M271.17,-357.14C281.84,-354.69 289,-349.65 289,-342 289,-334.35 281.84,-329.31 271.17,-326.86"/>
<text text-anchor="middle" x="319" y="-340.8" font-family="Helvetica,sans-Serif" font-size="8.00">parent (children)</text>
</g>
<!-- spike_data_models_Data -->
<g id="node4" class="node"><title>spike_data_models_Data</title>
<polygon fill="palegoldenrod" stroke="palegoldenrod" points="587,-88 587,-224 717,-224 717,-88 587,-88"/>
<polygon fill="#698b22" stroke="#698b22" points="587,-196 587,-224 717,-224 717,-196 587,-196"/>
<text text-anchor="start" x="642.5" y="-213.633" font-family="Helvetica Bold" font-size="8.00" fill="white">Data</text>
<text text-anchor="start" x="610.5" y="-204.033" font-family="Helvetica Bold" font-size="8.00" fill="white">&lt;</text>
<text text-anchor="start" x="615.5" y="-204.033" font-family="Helvetica Italic" font-size="8.00" fill="white">TimeStampedModel</text>
<text text-anchor="start" x="688.5" y="-204.033" font-family="Helvetica Bold" font-size="8.00" fill="white">&gt;</text>
<text text-anchor="start" x="589" y="-188.133" font-family="Helvetica Bold" font-size="8.00" fill="#7b7b7b">id</text>
<text text-anchor="start" x="636" y="-188.133" font-family="Helvetica Bold" font-size="8.00" fill="#7b7b7b">AutoField</text>
<text text-anchor="start" x="589" y="-176.133" font-family="Helvetica Italic" font-size="8.00">created</text>
<text text-anchor="start" x="636" y="-176.133" font-family="Helvetica Italic" font-size="8.00">AutoCreatedField</text>
<text text-anchor="start" x="589" y="-164.133" font-family="Helvetica Italic" font-size="8.00">modified</text>
<text text-anchor="start" x="636" y="-164.133" font-family="Helvetica Italic" font-size="8.00">AutoLastModifiedField</text>
<text text-anchor="start" x="589" y="-152.133" font-family="Helvetica Bold" font-size="8.00">name</text>
<text text-anchor="start" x="636" y="-152.133" font-family="Helvetica Bold" font-size="8.00">CharField</text>
<text text-anchor="start" x="589" y="-140.133" font-family="Helvetica Bold" font-size="8.00" fill="#7b7b7b">ext</text>
<text text-anchor="start" x="636" y="-140.133" font-family="Helvetica Bold" font-size="8.00" fill="#7b7b7b">CharField</text>
<text text-anchor="start" x="589" y="-128.133" font-family="Helvetica Bold" font-size="8.00" fill="#7b7b7b">sha1</text>
<text text-anchor="start" x="636" y="-128.133" font-family="Helvetica Bold" font-size="8.00" fill="#7b7b7b">CharField</text>
<text text-anchor="start" x="589" y="-116.133" font-family="Helvetica Bold" font-size="8.00">file</text>
<text text-anchor="start" x="636" y="-116.133" font-family="Helvetica Bold" font-size="8.00">FileField</text>
<text text-anchor="start" x="589" y="-104.133" font-family="Helvetica Bold" font-size="8.00" fill="#7b7b7b">kind</text>
<text text-anchor="start" x="636" y="-104.133" font-family="Helvetica Bold" font-size="8.00" fill="#7b7b7b">TextField</text>
<text text-anchor="start" x="589" y="-92.1333" font-family="Helvetica Bold" font-size="8.00">object_id</text>
<text text-anchor="start" x="636" y="-92.1333" font-family="Helvetica Bold" font-size="8.00">PositiveIntegerField</text>
</g>
<!-- spike_algorithm_models_Algorithm&#45;&gt;spike_data_models_Data -->
<g id="edge2" class="edge"><title>spike_algorithm_models_Algorithm&#45;&gt;spike_data_models_Data</title>
<path fill="none" stroke="black" stroke-dasharray="1,5" d="M280.58,-305.68C305.34,-295.56 332.58,-284.9 358,-276 384.68,-266.66 392.24,-267.11 419,-258 432.99,-253.24 435.72,-249.79 450,-246 502.13,-232.18 521.09,-250.71 570,-228 570.09,-227.96 570.19,-227.91 570.28,-227.87"/>
<polygon fill="black" stroke="black" points="279.137,-302.489 271.22,-309.53 281.8,-308.963 279.137,-302.489"/>
<polygon fill="black" stroke="black" points="571.653,-231.1 578.93,-223.4 568.439,-224.882 571.653,-231.1"/>
<text text-anchor="middle" x="491" y="-250.8" font-family="Helvetica,sans-Serif" font-size="8.00">datafile_set (algorithm)</text>
</g>
<!-- django_contrib_auth_models_User -->
<g id="node6" class="node"><title>django_contrib_auth_models_User</title>
<polygon fill="palegoldenrod" stroke="palegoldenrod" points="12.5,-147.5 12.5,-164.5 41.5,-164.5 41.5,-147.5 12.5,-147.5"/>
<polygon fill="#698b22" stroke="#698b22" points="13,-147 13,-164 42,-164 42,-147 13,-147"/>
<text text-anchor="start" x="18" y="-153.633" font-family="Helvetica Bold" font-size="8.00" fill="white">User</text>
</g>
<!-- spike_algorithm_models_Algorithm&#45;&gt;django_contrib_auth_models_User -->
<g id="edge4" class="edge"><title>spike_algorithm_models_Algorithm&#45;&gt;django_contrib_auth_models_User</title>
<path fill="none" stroke="black" d="M120.9,-308.83C78.866,-289.51 33.745,-267.2 28,-258 12.047,-232.47 16.841,-195.87 21.862,-174.16"/>
<text text-anchor="middle" x="60" y="-250.8" font-family="Helvetica,sans-Serif" font-size="8.00">owner (algorithm)</text>
</g>
<!-- taggit_models_TaggedItem -->
<g id="node8" class="node"><title>taggit_models_TaggedItem</title>
<polygon fill="palegoldenrod" stroke="palegoldenrod" points="236.5,-147.5 236.5,-164.5 293.5,-164.5 293.5,-147.5 236.5,-147.5"/>
<polygon fill="#698b22" stroke="#698b22" points="237,-147 237,-164 294,-164 294,-147 237,-147"/>
<text text-anchor="start" x="242" y="-153.633" font-family="Helvetica Bold" font-size="8.00" fill="white">TaggedItem</text>
</g>
<!-- spike_algorithm_models_Algorithm&#45;&gt;taggit_models_TaggedItem -->
<g id="edge6" class="edge"><title>spike_algorithm_models_Algorithm&#45;&gt;taggit_models_TaggedItem</title>
<path fill="none" stroke="black" stroke-dasharray="1,5" d="M200.82,-278.05C202.72,-267.17 205.36,-256.12 209,-246 217.28,-223 232.05,-199.63 244.34,-182.48"/>
<polygon fill="black" stroke="black" points="197.354,-277.56 199.27,-287.98 204.27,-278.639 197.354,-277.56"/>
<polygon fill="black" stroke="black" points="247.389,-184.241 250.49,-174.11 241.748,-180.096 247.389,-184.241"/>
<text text-anchor="middle" x="254" y="-250.8" font-family="Helvetica,sans-Serif" font-size="8.00">tagged_items (algorithm)</text>
</g>
<!-- django_contrib_contenttypes_models_ContentType -->
<g id="node11" class="node"><title>django_contrib_contenttypes_models_ContentType</title>
<polygon fill="palegoldenrod" stroke="palegoldenrod" points="520.5,-9.5 520.5,-26.5 581.5,-26.5 581.5,-9.5 520.5,-9.5"/>
<polygon fill="#698b22" stroke="#698b22" points="521,-9 521,-26 582,-26 582,-9 521,-9"/>
<text text-anchor="start" x="525.5" y="-15.6333" font-family="Helvetica Bold" font-size="8.00" fill="white">ContentType</text>
</g>
<!-- spike_data_models_Data&#45;&gt;django_contrib_contenttypes_models_ContentType -->
<g id="edge10" class="edge"><title>spike_data_models_Data&#45;&gt;django_contrib_contenttypes_models_ContentType</title>
<path fill="none" stroke="black" d="M613.47,-83.814C606.83,-73.44 599.59,-63.183 592,-54 586.81,-47.722 580.48,-41.6 574.36,-36.236"/>
<text text-anchor="middle" x="634" y="-58.8" font-family="Helvetica,sans-Serif" font-size="8.00">content_type (data)</text>
</g>
<!-- spike_benchmark_models_Benchmark -->
<g id="node13" class="node"><title>spike_benchmark_models_Benchmark</title>
<polygon fill="palegoldenrod" stroke="palegoldenrod" points="374.5,-280 374.5,-404 527.5,-404 527.5,-280 374.5,-280"/>
<polygon fill="#698b22" stroke="#698b22" points="375,-376 375,-404 528,-404 528,-376 375,-376"/>
<text text-anchor="start" x="429" y="-393.633" font-family="Helvetica Bold" font-size="8.00" fill="white">Benchmark</text>
<text text-anchor="start" x="387" y="-384.033" font-family="Helvetica Bold" font-size="8.00" fill="white">&lt;</text>
<text text-anchor="start" x="392" y="-384.033" font-family="Helvetica Italic" font-size="8.00" fill="white">StatusModel,TimeStampedModel</text>
<text text-anchor="start" x="511" y="-384.033" font-family="Helvetica Bold" font-size="8.00" fill="white">&gt;</text>
<text text-anchor="start" x="377" y="-368.133" font-family="Helvetica Bold" font-size="8.00" fill="#7b7b7b">id</text>
<text text-anchor="start" x="447" y="-368.133" font-family="Helvetica Bold" font-size="8.00" fill="#7b7b7b">AutoField</text>
<text text-anchor="start" x="377" y="-356.133" font-family="Helvetica Italic" font-size="8.00">created</text>
<text text-anchor="start" x="447" y="-356.133" font-family="Helvetica Italic" font-size="8.00">AutoCreatedField</text>
<text text-anchor="start" x="377" y="-344.133" font-family="Helvetica Italic" font-size="8.00">modified</text>
<text text-anchor="start" x="447" y="-344.133" font-family="Helvetica Italic" font-size="8.00">AutoLastModifiedField</text>
<text text-anchor="start" x="377" y="-332.133" font-family="Helvetica Italic" font-size="8.00">status</text>
<text text-anchor="start" x="447" y="-332.133" font-family="Helvetica Italic" font-size="8.00">StatusField</text>
<text text-anchor="start" x="377" y="-320.133" font-family="Helvetica Italic" font-size="8.00">status_changed</text>
<text text-anchor="start" x="447" y="-320.133" font-family="Helvetica Italic" font-size="8.00">MonitorField</text>
<text text-anchor="start" x="377" y="-308.133" font-family="Helvetica Bold" font-size="8.00">name</text>
<text text-anchor="start" x="447" y="-308.133" font-family="Helvetica Bold" font-size="8.00">CharField</text>
<text text-anchor="start" x="377" y="-296.133" font-family="Helvetica Bold" font-size="8.00" fill="#7b7b7b">description</text>
<text text-anchor="start" x="447" y="-296.133" font-family="Helvetica Bold" font-size="8.00" fill="#7b7b7b">TextField</text>
<text text-anchor="start" x="377" y="-284.133" font-family="Helvetica Bold" font-size="8.00">parameter</text>
<text text-anchor="start" x="447" y="-284.133" font-family="Helvetica Bold" font-size="8.00">CharField</text>
</g>
<!-- spike_benchmark_models_Benchmark&#45;&gt;spike_data_models_Data -->
<g id="edge12" class="edge"><title>spike_benchmark_models_Benchmark&#45;&gt;spike_data_models_Data</title>
<path fill="none" stroke="black" stroke-dasharray="1,5" d="M522.46,-268.66C530.61,-260.87 538.89,-253.18 547,-246 556.72,-237.39 560.01,-236.29 570,-228 570.36,-227.7 570.73,-227.39 571.1,-227.09"/>
<polygon fill="black" stroke="black" points="519.789,-266.374 515.03,-275.84 524.653,-271.408 519.789,-266.374"/>
<polygon fill="black" stroke="black" points="573.448,-229.688 578.86,-220.58 568.949,-224.326 573.448,-229.688"/>
<text text-anchor="middle" x="586.5" y="-250.8" font-family="Helvetica,sans-Serif" font-size="8.00">data_set (benchmark)</text>
</g>
<!-- spike_benchmark_models_Benchmark&#45;&gt;django_contrib_auth_models_User -->
<g id="edge14" class="edge"><title>spike_benchmark_models_Benchmark&#45;&gt;django_contrib_auth_models_User</title>
<path fill="none" stroke="black" d="M366.9,-279.59C363.95,-278.28 360.98,-277.08 358,-276 262.44,-241.34 222.41,-300.34 130,-258 89.733,-239.55 56.149,-198.26 39.092,-174.25"/>
<text text-anchor="middle" x="165.5" y="-250.8" font-family="Helvetica,sans-Serif" font-size="8.00">owner (benchmark)</text>
</g>
<!-- spike_benchmark_models_Benchmark&#45;&gt;taggit_models_TaggedItem -->
<g id="edge16" class="edge"><title>spike_benchmark_models_Benchmark&#45;&gt;taggit_models_TaggedItem</title>
<path fill="none" stroke="black" stroke-dasharray="1,5" d="M358.28,-276.17C358.19,-276.11 358.09,-276.06 358,-276 342.66,-266.8 334.94,-270.36 322,-258 300.15,-237.13 284.43,-206.01 275.1,-183.64"/>
<polygon fill="black" stroke="black" points="356.628,-279.263 366.98,-281.52 360.295,-273.3 356.628,-279.263"/>
<polygon fill="black" stroke="black" points="278.344,-182.325 271.38,-174.34 271.844,-184.925 278.344,-182.325"/>
<text text-anchor="middle" x="370.5" y="-250.8" font-family="Helvetica,sans-Serif" font-size="8.00">tagged_items (benchmark)</text>
</g>
<!-- spike_benchmark_models_Trial -->
<g id="node17" class="node"><title>spike_benchmark_models_Trial</title>
<polygon fill="palegoldenrod" stroke="palegoldenrod" points="607.5,-460 607.5,-608 744.5,-608 744.5,-460 607.5,-460"/>
<polygon fill="#698b22" stroke="#698b22" points="608,-580 608,-608 745,-608 745,-580 608,-580"/>
<text text-anchor="start" x="667.5" y="-597.633" font-family="Helvetica Bold" font-size="8.00" fill="white">Trial</text>
<text text-anchor="start" x="635" y="-588.033" font-family="Helvetica Bold" font-size="8.00" fill="white">&lt;</text>
<text text-anchor="start" x="640" y="-588.033" font-family="Helvetica Italic" font-size="8.00" fill="white">TimeStampedModel</text>
<text text-anchor="start" x="713" y="-588.033" font-family="Helvetica Bold" font-size="8.00" fill="white">&gt;</text>
<text text-anchor="start" x="610" y="-572.133" font-family="Helvetica Bold" font-size="8.00" fill="#7b7b7b">id</text>
<text text-anchor="start" x="664" y="-572.133" font-family="Helvetica Bold" font-size="8.00" fill="#7b7b7b">AutoField</text>
<text text-anchor="start" x="610" y="-560.133" font-family="Helvetica Italic" font-size="8.00">created</text>
<text text-anchor="start" x="664" y="-560.133" font-family="Helvetica Italic" font-size="8.00">AutoCreatedField</text>
<text text-anchor="start" x="610" y="-548.133" font-family="Helvetica Italic" font-size="8.00">modified</text>
<text text-anchor="start" x="664" y="-548.133" font-family="Helvetica Italic" font-size="8.00">AutoLastModifiedField</text>
<text text-anchor="start" x="610" y="-536.133" font-family="Helvetica Bold" font-size="8.00">name</text>
<text text-anchor="start" x="664" y="-536.133" font-family="Helvetica Bold" font-size="8.00">CharField</text>
<text text-anchor="start" x="610" y="-524.133" font-family="Helvetica Bold" font-size="8.00" fill="#7b7b7b">description</text>
<text text-anchor="start" x="664" y="-524.133" font-family="Helvetica Bold" font-size="8.00" fill="#7b7b7b">TextField</text>
<text text-anchor="start" x="610" y="-512.133" font-family="Helvetica Bold" font-size="8.00">parameter</text>
<text text-anchor="start" x="664" y="-512.133" font-family="Helvetica Bold" font-size="8.00">FloatField</text>
<text text-anchor="start" x="610" y="-500.133" font-family="Helvetica Bold" font-size="8.00" fill="#7b7b7b">valid_rd_log</text>
<text text-anchor="start" x="664" y="-500.133" font-family="Helvetica Bold" font-size="8.00" fill="#7b7b7b">TextField</text>
<text text-anchor="start" x="610" y="-488.133" font-family="Helvetica Bold" font-size="8.00" fill="#7b7b7b">valid_gt_log</text>
<text text-anchor="start" x="664" y="-488.133" font-family="Helvetica Bold" font-size="8.00" fill="#7b7b7b">TextField</text>
<text text-anchor="start" x="610" y="-476.133" font-family="Helvetica Bold" font-size="8.00">gt_type</text>
<text text-anchor="start" x="664" y="-476.133" font-family="Helvetica Bold" font-size="8.00">CharField</text>
<text text-anchor="start" x="610" y="-464.133" font-family="Helvetica Bold" font-size="8.00">gt_access</text>
<text text-anchor="start" x="664" y="-464.133" font-family="Helvetica Bold" font-size="8.00">CharField</text>
</g>
<!-- spike_benchmark_models_Trial&#45;&gt;spike_data_models_Data -->
<g id="edge18" class="edge"><title>spike_benchmark_models_Trial&#45;&gt;spike_data_models_Data</title>
<path fill="none" stroke="black" stroke-dasharray="1,5" d="M670.39,-445.68C666.41,-382.98 661.11,-299.42 657.22,-238.16"/>
<polygon fill="black" stroke="black" points="666.898,-445.924 671.03,-455.68 673.884,-445.477 666.898,-445.924"/>
<polygon fill="black" stroke="black" points="660.71,-237.897 656.58,-228.14 653.725,-238.343 660.71,-237.897"/>
<text text-anchor="middle" x="693" y="-340.8" font-family="Helvetica,sans-Serif" font-size="8.00">data_set (trial)</text>
</g>
<!-- spike_benchmark_models_Trial&#45;&gt;spike_benchmark_models_Benchmark -->
<g id="edge20" class="edge"><title>spike_benchmark_models_Trial&#45;&gt;spike_benchmark_models_Benchmark</title>
<path fill="none" stroke="black" d="M599.83,-469C576.88,-449.42 551.67,-427.91 528.63,-408.24"/>
<text text-anchor="middle" x="593.5" y="-430.8" font-family="Helvetica,sans-Serif" font-size="8.00">benchmark (trial)</text>
</g>
<!-- spike_evaluation_models_Batch -->
<g id="node20" class="node"><title>spike_evaluation_models_Batch</title>
<polygon fill="palegoldenrod" stroke="palegoldenrod" points="374.5,-484 374.5,-584 527.5,-584 527.5,-484 374.5,-484"/>
<polygon fill="#698b22" stroke="#698b22" points="375,-556 375,-584 528,-584 528,-556 375,-556"/>
<text text-anchor="start" x="439.5" y="-573.633" font-family="Helvetica Bold" font-size="8.00" fill="white">Batch</text>
<text text-anchor="start" x="387" y="-564.033" font-family="Helvetica Bold" font-size="8.00" fill="white">&lt;</text>
<text text-anchor="start" x="392" y="-564.033" font-family="Helvetica Italic" font-size="8.00" fill="white">StatusModel,TimeStampedModel</text>
<text text-anchor="start" x="511" y="-564.033" font-family="Helvetica Bold" font-size="8.00" fill="white">&gt;</text>
<text text-anchor="start" x="377" y="-548.133" font-family="Helvetica Bold" font-size="8.00" fill="#7b7b7b">id</text>
<text text-anchor="start" x="447" y="-548.133" font-family="Helvetica Bold" font-size="8.00" fill="#7b7b7b">AutoField</text>
<text text-anchor="start" x="377" y="-536.133" font-family="Helvetica Italic" font-size="8.00">created</text>
<text text-anchor="start" x="447" y="-536.133" font-family="Helvetica Italic" font-size="8.00">AutoCreatedField</text>
<text text-anchor="start" x="377" y="-524.133" font-family="Helvetica Italic" font-size="8.00">modified</text>
<text text-anchor="start" x="447" y="-524.133" font-family="Helvetica Italic" font-size="8.00">AutoLastModifiedField</text>
<text text-anchor="start" x="377" y="-512.133" font-family="Helvetica Italic" font-size="8.00">status</text>
<text text-anchor="start" x="447" y="-512.133" font-family="Helvetica Italic" font-size="8.00">StatusField</text>
<text text-anchor="start" x="377" y="-500.133" font-family="Helvetica Italic" font-size="8.00">status_changed</text>
<text text-anchor="start" x="447" y="-500.133" font-family="Helvetica Italic" font-size="8.00">MonitorField</text>
<text text-anchor="start" x="377" y="-488.133" font-family="Helvetica Bold" font-size="8.00" fill="#7b7b7b">description</text>
<text text-anchor="start" x="447" y="-488.133" font-family="Helvetica Bold" font-size="8.00" fill="#7b7b7b">TextField</text>
</g>
<!-- spike_evaluation_models_Batch&#45;&gt;spike_algorithm_models_Algorithm -->
<g id="edge28" class="edge"><title>spike_evaluation_models_Batch&#45;&gt;spike_algorithm_models_Algorithm</title>
<path fill="none" stroke="black" d="M378.95,-479.75C344.19,-453.58 302.61,-422.27 267.87,-396.12"/>
<text text-anchor="middle" x="353.5" y="-430.8" font-family="Helvetica,sans-Serif" font-size="8.00">algorithm (batch)</text>
</g>
<!-- spike_evaluation_models_Batch&#45;&gt;spike_data_models_Data -->
<g id="edge22" class="edge"><title>spike_evaluation_models_Batch&#45;&gt;spike_data_models_Data</title>
<path fill="none" stroke="black" stroke-dasharray="1,5" d="M498.09,-471.83C506.45,-460.61 515.03,-449 523,-438 532.55,-424.82 536.78,-422.59 544,-408 571.3,-352.82 545.04,-321.96 586,-276 598.97,-261.45 613.46,-272.93 626,-258 631.12,-251.9 635.26,-244.92 638.59,-237.54"/>
<polygon fill="black" stroke="black" points="495.234,-469.805 492.05,-479.91 500.841,-473.996 495.234,-469.805"/>
<polygon fill="black" stroke="black" points="641.941,-238.585 642.39,-228 635.438,-235.995 641.941,-238.585"/>
<text text-anchor="middle" x="620.5" y="-340.8" font-family="Helvetica,sans-Serif" font-size="8.00">datafile_set (batch)</text>
</g>
<!-- spike_evaluation_models_Batch&#45;&gt;django_contrib_auth_models_User -->
<g id="edge24" class="edge"><title>spike_evaluation_models_Batch&#45;&gt;django_contrib_auth_models_User</title>
<path fill="none" stroke="black" d="M366.73,-516.55C265.35,-493.95 103.47,-452.18 61,-408 -1.7176,-342.76 14.208,-220.41 23.043,-174.25"/>
<text text-anchor="middle" x="86.5" y="-340.8" font-family="Helvetica,sans-Serif" font-size="8.00">owner (batch)</text>
</g>
<!-- spike_evaluation_models_Batch&#45;&gt;spike_benchmark_models_Benchmark -->
<g id="edge26" class="edge"><title>spike_evaluation_models_Batch&#45;&gt;spike_benchmark_models_Benchmark</title>
<path fill="none" stroke="black" d="M451,-479.75C451,-457.46 451,-431.44 451,-408.06"/>
<text text-anchor="middle" x="485" y="-430.8" font-family="Helvetica,sans-Serif" font-size="8.00">benchmark (batch)</text>
</g>
<!-- spike_evaluation_models_Evaluation -->
<g id="node25" class="node"><title>spike_evaluation_models_Evaluation</title>
<polygon fill="palegoldenrod" stroke="palegoldenrod" points="624.5,-664 624.5,-788 777.5,-788 777.5,-664 624.5,-664"/>
<polygon fill="#698b22" stroke="#698b22" points="625,-760 625,-788 778,-788 778,-760 625,-760"/>
<text text-anchor="start" x="680" y="-777.633" font-family="Helvetica Bold" font-size="8.00" fill="white">Evaluation</text>
<text text-anchor="start" x="637" y="-768.033" font-family="Helvetica Bold" font-size="8.00" fill="white">&lt;</text>
<text text-anchor="start" x="642" y="-768.033" font-family="Helvetica Italic" font-size="8.00" fill="white">StatusModel,TimeStampedModel</text>
<text text-anchor="start" x="761" y="-768.033" font-family="Helvetica Bold" font-size="8.00" fill="white">&gt;</text>
<text text-anchor="start" x="627" y="-752.133" font-family="Helvetica Bold" font-size="8.00" fill="#7b7b7b">id</text>
<text text-anchor="start" x="697" y="-752.133" font-family="Helvetica Bold" font-size="8.00" fill="#7b7b7b">AutoField</text>
<text text-anchor="start" x="627" y="-740.133" font-family="Helvetica Italic" font-size="8.00">created</text>
<text text-anchor="start" x="697" y="-740.133" font-family="Helvetica Italic" font-size="8.00">AutoCreatedField</text>
<text text-anchor="start" x="627" y="-728.133" font-family="Helvetica Italic" font-size="8.00">modified</text>
<text text-anchor="start" x="697" y="-728.133" font-family="Helvetica Italic" font-size="8.00">AutoLastModifiedField</text>
<text text-anchor="start" x="627" y="-716.133" font-family="Helvetica Italic" font-size="8.00">status</text>
<text text-anchor="start" x="697" y="-716.133" font-family="Helvetica Italic" font-size="8.00">StatusField</text>
<text text-anchor="start" x="627" y="-704.133" font-family="Helvetica Italic" font-size="8.00">status_changed</text>
<text text-anchor="start" x="697" y="-704.133" font-family="Helvetica Italic" font-size="8.00">MonitorField</text>
<text text-anchor="start" x="627" y="-692.133" font-family="Helvetica Bold" font-size="8.00" fill="#7b7b7b">task_id</text>
<text text-anchor="start" x="697" y="-692.133" font-family="Helvetica Bold" font-size="8.00" fill="#7b7b7b">CharField</text>
<text text-anchor="start" x="627" y="-680.133" font-family="Helvetica Bold" font-size="8.00" fill="#7b7b7b">task_log</text>
<text text-anchor="start" x="697" y="-680.133" font-family="Helvetica Bold" font-size="8.00" fill="#7b7b7b">TextField</text>
<text text-anchor="start" x="627" y="-668.133" font-family="Helvetica Bold" font-size="8.00" fill="#7b7b7b">valid_ev_log</text>
<text text-anchor="start" x="697" y="-668.133" font-family="Helvetica Bold" font-size="8.00" fill="#7b7b7b">TextField</text>
</g>
<!-- spike_evaluation_models_Evaluation&#45;&gt;spike_data_models_Data -->
<g id="edge30" class="edge"><title>spike_evaluation_models_Evaluation&#45;&gt;spike_data_models_Data</title>
<path fill="none" stroke="black" stroke-dasharray="1,5" d="M746.76,-650.86C748.24,-647.89 749.66,-644.93 751,-642 791.02,-554.58 775.49,-521.33 763,-426 754.04,-357.59 749.71,-339.62 723,-276 717.56,-263.03 710.93,-249.77 703.93,-237.02"/>
<polygon fill="black" stroke="black" points="743.644,-649.267 742.18,-659.76 749.868,-652.47 743.644,-649.267"/>
<polygon fill="black" stroke="black" points="706.977,-235.298 699.04,-228.28 700.868,-238.716 706.977,-235.298"/>
<text text-anchor="middle" x="806.5" y="-430.8" font-family="Helvetica,sans-Serif" font-size="8.00">datafile_set (evaluation)</text>
</g>
<!-- spike_evaluation_models_Evaluation&#45;&gt;spike_benchmark_models_Trial -->
<g id="edge32" class="edge"><title>spike_evaluation_models_Evaluation&#45;&gt;spike_benchmark_models_Trial</title>
<path fill="none" stroke="black" d="M692.4,-659.92C690.39,-644.52 688.24,-627.98 686.17,-612.11"/>
<text text-anchor="middle" x="718" y="-634.8" font-family="Helvetica,sans-Serif" font-size="8.00">trial (evaluation)</text>
</g>
<!-- spike_evaluation_models_Evaluation&#45;&gt;spike_evaluation_models_Batch -->
<g id="edge34" class="edge"><title>spike_evaluation_models_Evaluation&#45;&gt;spike_evaluation_models_Batch</title>
<path fill="none" stroke="black" d="M616.71,-661.27C585.81,-637.53 551.18,-610.94 521.6,-588.22"/>
<text text-anchor="middle" x="622" y="-634.8" font-family="Helvetica,sans-Serif" font-size="8.00">batch (evaluation)</text>
</g>
<!-- spike_log_models_Log -->
<g id="node29" class="node"><title>spike_log_models_Log</title>
<polygon fill="palegoldenrod" stroke="palegoldenrod" points="423,-106 423,-206 553,-206 553,-106 423,-106"/>
<polygon fill="#698b22" stroke="#698b22" points="423,-178 423,-206 553,-206 553,-178 423,-178"/>
<text text-anchor="start" x="480" y="-195.633" font-family="Helvetica Bold" font-size="8.00" fill="white">Log</text>
<text text-anchor="start" x="446.5" y="-186.033" font-family="Helvetica Bold" font-size="8.00" fill="white">&lt;</text>
<text text-anchor="start" x="451.5" y="-186.033" font-family="Helvetica Italic" font-size="8.00" fill="white">TimeStampedModel</text>
<text text-anchor="start" x="524.5" y="-186.033" font-family="Helvetica Bold" font-size="8.00" fill="white">&gt;</text>
<text text-anchor="start" x="425" y="-170.133" font-family="Helvetica Bold" font-size="8.00" fill="#7b7b7b">id</text>
<text text-anchor="start" x="472" y="-170.133" font-family="Helvetica Bold" font-size="8.00" fill="#7b7b7b">AutoField</text>
<text text-anchor="start" x="425" y="-158.133" font-family="Helvetica Italic" font-size="8.00">created</text>
<text text-anchor="start" x="472" y="-158.133" font-family="Helvetica Italic" font-size="8.00">AutoCreatedField</text>
<text text-anchor="start" x="425" y="-146.133" font-family="Helvetica Italic" font-size="8.00">modified</text>
<text text-anchor="start" x="472" y="-146.133" font-family="Helvetica Italic" font-size="8.00">AutoLastModifiedField</text>
<text text-anchor="start" x="425" y="-134.133" font-family="Helvetica Bold" font-size="8.00">text</text>
<text text-anchor="start" x="472" y="-134.133" font-family="Helvetica Bold" font-size="8.00">TextField</text>
<text text-anchor="start" x="425" y="-122.133" font-family="Helvetica Bold" font-size="8.00" fill="#7b7b7b">kind</text>
<text text-anchor="start" x="472" y="-122.133" font-family="Helvetica Bold" font-size="8.00" fill="#7b7b7b">TextField</text>
<text text-anchor="start" x="425" y="-110.133" font-family="Helvetica Bold" font-size="8.00">object_id</text>
<text text-anchor="start" x="472" y="-110.133" font-family="Helvetica Bold" font-size="8.00">PositiveIntegerField</text>
</g>
<!-- spike_log_models_Log&#45;&gt;django_contrib_contenttypes_models_ContentType -->
<g id="edge36" class="edge"><title>spike_log_models_Log&#45;&gt;django_contrib_contenttypes_models_ContentType</title>
<path fill="none" stroke="black" d="M506.15,-101.82C512.11,-86.079 519.22,-69.077 527,-54 530.1,-47.993 533.99,-41.76 537.73,-36.203"/>
<text text-anchor="middle" x="559.5" y="-58.8" font-family="Helvetica,sans-Serif" font-size="8.00">content_type (log)</text>
</g>
<!-- spike_module_models_Module -->
<g id="node31" class="node"><title>spike_module_models_Module</title>
<polygon fill="palegoldenrod" stroke="palegoldenrod" points="846,-472 846,-596 980,-596 980,-472 846,-472"/>
<polygon fill="#698b22" stroke="#698b22" points="846,-568 846,-596 980,-596 980,-568 846,-568"/>
<text text-anchor="start" x="898" y="-585.633" font-family="Helvetica Bold" font-size="8.00" fill="white">Module</text>
<text text-anchor="start" x="871.5" y="-576.033" font-family="Helvetica Bold" font-size="8.00" fill="white">&lt;</text>
<text text-anchor="start" x="876.5" y="-576.033" font-family="Helvetica Italic" font-size="8.00" fill="white">TimeStampedModel</text>
<text text-anchor="start" x="949.5" y="-576.033" font-family="Helvetica Bold" font-size="8.00" fill="white">&gt;</text>
<text text-anchor="start" x="848" y="-560.133" font-family="Helvetica Bold" font-size="8.00" fill="#7b7b7b">id</text>
<text text-anchor="start" x="899" y="-560.133" font-family="Helvetica Bold" font-size="8.00" fill="#7b7b7b">AutoField</text>
<text text-anchor="start" x="848" y="-548.133" font-family="Helvetica Italic" font-size="8.00">created</text>
<text text-anchor="start" x="899" y="-548.133" font-family="Helvetica Italic" font-size="8.00">AutoCreatedField</text>
<text text-anchor="start" x="848" y="-536.133" font-family="Helvetica Italic" font-size="8.00">modified</text>
<text text-anchor="start" x="899" y="-536.133" font-family="Helvetica Italic" font-size="8.00">AutoLastModifiedField</text>
<text text-anchor="start" x="848" y="-524.133" font-family="Helvetica Bold" font-size="8.00">name</text>
<text text-anchor="start" x="899" y="-524.133" font-family="Helvetica Bold" font-size="8.00">CharField</text>
<text text-anchor="start" x="848" y="-512.133" font-family="Helvetica Bold" font-size="8.00">version</text>
<text text-anchor="start" x="899" y="-512.133" font-family="Helvetica Bold" font-size="8.00">CharField</text>
<text text-anchor="start" x="848" y="-500.133" font-family="Helvetica Bold" font-size="8.00">path</text>
<text text-anchor="start" x="899" y="-500.133" font-family="Helvetica Bold" font-size="8.00">CharField</text>
<text text-anchor="start" x="848" y="-488.133" font-family="Helvetica Bold" font-size="8.00" fill="#7b7b7b">enabled</text>
<text text-anchor="start" x="899" y="-488.133" font-family="Helvetica Bold" font-size="8.00" fill="#7b7b7b">BooleanField</text>
<text text-anchor="start" x="848" y="-476.133" font-family="Helvetica Bold" font-size="8.00" fill="#7b7b7b">description</text>
<text text-anchor="start" x="899" y="-476.133" font-family="Helvetica Bold" font-size="8.00" fill="#7b7b7b">TextField</text>
</g>
<!-- spike_module_models_Module&#45;&gt;spike_data_models_Data -->
<g id="edge38" class="edge"><title>spike_module_models_Module&#45;&gt;spike_data_models_Data</title>
<path fill="none" stroke="black" stroke-dasharray="1,5" d="M907.53,-457.77C899.18,-394.01 878.1,-304.37 825,-246 800.53,-219.1 766.14,-198.94 734.47,-184.58"/>
<polygon fill="black" stroke="black" points="904.066,-458.277 908.77,-467.77 911.013,-457.415 904.066,-458.277"/>
<polygon fill="black" stroke="black" points="735.743,-181.317 725.18,-180.5 732.929,-187.726 735.743,-181.317"/>
<text text-anchor="middle" x="936" y="-340.8" font-family="Helvetica,sans-Serif" font-size="8.00">datafile_set (module)</text>
</g>
<!-- spike_module_models_Module&#45;&gt;spike_benchmark_models_Benchmark -->
<g id="edge42" class="edge"><title>spike_module_models_Module&#45;&gt;spike_benchmark_models_Benchmark</title>
<path fill="none" stroke="black" d="M830.36,-486.84C808.31,-475.59 784.17,-464.41 761,-456 759.58,-455.48 550.39,-408.6 549,-408 546.84,-407.07 544.67,-406.08 542.51,-405.06"/>
<ellipse fill="black" stroke="black" cx="834.195" cy="-488.817" rx="4.00002" ry="4.00002"/>
<ellipse fill="black" stroke="black" cx="538.743" cy="-403.189" rx="4.00002" ry="4.00002"/>
<text text-anchor="middle" x="719.5" y="-430.8" font-family="Helvetica,sans-Serif" font-size="8.00">benchmarks (module)</text>
</g>
<!-- spike_module_models_Module&#45;&gt;spike_module_models_Module -->
<g id="edge40" class="edge"><title>spike_module_models_Module&#45;&gt;spike_module_models_Module</title>
<path fill="none" stroke="black" d="M988.17,-551.16C998.84,-548.39 1006,-542.67 1006,-534 1006,-525.33 998.84,-519.61 988.17,-516.84"/>
<text text-anchor="middle" x="1036" y="-532.8" font-family="Helvetica,sans-Serif" font-size="8.00">parent (children)</text>
</g>
<!-- spike_module_models_Result -->
<g id="node35" class="node"><title>spike_module_models_Result</title>
<polygon fill="palegoldenrod" stroke="palegoldenrod" points="725,-905 725,-969 855,-969 855,-905 725,-905"/>
<polygon fill="#698b22" stroke="#698b22" points="725,-941 725,-969 855,-969 855,-941 725,-941"/>
<text text-anchor="start" x="777" y="-958.633" font-family="Helvetica Bold" font-size="8.00" fill="white">Result</text>
<text text-anchor="start" x="748.5" y="-949.033" font-family="Helvetica Bold" font-size="8.00" fill="white">&lt;</text>
<text text-anchor="start" x="753.5" y="-949.033" font-family="Helvetica Italic" font-size="8.00" fill="white">TimeStampedModel</text>
<text text-anchor="start" x="826.5" y="-949.033" font-family="Helvetica Bold" font-size="8.00" fill="white">&gt;</text>
<text text-anchor="start" x="727" y="-933.133" font-family="Helvetica Bold" font-size="8.00" fill="#7b7b7b">id</text>
<text text-anchor="start" x="774" y="-933.133" font-family="Helvetica Bold" font-size="8.00" fill="#7b7b7b">AutoField</text>
<text text-anchor="start" x="727" y="-921.133" font-family="Helvetica Italic" font-size="8.00">created</text>
<text text-anchor="start" x="774" y="-921.133" font-family="Helvetica Italic" font-size="8.00">AutoCreatedField</text>
<text text-anchor="start" x="727" y="-909.133" font-family="Helvetica Italic" font-size="8.00">modified</text>
<text text-anchor="start" x="774" y="-909.133" font-family="Helvetica Italic" font-size="8.00">AutoLastModifiedField</text>
</g>
<!-- spike_module_models_Result&#45;&gt;spike_evaluation_models_Evaluation -->
<g id="edge44" class="edge"><title>spike_module_models_Result&#45;&gt;spike_evaluation_models_Evaluation</title>
<path fill="none" stroke="black" d="M774.7,-900.73C762.13,-870.92 743.98,-827.9 728.85,-792.01"/>
<text text-anchor="middle" x="772" y="-814.8" font-family="Helvetica,sans-Serif" font-size="8.00">evaluation (result)</text>
</g>
<!-- spike_module_models_Result&#45;&gt;spike_module_models_Module -->
<g id="edge46" class="edge"><title>spike_module_models_Result&#45;&gt;spike_module_models_Module</title>
<path fill="none" stroke="black" d="M801.02,-900.88C821.69,-833.17 866.54,-686.23 892.77,-600.27"/>
<text text-anchor="middle" x="900.5" y="-724.8" font-family="Helvetica,sans-Serif" font-size="8.00">module (result)</text>
</g>
<!-- spike_module_metric_ffranke_models_ResultMetricFFranke -->
<g id="node38" class="node"><title>spike_module_metric_ffranke_models_ResultMetricFFranke</title>
<polygon fill="palegoldenrod" stroke="palegoldenrod" points="889,-844.5 889,-1029.5 987,-1029.5 987,-844.5 889,-844.5"/>
<polygon fill="#698b22" stroke="#698b22" points="889,-1012 889,-1029 987,-1029 987,-1012 889,-1012"/>
<text text-anchor="start" x="897" y="-1018.63" font-family="Helvetica Bold" font-size="8.00" fill="white">ResultMetricFFranke</text>
<text text-anchor="start" x="891" y="-1004.13" font-family="Helvetica Bold" font-size="8.00">unit_gt</text>
<text text-anchor="start" x="937" y="-1004.13" font-family="Helvetica Bold" font-size="8.00">CharField</text>
<text text-anchor="start" x="891" y="-992.133" font-family="Helvetica Bold" font-size="8.00">unit_ev</text>
<text text-anchor="start" x="937" y="-992.133" font-family="Helvetica Bold" font-size="8.00">CharField</text>
<text text-anchor="start" x="891" y="-980.133" font-family="Helvetica Bold" font-size="8.00">KS</text>
<text text-anchor="start" x="937" y="-980.133" font-family="Helvetica Bold" font-size="8.00">IntegerField</text>
<text text-anchor="start" x="891" y="-968.133" font-family="Helvetica Bold" font-size="8.00">KSO</text>
<text text-anchor="start" x="937" y="-968.133" font-family="Helvetica Bold" font-size="8.00">IntegerField</text>
<text text-anchor="start" x="891" y="-956.133" font-family="Helvetica Bold" font-size="8.00">FS</text>
<text text-anchor="start" x="937" y="-956.133" font-family="Helvetica Bold" font-size="8.00">IntegerField</text>
<text text-anchor="start" x="891" y="-944.133" font-family="Helvetica Bold" font-size="8.00">TP</text>
<text text-anchor="start" x="937" y="-944.133" font-family="Helvetica Bold" font-size="8.00">IntegerField</text>
<text text-anchor="start" x="891" y="-932.133" font-family="Helvetica Bold" font-size="8.00">TPO</text>
<text text-anchor="start" x="937" y="-932.133" font-family="Helvetica Bold" font-size="8.00">IntegerField</text>
<text text-anchor="start" x="891" y="-920.133" font-family="Helvetica Bold" font-size="8.00">FPA</text>
<text text-anchor="start" x="937" y="-920.133" font-family="Helvetica Bold" font-size="8.00">IntegerField</text>
<text text-anchor="start" x="891" y="-908.133" font-family="Helvetica Bold" font-size="8.00">FPAE</text>
<text text-anchor="start" x="937" y="-908.133" font-family="Helvetica Bold" font-size="8.00">IntegerField</text>
<text text-anchor="start" x="891" y="-896.133" font-family="Helvetica Bold" font-size="8.00">FPAO</text>
<text text-anchor="start" x="937" y="-896.133" font-family="Helvetica Bold" font-size="8.00">IntegerField</text>
<text text-anchor="start" x="891" y="-884.133" font-family="Helvetica Bold" font-size="8.00">FPAOE</text>
<text text-anchor="start" x="937" y="-884.133" font-family="Helvetica Bold" font-size="8.00">IntegerField</text>
<text text-anchor="start" x="891" y="-872.133" font-family="Helvetica Bold" font-size="8.00">FN</text>
<text text-anchor="start" x="937" y="-872.133" font-family="Helvetica Bold" font-size="8.00">IntegerField</text>
<text text-anchor="start" x="891" y="-860.133" font-family="Helvetica Bold" font-size="8.00">FNO</text>
<text text-anchor="start" x="937" y="-860.133" font-family="Helvetica Bold" font-size="8.00">IntegerField</text>
<text text-anchor="start" x="891" y="-848.133" font-family="Helvetica Bold" font-size="8.00">FP</text>
<text text-anchor="start" x="937" y="-848.133" font-family="Helvetica Bold" font-size="8.00">IntegerField</text>
</g>
<!-- spike_module_default_visual_models_ResultDefaultVisual -->
<g id="node39" class="node"><title>spike_module_default_visual_models_ResultDefaultVisual</title>
<polygon fill="palegoldenrod" stroke="palegoldenrod" points="1020.5,-916.5 1020.5,-957.5 1117.5,-957.5 1117.5,-916.5 1020.5,-916.5"/>
<polygon fill="#698b22" stroke="#698b22" points="1021,-940 1021,-957 1118,-957 1118,-940 1021,-940"/>
<text text-anchor="start" x="1030" y="-946.633" font-family="Helvetica Bold" font-size="8.00" fill="white">ResultDefaultVisual</text>
<text text-anchor="start" x="1023" y="-932.133" font-family="Helvetica Bold" font-size="8.00">file</text>
<text text-anchor="start" x="1068" y="-932.133" font-family="Helvetica Bold" font-size="8.00">ImageField</text>
<text text-anchor="start" x="1023" y="-920.133" font-family="Helvetica Bold" font-size="8.00">kind</text>
<text text-anchor="start" x="1068" y="-920.133" font-family="Helvetica Bold" font-size="8.00">IntegerField</text>
</g>
</g>
</svg>
