<?xml version="1.0" encoding="UTF-8" standalone="no"?>
<!DOCTYPE svg PUBLIC "-//W3C//DTD SVG 1.1//EN"
 "http://www.w3.org/Graphics/SVG/1.1/DTD/svg11.dtd">
<!-- Generated by graphviz version 2.26.3 (20100126.1600)
 -->
<!-- Title: name Pages: 1 -->
<svg width="1214pt" height="1042pt"
 viewBox="0.00 0.00 1214.00 1042.00" xmlns="http://www.w3.org/2000/svg" xmlns:xlink="http://www.w3.org/1999/xlink">
<g id="graph1" class="graph" transform="scale(1 1) rotate(0) translate(4 1038)">
<title>name</title>
<polygon fill="white" stroke="white" points="-4,5 -4,-1038 1211,-1038 1211,5 -4,5"/>
<!-- model_utils_models_TimeStampedModel -->
<g id="node1" class="node"><title>model_utils_models_TimeStampedModel</title>
<polygon fill="palegoldenrod" stroke="palegoldenrod" points="7.5,-916.5 7.5,-957.5 146.5,-957.5 146.5,-916.5 7.5,-916.5"/>
<polygon fill="#698b22" stroke="#698b22" points="8,-940 8,-957 147,-957 147,-940 8,-940"/>
<text text-anchor="start" x="38.5" y="-946.633" font-family="Helvetica Bold" font-size="8.00" fill="white">TimeStampedModel</text>
<text text-anchor="start" x="10" y="-932.133" font-family="Helvetica Bold" font-size="8.00">created</text>
<text text-anchor="start" x="54" y="-932.133" font-family="Helvetica Bold" font-size="8.00">AutoCreatedField</text>
<text text-anchor="start" x="10" y="-920.133" font-family="Helvetica Bold" font-size="8.00">modified</text>
<text text-anchor="start" x="54" y="-920.133" font-family="Helvetica Bold" font-size="8.00">AutoLastModifiedField</text>
</g>
<!-- model_utils_models_StatusModel -->
<g id="node2" class="node"><title>model_utils_models_StatusModel</title>
<polygon fill="palegoldenrod" stroke="palegoldenrod" points="180,-916.5 180,-957.5 304,-957.5 304,-916.5 180,-916.5"/>
<polygon fill="#698b22" stroke="#698b22" points="180,-940 180,-957 304,-957 304,-940 180,-940"/>
<text text-anchor="start" x="217" y="-946.633" font-family="Helvetica Bold" font-size="8.00" fill="white">StatusModel</text>
<text text-anchor="start" x="182" y="-932.133" font-family="Helvetica Bold" font-size="8.00">status</text>
<text text-anchor="start" x="251" y="-932.133" font-family="Helvetica Bold" font-size="8.00">StatusField</text>
<text text-anchor="start" x="182" y="-920.133" font-family="Helvetica Bold" font-size="8.00">status_changed</text>
<text text-anchor="start" x="251" y="-920.133" font-family="Helvetica Bold" font-size="8.00">MonitorField</text>
</g>
<!-- spike_core_algorithm_models_Algorithm -->
<g id="node3" class="node"><title>spike_core_algorithm_models_Algorithm</title>
<polygon fill="palegoldenrod" stroke="palegoldenrod" points="846,-298 846,-398 980,-398 980,-298 846,-298"/>
<polygon fill="#698b22" stroke="#698b22" points="846,-370 846,-398 980,-398 980,-370 846,-370"/>
<text text-anchor="start" x="893" y="-387.633" font-family="Helvetica Bold" font-size="8.00" fill="white">Algorithm</text>
<text text-anchor="start" x="871.5" y="-378.033" font-family="Helvetica Bold" font-size="8.00" fill="white">&lt;</text>
<text text-anchor="start" x="876.5" y="-378.033" font-family="Helvetica Italic" font-size="8.00" fill="white">TimeStampedModel</text>
<text text-anchor="start" x="949.5" y="-378.033" font-family="Helvetica Bold" font-size="8.00" fill="white">&gt;</text>
<text text-anchor="start" x="848" y="-362.133" font-family="Helvetica Bold" font-size="8.00" fill="#7b7b7b">id</text>
<text text-anchor="start" x="899" y="-362.133" font-family="Helvetica Bold" font-size="8.00" fill="#7b7b7b">AutoField</text>
<text text-anchor="start" x="848" y="-350.133" font-family="Helvetica Italic" font-size="8.00">created</text>
<text text-anchor="start" x="899" y="-350.133" font-family="Helvetica Italic" font-size="8.00">AutoCreatedField</text>
<text text-anchor="start" x="848" y="-338.133" font-family="Helvetica Italic" font-size="8.00">modified</text>
<text text-anchor="start" x="899" y="-338.133" font-family="Helvetica Italic" font-size="8.00">AutoLastModifiedField</text>
<text text-anchor="start" x="848" y="-326.133" font-family="Helvetica Bold" font-size="8.00">name</text>
<text text-anchor="start" x="899" y="-326.133" font-family="Helvetica Bold" font-size="8.00">CharField</text>
<text text-anchor="start" x="848" y="-314.133" font-family="Helvetica Bold" font-size="8.00">version</text>
<text text-anchor="start" x="899" y="-314.133" font-family="Helvetica Bold" font-size="8.00">CharField</text>
<text text-anchor="start" x="848" y="-302.133" font-family="Helvetica Bold" font-size="8.00" fill="#7b7b7b">description</text>
<text text-anchor="start" x="899" y="-302.133" font-family="Helvetica Bold" font-size="8.00" fill="#7b7b7b">TextField</text>
</g>
<!-- spike_core_algorithm_models_Algorithm&#45;&gt;spike_core_algorithm_models_Algorithm -->
<g id="edge2" class="edge"><title>spike_core_algorithm_models_Algorithm&#45;&gt;spike_core_algorithm_models_Algorithm</title>
<path fill="none" stroke="black" d="M988.17,-364.15C998.84,-361.54 1006,-356.16 1006,-348 1006,-339.84 998.84,-334.46 988.17,-331.85"/>
<text text-anchor="middle" x="1036" y="-346.8" font-family="Helvetica,sans-Serif" font-size="8.00">parent (children)</text>
</g>
<!-- spike_data_models_Data -->
<g id="node5" class="node"><title>spike_data_models_Data</title>
<polygon fill="palegoldenrod" stroke="palegoldenrod" points="441,-88 441,-224 571,-224 571,-88 441,-88"/>
<polygon fill="#698b22" stroke="#698b22" points="441,-196 441,-224 571,-224 571,-196 441,-196"/>
<text text-anchor="start" x="496.5" y="-213.633" font-family="Helvetica Bold" font-size="8.00" fill="white">Data</text>
<text text-anchor="start" x="464.5" y="-204.033" font-family="Helvetica Bold" font-size="8.00" fill="white">&lt;</text>
<text text-anchor="start" x="469.5" y="-204.033" font-family="Helvetica Italic" font-size="8.00" fill="white">TimeStampedModel</text>
<text text-anchor="start" x="542.5" y="-204.033" font-family="Helvetica Bold" font-size="8.00" fill="white">&gt;</text>
<text text-anchor="start" x="443" y="-188.133" font-family="Helvetica Bold" font-size="8.00" fill="#7b7b7b">id</text>
<text text-anchor="start" x="490" y="-188.133" font-family="Helvetica Bold" font-size="8.00" fill="#7b7b7b">AutoField</text>
<text text-anchor="start" x="443" y="-176.133" font-family="Helvetica Italic" font-size="8.00">created</text>
<text text-anchor="start" x="490" y="-176.133" font-family="Helvetica Italic" font-size="8.00">AutoCreatedField</text>
<text text-anchor="start" x="443" y="-164.133" font-family="Helvetica Italic" font-size="8.00">modified</text>
<text text-anchor="start" x="490" y="-164.133" font-family="Helvetica Italic" font-size="8.00">AutoLastModifiedField</text>
<text text-anchor="start" x="443" y="-152.133" font-family="Helvetica Bold" font-size="8.00">name</text>
<text text-anchor="start" x="490" y="-152.133" font-family="Helvetica Bold" font-size="8.00">CharField</text>
<text text-anchor="start" x="443" y="-140.133" font-family="Helvetica Bold" font-size="8.00" fill="#7b7b7b">ext</text>
<text text-anchor="start" x="490" y="-140.133" font-family="Helvetica Bold" font-size="8.00" fill="#7b7b7b">CharField</text>
<text text-anchor="start" x="443" y="-128.133" font-family="Helvetica Bold" font-size="8.00" fill="#7b7b7b">sha1</text>
<text text-anchor="start" x="490" y="-128.133" font-family="Helvetica Bold" font-size="8.00" fill="#7b7b7b">CharField</text>
<text text-anchor="start" x="443" y="-116.133" font-family="Helvetica Bold" font-size="8.00">file</text>
<text text-anchor="start" x="490" y="-116.133" font-family="Helvetica Bold" font-size="8.00">FileField</text>
<text text-anchor="start" x="443" y="-104.133" font-family="Helvetica Bold" font-size="8.00" fill="#7b7b7b">kind</text>
<text text-anchor="start" x="490" y="-104.133" font-family="Helvetica Bold" font-size="8.00" fill="#7b7b7b">TextField</text>
<text text-anchor="start" x="443" y="-92.1333" font-family="Helvetica Bold" font-size="8.00">object_id</text>
<text text-anchor="start" x="490" y="-92.1333" font-family="Helvetica Bold" font-size="8.00">PositiveIntegerField</text>
</g>
<!-- spike_core_algorithm_models_Algorithm&#45;&gt;spike_data_models_Data -->
<g id="edge4" class="edge"><title>spike_core_algorithm_models_Algorithm&#45;&gt;spike_data_models_Data</title>
<path fill="none" stroke="black" stroke-dasharray="1,5" d="M839.99,-287.35C834.65,-283.41 829.29,-279.59 824,-276 810.5,-266.84 806.01,-266.36 792,-258 783.42,-252.88 782.02,-250.29 773,-246 713.54,-217.7 642.78,-194.28 589.05,-178.43"/>
<polygon fill="black" stroke="black" points="838.244,-290.416 848.34,-293.63 842.452,-284.822 838.244,-290.416"/>
<polygon fill="black" stroke="black" points="589.801,-175.003 579.22,-175.55 587.833,-181.721 589.801,-175.003"/>
<text text-anchor="middle" x="833" y="-250.8" font-family="Helvetica,sans-Serif" font-size="8.00">datafile_set (algorithm)</text>
</g>
<!-- django_contrib_auth_models_User -->
<g id="node7" class="node"><title>django_contrib_auth_models_User</title>
<polygon fill="palegoldenrod" stroke="palegoldenrod" points="1092.5,-147.5 1092.5,-164.5 1121.5,-164.5 1121.5,-147.5 1092.5,-147.5"/>
<polygon fill="#698b22" stroke="#698b22" points="1093,-147 1093,-164 1122,-164 1122,-147 1093,-147"/>
<text text-anchor="start" x="1098" y="-153.633" font-family="Helvetica Bold" font-size="8.00" fill="white">User</text>
</g>
<!-- spike_core_algorithm_models_Algorithm&#45;&gt;django_contrib_auth_models_User -->
<g id="edge6" class="edge"><title>spike_core_algorithm_models_Algorithm&#45;&gt;django_contrib_auth_models_User</title>
<path fill="none" stroke="black" d="M988.06,-325.32C1022.5,-311.24 1060.9,-289.65 1085,-258 1103.8,-233.35 1107.3,-196.12 1107.5,-174.11"/>
<text text-anchor="middle" x="1124" y="-250.8" font-family="Helvetica,sans-Serif" font-size="8.00">owner (algorithm)</text>
</g>
<!-- taggit_models_TaggedItem -->
<g id="node9" class="node"><title>taggit_models_TaggedItem</title>
<polygon fill="palegoldenrod" stroke="palegoldenrod" points="759.5,-147.5 759.5,-164.5 816.5,-164.5 816.5,-147.5 759.5,-147.5"/>
<polygon fill="#698b22" stroke="#698b22" points="760,-147 760,-164 817,-164 817,-147 760,-147"/>
<text text-anchor="start" x="765" y="-153.633" font-family="Helvetica Bold" font-size="8.00" fill="white">TaggedItem</text>
</g>
<!-- spike_core_algorithm_models_Algorithm&#45;&gt;taggit_models_TaggedItem -->
<g id="edge8" class="edge"><title>spike_core_algorithm_models_Algorithm&#45;&gt;taggit_models_TaggedItem</title>
<path fill="none" stroke="black" stroke-dasharray="1,5" d="M896.13,-284.26C891.29,-271.1 885.3,-257.69 878,-246 862.27,-220.79 838.23,-197.23 818.95,-180.55"/>
<polygon fill="black" stroke="black" points="892.852,-285.49 899.45,-293.78 899.462,-283.185 892.852,-285.49"/>
<polygon fill="black" stroke="black" points="821.182,-177.854 811.29,-174.06 816.657,-183.195 821.182,-177.854"/>
<text text-anchor="middle" x="928" y="-250.8" font-family="Helvetica,sans-Serif" font-size="8.00">tagged_items (algorithm)</text>
</g>
<!-- django_contrib_contenttypes_models_ContentType -->
<g id="node11" class="node"><title>django_contrib_contenttypes_models_ContentType</title>
<polygon fill="palegoldenrod" stroke="palegoldenrod" points="374.5,-9.5 374.5,-26.5 435.5,-26.5 435.5,-9.5 374.5,-9.5"/>
<polygon fill="#698b22" stroke="#698b22" points="375,-9 375,-26 436,-26 436,-9 375,-9"/>
<text text-anchor="start" x="379.5" y="-15.6333" font-family="Helvetica Bold" font-size="8.00" fill="white">ContentType</text>
</g>
<!-- spike_data_models_Data&#45;&gt;django_contrib_contenttypes_models_ContentType -->
<g id="edge10" class="edge"><title>spike_data_models_Data&#45;&gt;django_contrib_contenttypes_models_ContentType</title>
<path fill="none" stroke="black" d="M467.47,-83.814C460.83,-73.44 453.59,-63.183 446,-54 440.81,-47.722 434.48,-41.6 428.36,-36.236"/>
<text text-anchor="middle" x="488" y="-58.8" font-family="Helvetica,sans-Serif" font-size="8.00">content_type (data)</text>
</g>
<!-- spike_core_benchmark_models_Benchmark -->
<g id="node13" class="node"><title>spike_core_benchmark_models_Benchmark</title>
<polygon fill="palegoldenrod" stroke="palegoldenrod" points="554.5,-280 554.5,-416 707.5,-416 707.5,-280 554.5,-280"/>
<polygon fill="#698b22" stroke="#698b22" points="555,-388 555,-416 708,-416 708,-388 555,-388"/>
<text text-anchor="start" x="609" y="-405.633" font-family="Helvetica Bold" font-size="8.00" fill="white">Benchmark</text>
<text text-anchor="start" x="567" y="-396.033" font-family="Helvetica Bold" font-size="8.00" fill="white">&lt;</text>
<text text-anchor="start" x="572" y="-396.033" font-family="Helvetica Italic" font-size="8.00" fill="white">StatusModel,TimeStampedModel</text>
<text text-anchor="start" x="691" y="-396.033" font-family="Helvetica Bold" font-size="8.00" fill="white">&gt;</text>
<text text-anchor="start" x="557" y="-380.133" font-family="Helvetica Bold" font-size="8.00" fill="#7b7b7b">id</text>
<text text-anchor="start" x="627" y="-380.133" font-family="Helvetica Bold" font-size="8.00" fill="#7b7b7b">AutoField</text>
<text text-anchor="start" x="557" y="-368.133" font-family="Helvetica Italic" font-size="8.00">created</text>
<text text-anchor="start" x="627" y="-368.133" font-family="Helvetica Italic" font-size="8.00">AutoCreatedField</text>
<text text-anchor="start" x="557" y="-356.133" font-family="Helvetica Italic" font-size="8.00">modified</text>
<text text-anchor="start" x="627" y="-356.133" font-family="Helvetica Italic" font-size="8.00">AutoLastModifiedField</text>
<text text-anchor="start" x="557" y="-344.133" font-family="Helvetica Italic" font-size="8.00">status</text>
<text text-anchor="start" x="627" y="-344.133" font-family="Helvetica Italic" font-size="8.00">StatusField</text>
<text text-anchor="start" x="557" y="-332.133" font-family="Helvetica Italic" font-size="8.00">status_changed</text>
<text text-anchor="start" x="627" y="-332.133" font-family="Helvetica Italic" font-size="8.00">MonitorField</text>
<text text-anchor="start" x="557" y="-320.133" font-family="Helvetica Bold" font-size="8.00">name</text>
<text text-anchor="start" x="627" y="-320.133" font-family="Helvetica Bold" font-size="8.00">CharField</text>
<text text-anchor="start" x="557" y="-308.133" font-family="Helvetica Bold" font-size="8.00" fill="#7b7b7b">description</text>
<text text-anchor="start" x="627" y="-308.133" font-family="Helvetica Bold" font-size="8.00" fill="#7b7b7b">TextField</text>
<text text-anchor="start" x="557" y="-296.133" font-family="Helvetica Bold" font-size="8.00">parameter</text>
<text text-anchor="start" x="627" y="-296.133" font-family="Helvetica Bold" font-size="8.00">CharField</text>
<text text-anchor="start" x="557" y="-284.133" font-family="Helvetica Bold" font-size="8.00">gt_access</text>
<text text-anchor="start" x="627" y="-284.133" font-family="Helvetica Bold" font-size="8.00">CharField</text>
</g>
<!-- spike_core_benchmark_models_Benchmark&#45;&gt;spike_data_models_Data -->
<g id="edge12" class="edge"><title>spike_core_benchmark_models_Benchmark&#45;&gt;spike_data_models_Data</title>
<path fill="none" stroke="black" stroke-dasharray="1,5" d="M555.4,-267.48C553.17,-264.33 551.03,-261.17 549,-258 544.81,-251.45 540.88,-244.43 537.22,-237.25"/>
<polygon fill="black" stroke="black" points="552.739,-269.768 561.49,-275.74 558.373,-265.614 552.739,-269.768"/>
<polygon fill="black" stroke="black" points="540.271,-235.522 532.73,-228.08 533.984,-238.6 540.271,-235.522"/>
<text text-anchor="middle" x="588.5" y="-250.8" font-family="Helvetica,sans-Serif" font-size="8.00">data_set (benchmark)</text>
</g>
<!-- spike_core_benchmark_models_Benchmark&#45;&gt;django_contrib_auth_models_User -->
<g id="edge14" class="edge"><title>spike_core_benchmark_models_Benchmark&#45;&gt;django_contrib_auth_models_User</title>
<path fill="none" stroke="black" d="M715.15,-281.95C719.72,-279.72 724.34,-277.72 729,-276 832.7,-237.79 873.92,-297.85 977,-258 1024.1,-239.8 1067.9,-198.41 1090.6,-174.32"/>
<text text-anchor="middle" x="1036.5" y="-250.8" font-family="Helvetica,sans-Serif" font-size="8.00">owner (benchmark)</text>
</g>
<!-- spike_core_benchmark_models_Benchmark&#45;&gt;taggit_models_TaggedItem -->
<g id="edge16" class="edge"><title>spike_core_benchmark_models_Benchmark&#45;&gt;taggit_models_TaggedItem</title>
<path fill="none" stroke="black" stroke-dasharray="1,5" d="M662.54,-266.58C666.62,-259.35 671.11,-252.37 676,-246 696.29,-219.57 725.91,-196.21 749.59,-179.92"/>
<polygon fill="black" stroke="black" points="659.212,-265.382 657.58,-275.85 665.384,-268.684 659.212,-265.382"/>
<polygon fill="black" stroke="black" points="751.67,-182.739 758.01,-174.25 747.76,-176.932 751.67,-182.739"/>
<text text-anchor="middle" x="724.5" y="-250.8" font-family="Helvetica,sans-Serif" font-size="8.00">tagged_items (benchmark)</text>
</g>
<!-- spike_core_benchmark_models_Trial -->
<g id="node17" class="node"><title>spike_core_benchmark_models_Trial</title>
<polygon fill="palegoldenrod" stroke="palegoldenrod" points="466.5,-472 466.5,-608 603.5,-608 603.5,-472 466.5,-472"/>
<polygon fill="#698b22" stroke="#698b22" points="467,-580 467,-608 604,-608 604,-580 467,-580"/>
<text text-anchor="start" x="526.5" y="-597.633" font-family="Helvetica Bold" font-size="8.00" fill="white">Trial</text>
<text text-anchor="start" x="494" y="-588.033" font-family="Helvetica Bold" font-size="8.00" fill="white">&lt;</text>
<text text-anchor="start" x="499" y="-588.033" font-family="Helvetica Italic" font-size="8.00" fill="white">TimeStampedModel</text>
<text text-anchor="start" x="572" y="-588.033" font-family="Helvetica Bold" font-size="8.00" fill="white">&gt;</text>
<text text-anchor="start" x="469" y="-572.133" font-family="Helvetica Bold" font-size="8.00" fill="#7b7b7b">id</text>
<text text-anchor="start" x="523" y="-572.133" font-family="Helvetica Bold" font-size="8.00" fill="#7b7b7b">AutoField</text>
<text text-anchor="start" x="469" y="-560.133" font-family="Helvetica Italic" font-size="8.00">created</text>
<text text-anchor="start" x="523" y="-560.133" font-family="Helvetica Italic" font-size="8.00">AutoCreatedField</text>
<text text-anchor="start" x="469" y="-548.133" font-family="Helvetica Italic" font-size="8.00">modified</text>
<text text-anchor="start" x="523" y="-548.133" font-family="Helvetica Italic" font-size="8.00">AutoLastModifiedField</text>
<text text-anchor="start" x="469" y="-536.133" font-family="Helvetica Bold" font-size="8.00">name</text>
<text text-anchor="start" x="523" y="-536.133" font-family="Helvetica Bold" font-size="8.00">CharField</text>
<text text-anchor="start" x="469" y="-524.133" font-family="Helvetica Bold" font-size="8.00" fill="#7b7b7b">description</text>
<text text-anchor="start" x="523" y="-524.133" font-family="Helvetica Bold" font-size="8.00" fill="#7b7b7b">TextField</text>
<text text-anchor="start" x="469" y="-512.133" font-family="Helvetica Bold" font-size="8.00">parameter</text>
<text text-anchor="start" x="523" y="-512.133" font-family="Helvetica Bold" font-size="8.00">FloatField</text>
<text text-anchor="start" x="469" y="-500.133" font-family="Helvetica Bold" font-size="8.00" fill="#7b7b7b">valid_rd_log</text>
<text text-anchor="start" x="523" y="-500.133" font-family="Helvetica Bold" font-size="8.00" fill="#7b7b7b">TextField</text>
<text text-anchor="start" x="469" y="-488.133" font-family="Helvetica Bold" font-size="8.00" fill="#7b7b7b">valid_gt_log</text>
<text text-anchor="start" x="523" y="-488.133" font-family="Helvetica Bold" font-size="8.00" fill="#7b7b7b">TextField</text>
<text text-anchor="start" x="469" y="-476.133" font-family="Helvetica Bold" font-size="8.00">gt_type</text>
<text text-anchor="start" x="523" y="-476.133" font-family="Helvetica Bold" font-size="8.00">CharField</text>
</g>
<!-- spike_core_benchmark_models_Trial&#45;&gt;spike_data_models_Data -->
<g id="edge18" class="edge"><title>spike_core_benchmark_models_Trial&#45;&gt;spike_data_models_Data</title>
<path fill="none" stroke="black" stroke-dasharray="1,5" d="M527.22,-457.93C524.59,-450.85 521.25,-444.08 517,-438 507.88,-424.94 493.95,-433.81 486,-420 454.07,-364.53 480.72,-339.78 486,-276 487.02,-263.71 488.61,-250.78 490.47,-238.15"/>
<polygon fill="black" stroke="black" points="523.98,-459.289 530.37,-467.74 530.645,-457.149 523.98,-459.289"/>
<polygon fill="black" stroke="black" points="493.955,-238.513 492,-228.1 487.035,-237.459 493.955,-238.513"/>
<text text-anchor="middle" x="512" y="-346.8" font-family="Helvetica,sans-Serif" font-size="8.00">data_set (trial)</text>
</g>
<!-- spike_core_benchmark_models_Trial&#45;&gt;spike_core_benchmark_models_Benchmark -->
<g id="edge20" class="edge"><title>spike_core_benchmark_models_Trial&#45;&gt;spike_core_benchmark_models_Benchmark</title>
<path fill="none" stroke="black" d="M565.7,-467.97C570.33,-457.83 575.18,-447.6 580,-438 582.9,-432.22 586,-426.29 589.17,-420.36"/>
<text text-anchor="middle" x="610.5" y="-442.8" font-family="Helvetica,sans-Serif" font-size="8.00">benchmark (trial)</text>
</g>
<!-- spike_core_evaluation_models_Batch -->
<g id="node20" class="node"><title>spike_core_evaluation_models_Batch</title>
<polygon fill="palegoldenrod" stroke="palegoldenrod" points="674.5,-490 674.5,-590 827.5,-590 827.5,-490 674.5,-490"/>
<polygon fill="#698b22" stroke="#698b22" points="675,-562 675,-590 828,-590 828,-562 675,-562"/>
<text text-anchor="start" x="739.5" y="-579.633" font-family="Helvetica Bold" font-size="8.00" fill="white">Batch</text>
<text text-anchor="start" x="687" y="-570.033" font-family="Helvetica Bold" font-size="8.00" fill="white">&lt;</text>
<text text-anchor="start" x="692" y="-570.033" font-family="Helvetica Italic" font-size="8.00" fill="white">StatusModel,TimeStampedModel</text>
<text text-anchor="start" x="811" y="-570.033" font-family="Helvetica Bold" font-size="8.00" fill="white">&gt;</text>
<text text-anchor="start" x="677" y="-554.133" font-family="Helvetica Bold" font-size="8.00" fill="#7b7b7b">id</text>
<text text-anchor="start" x="747" y="-554.133" font-family="Helvetica Bold" font-size="8.00" fill="#7b7b7b">AutoField</text>
<text text-anchor="start" x="677" y="-542.133" font-family="Helvetica Italic" font-size="8.00">created</text>
<text text-anchor="start" x="747" y="-542.133" font-family="Helvetica Italic" font-size="8.00">AutoCreatedField</text>
<text text-anchor="start" x="677" y="-530.133" font-family="Helvetica Italic" font-size="8.00">modified</text>
<text text-anchor="start" x="747" y="-530.133" font-family="Helvetica Italic" font-size="8.00">AutoLastModifiedField</text>
<text text-anchor="start" x="677" y="-518.133" font-family="Helvetica Italic" font-size="8.00">status</text>
<text text-anchor="start" x="747" y="-518.133" font-family="Helvetica Italic" font-size="8.00">StatusField</text>
<text text-anchor="start" x="677" y="-506.133" font-family="Helvetica Italic" font-size="8.00">status_changed</text>
<text text-anchor="start" x="747" y="-506.133" font-family="Helvetica Italic" font-size="8.00">MonitorField</text>
<text text-anchor="start" x="677" y="-494.133" font-family="Helvetica Bold" font-size="8.00" fill="#7b7b7b">description</text>
<text text-anchor="start" x="747" y="-494.133" font-family="Helvetica Bold" font-size="8.00" fill="#7b7b7b">TextField</text>
</g>
<!-- spike_core_evaluation_models_Batch&#45;&gt;spike_core_algorithm_models_Algorithm -->
<g id="edge22" class="edge"><title>spike_core_evaluation_models_Batch&#45;&gt;spike_core_algorithm_models_Algorithm</title>
<path fill="none" stroke="black" d="M796.77,-485.75C818.85,-459.58 845.27,-428.27 867.34,-402.12"/>
<text text-anchor="middle" x="866.5" y="-442.8" font-family="Helvetica,sans-Serif" font-size="8.00">algorithm (batch)</text>
</g>
<!-- spike_core_evaluation_models_Batch&#45;&gt;spike_data_models_Data -->
<g id="edge24" class="edge"><title>spike_core_evaluation_models_Batch&#45;&gt;spike_data_models_Data</title>
<path fill="none" stroke="black" stroke-dasharray="1,5" d="M752.34,-475.69C752.42,-407.45 748.25,-305.49 724,-276 706.59,-254.83 689.88,-269.51 665,-258 638.77,-245.87 611.76,-230 587.62,-214.41"/>
<polygon fill="black" stroke="black" points="748.839,-475.896 752.3,-485.91 755.839,-475.924 748.839,-475.896"/>
<polygon fill="black" stroke="black" points="589.488,-211.45 579.2,-208.92 585.665,-217.314 589.488,-211.45"/>
<text text-anchor="middle" x="785.5" y="-346.8" font-family="Helvetica,sans-Serif" font-size="8.00">datafile_set (batch)</text>
</g>
<!-- spike_core_evaluation_models_Batch&#45;&gt;django_contrib_auth_models_User -->
<g id="edge26" class="edge"><title>spike_core_evaluation_models_Batch&#45;&gt;django_contrib_auth_models_User</title>
<path fill="none" stroke="black" d="M835.12,-526.26C906.14,-510.91 1006.9,-479.9 1075,-420 1136.1,-366.32 1140.5,-336.95 1160,-258 1167.8,-226.42 1144.2,-193.7 1126,-174.1"/>
<text text-anchor="middle" x="1180.5" y="-346.8" font-family="Helvetica,sans-Serif" font-size="8.00">owner (batch)</text>
</g>
<!-- spike_core_evaluation_models_Batch&#45;&gt;spike_core_benchmark_models_Benchmark -->
<g id="edge28" class="edge"><title>spike_core_evaluation_models_Batch&#45;&gt;spike_core_benchmark_models_Benchmark</title>
<path fill="none" stroke="black" d="M695.39,-485.53C685.78,-474.37 676.49,-462.27 669,-450 663.34,-440.72 658.31,-430.47 653.9,-420.14"/>
<text text-anchor="middle" x="703" y="-442.8" font-family="Helvetica,sans-Serif" font-size="8.00">benchmark (batch)</text>
</g>
<!-- spike_core_evaluation_models_Evaluation -->
<g id="node25" class="node"><title>spike_core_evaluation_models_Evaluation</title>
<polygon fill="palegoldenrod" stroke="palegoldenrod" points="437.5,-664 437.5,-788 590.5,-788 590.5,-664 437.5,-664"/>
<polygon fill="#698b22" stroke="#698b22" points="438,-760 438,-788 591,-788 591,-760 438,-760"/>
<text text-anchor="start" x="493" y="-777.633" font-family="Helvetica Bold" font-size="8.00" fill="white">Evaluation</text>
<text text-anchor="start" x="450" y="-768.033" font-family="Helvetica Bold" font-size="8.00" fill="white">&lt;</text>
<text text-anchor="start" x="455" y="-768.033" font-family="Helvetica Italic" font-size="8.00" fill="white">StatusModel,TimeStampedModel</text>
<text text-anchor="start" x="574" y="-768.033" font-family="Helvetica Bold" font-size="8.00" fill="white">&gt;</text>
<text text-anchor="start" x="440" y="-752.133" font-family="Helvetica Bold" font-size="8.00" fill="#7b7b7b">id</text>
<text text-anchor="start" x="510" y="-752.133" font-family="Helvetica Bold" font-size="8.00" fill="#7b7b7b">AutoField</text>
<text text-anchor="start" x="440" y="-740.133" font-family="Helvetica Italic" font-size="8.00">created</text>
<text text-anchor="start" x="510" y="-740.133" font-family="Helvetica Italic" font-size="8.00">AutoCreatedField</text>
<text text-anchor="start" x="440" y="-728.133" font-family="Helvetica Italic" font-size="8.00">modified</text>
<text text-anchor="start" x="510" y="-728.133" font-family="Helvetica Italic" font-size="8.00">AutoLastModifiedField</text>
<text text-anchor="start" x="440" y="-716.133" font-family="Helvetica Italic" font-size="8.00">status</text>
<text text-anchor="start" x="510" y="-716.133" font-family="Helvetica Italic" font-size="8.00">StatusField</text>
<text text-anchor="start" x="440" y="-704.133" font-family="Helvetica Italic" font-size="8.00">status_changed</text>
<text text-anchor="start" x="510" y="-704.133" font-family="Helvetica Italic" font-size="8.00">MonitorField</text>
<text text-anchor="start" x="440" y="-692.133" font-family="Helvetica Bold" font-size="8.00" fill="#7b7b7b">task_id</text>
<text text-anchor="start" x="510" y="-692.133" font-family="Helvetica Bold" font-size="8.00" fill="#7b7b7b">CharField</text>
<text text-anchor="start" x="440" y="-680.133" font-family="Helvetica Bold" font-size="8.00" fill="#7b7b7b">task_log</text>
<text text-anchor="start" x="510" y="-680.133" font-family="Helvetica Bold" font-size="8.00" fill="#7b7b7b">TextField</text>
<text text-anchor="start" x="440" y="-668.133" font-family="Helvetica Bold" font-size="8.00" fill="#7b7b7b">valid_ev_log</text>
<text text-anchor="start" x="510" y="-668.133" font-family="Helvetica Bold" font-size="8.00" fill="#7b7b7b">TextField</text>
</g>
<!-- spike_core_evaluation_models_Evaluation&#45;&gt;spike_data_models_Data -->
<g id="edge34" class="edge"><title>spike_core_evaluation_models_Evaluation&#45;&gt;spike_data_models_Data</title>
<path fill="none" stroke="black" stroke-dasharray="1,5" d="M466.62,-650.78C460.21,-638.19 454.35,-624.99 450,-612 425.24,-538.09 419.04,-515.43 428,-438 435.97,-369.1 457.63,-293.47 476.11,-237.89"/>
<polygon fill="black" stroke="black" points="463.623,-652.602 471.37,-659.83 469.822,-649.349 463.623,-652.602"/>
<polygon fill="black" stroke="black" points="479.532,-238.694 479.4,-228.1 472.897,-236.464 479.532,-238.694"/>
<text text-anchor="middle" x="470.5" y="-442.8" font-family="Helvetica,sans-Serif" font-size="8.00">datafile_set (evaluation)</text>
</g>
<!-- spike_core_evaluation_models_Evaluation&#45;&gt;spike_core_benchmark_models_Trial -->
<g id="edge30" class="edge"><title>spike_core_evaluation_models_Evaluation&#45;&gt;spike_core_benchmark_models_Trial</title>
<path fill="none" stroke="black" d="M521.46,-659.9C523.21,-644.45 525.07,-627.91 526.85,-612.2"/>
<text text-anchor="middle" x="553" y="-634.8" font-family="Helvetica,sans-Serif" font-size="8.00">trial (evaluation)</text>
</g>
<!-- spike_core_evaluation_models_Evaluation&#45;&gt;spike_core_evaluation_models_Batch -->
<g id="edge32" class="edge"><title>spike_core_evaluation_models_Evaluation&#45;&gt;spike_core_evaluation_models_Batch</title>
<path fill="none" stroke="black" d="M598.22,-659.9C625.63,-638.39 655.72,-614.78 681.89,-594.24"/>
<text text-anchor="middle" x="664" y="-634.8" font-family="Helvetica,sans-Serif" font-size="8.00">batch (evaluation)</text>
</g>
<!-- spike_log_models_Log -->
<g id="node29" class="node"><title>spike_log_models_Log</title>
<polygon fill="palegoldenrod" stroke="palegoldenrod" points="277,-106 277,-206 407,-206 407,-106 277,-106"/>
<polygon fill="#698b22" stroke="#698b22" points="277,-178 277,-206 407,-206 407,-178 277,-178"/>
<text text-anchor="start" x="334" y="-195.633" font-family="Helvetica Bold" font-size="8.00" fill="white">Log</text>
<text text-anchor="start" x="300.5" y="-186.033" font-family="Helvetica Bold" font-size="8.00" fill="white">&lt;</text>
<text text-anchor="start" x="305.5" y="-186.033" font-family="Helvetica Italic" font-size="8.00" fill="white">TimeStampedModel</text>
<text text-anchor="start" x="378.5" y="-186.033" font-family="Helvetica Bold" font-size="8.00" fill="white">&gt;</text>
<text text-anchor="start" x="279" y="-170.133" font-family="Helvetica Bold" font-size="8.00" fill="#7b7b7b">id</text>
<text text-anchor="start" x="326" y="-170.133" font-family="Helvetica Bold" font-size="8.00" fill="#7b7b7b">AutoField</text>
<text text-anchor="start" x="279" y="-158.133" font-family="Helvetica Italic" font-size="8.00">created</text>
<text text-anchor="start" x="326" y="-158.133" font-family="Helvetica Italic" font-size="8.00">AutoCreatedField</text>
<text text-anchor="start" x="279" y="-146.133" font-family="Helvetica Italic" font-size="8.00">modified</text>
<text text-anchor="start" x="326" y="-146.133" font-family="Helvetica Italic" font-size="8.00">AutoLastModifiedField</text>
<text text-anchor="start" x="279" y="-134.133" font-family="Helvetica Bold" font-size="8.00">text</text>
<text text-anchor="start" x="326" y="-134.133" font-family="Helvetica Bold" font-size="8.00">TextField</text>
<text text-anchor="start" x="279" y="-122.133" font-family="Helvetica Bold" font-size="8.00" fill="#7b7b7b">kind</text>
<text text-anchor="start" x="326" y="-122.133" font-family="Helvetica Bold" font-size="8.00" fill="#7b7b7b">TextField</text>
<text text-anchor="start" x="279" y="-110.133" font-family="Helvetica Bold" font-size="8.00">object_id</text>
<text text-anchor="start" x="326" y="-110.133" font-family="Helvetica Bold" font-size="8.00">PositiveIntegerField</text>
</g>
<!-- spike_log_models_Log&#45;&gt;django_contrib_contenttypes_models_ContentType -->
<g id="edge36" class="edge"><title>spike_log_models_Log&#45;&gt;django_contrib_contenttypes_models_ContentType</title>
<path fill="none" stroke="black" d="M360.15,-101.82C366.11,-86.079 373.22,-69.077 381,-54 384.1,-47.993 387.99,-41.76 391.73,-36.203"/>
<text text-anchor="middle" x="413.5" y="-58.8" font-family="Helvetica,sans-Serif" font-size="8.00">content_type (log)</text>
</g>
<!-- spike_metric_models_core_Metric -->
<g id="node31" class="node"><title>spike_metric_models_core_Metric</title>
<polygon fill="palegoldenrod" stroke="palegoldenrod" points="261,-472 261,-608 395,-608 395,-472 261,-472"/>
<polygon fill="#698b22" stroke="#698b22" points="261,-580 261,-608 395,-608 395,-580 261,-580"/>
<text text-anchor="start" x="315.5" y="-597.633" font-family="Helvetica Bold" font-size="8.00" fill="white">Metric</text>
<text text-anchor="start" x="286.5" y="-588.033" font-family="Helvetica Bold" font-size="8.00" fill="white">&lt;</text>
<text text-anchor="start" x="291.5" y="-588.033" font-family="Helvetica Italic" font-size="8.00" fill="white">TimeStampedModel</text>
<text text-anchor="start" x="364.5" y="-588.033" font-family="Helvetica Bold" font-size="8.00" fill="white">&gt;</text>
<text text-anchor="start" x="263" y="-572.133" font-family="Helvetica Bold" font-size="8.00" fill="#7b7b7b">id</text>
<text text-anchor="start" x="314" y="-572.133" font-family="Helvetica Bold" font-size="8.00" fill="#7b7b7b">AutoField</text>
<text text-anchor="start" x="263" y="-560.133" font-family="Helvetica Italic" font-size="8.00">created</text>
<text text-anchor="start" x="314" y="-560.133" font-family="Helvetica Italic" font-size="8.00">AutoCreatedField</text>
<text text-anchor="start" x="263" y="-548.133" font-family="Helvetica Italic" font-size="8.00">modified</text>
<text text-anchor="start" x="314" y="-548.133" font-family="Helvetica Italic" font-size="8.00">AutoLastModifiedField</text>
<text text-anchor="start" x="263" y="-536.133" font-family="Helvetica Bold" font-size="8.00">name</text>
<text text-anchor="start" x="314" y="-536.133" font-family="Helvetica Bold" font-size="8.00">CharField</text>
<text text-anchor="start" x="263" y="-524.133" font-family="Helvetica Bold" font-size="8.00" fill="#7b7b7b">version</text>
<text text-anchor="start" x="314" y="-524.133" font-family="Helvetica Bold" font-size="8.00" fill="#7b7b7b">CharField</text>
<text text-anchor="start" x="263" y="-512.133" font-family="Helvetica Bold" font-size="8.00" fill="#7b7b7b">description</text>
<text text-anchor="start" x="314" y="-512.133" font-family="Helvetica Bold" font-size="8.00" fill="#7b7b7b">TextField</text>
<text text-anchor="start" x="263" y="-500.133" font-family="Helvetica Bold" font-size="8.00">exec_name</text>
<text text-anchor="start" x="314" y="-500.133" font-family="Helvetica Bold" font-size="8.00">TextField</text>
<text text-anchor="start" x="263" y="-488.133" font-family="Helvetica Bold" font-size="8.00" fill="#7b7b7b">temp_name</text>
<text text-anchor="start" x="314" y="-488.133" font-family="Helvetica Bold" font-size="8.00" fill="#7b7b7b">TextField</text>
<text text-anchor="start" x="263" y="-476.133" font-family="Helvetica Bold" font-size="8.00" fill="#7b7b7b">rest_name</text>
<text text-anchor="start" x="314" y="-476.133" font-family="Helvetica Bold" font-size="8.00" fill="#7b7b7b">TextField</text>
</g>
<!-- spike_metric_models_core_Metric&#45;&gt;spike_data_models_Data -->
<g id="edge38" class="edge"><title>spike_metric_models_core_Metric&#45;&gt;spike_data_models_Data</title>
<path fill="none" stroke="black" stroke-dasharray="1,5" d="M313.84,-457.7C308.72,-402.01 311.16,-329.17 346,-276 368.31,-241.95 391.26,-252.18 424,-228 424.18,-227.87 424.36,-227.73 424.54,-227.6"/>
<polygon fill="black" stroke="black" points="310.383,-458.297 314.88,-467.89 317.346,-457.586 310.383,-458.297"/>
<polygon fill="black" stroke="black" points="426.89,-230.21 432.73,-221.37 422.652,-224.639 426.89,-230.21"/>
<text text-anchor="middle" x="381.5" y="-346.8" font-family="Helvetica,sans-Serif" font-size="8.00">datafile_set (metric)</text>
</g>
<!-- spike_metric_models_core_Metric&#45;&gt;spike_core_benchmark_models_Benchmark -->
<g id="edge40" class="edge"><title>spike_metric_models_core_Metric&#45;&gt;spike_core_benchmark_models_Benchmark</title>
<path fill="none" stroke="black" d="M322.42,-459.92C324.93,-451.75 328.93,-444.2 335,-438 365.89,-406.42 491.68,-435.65 533,-420 535.17,-419.18 537.34,-418.29 539.5,-417.35"/>
<ellipse fill="black" stroke="black" cx="321.409" cy="-464.017" rx="4.00001" ry="4.00001"/>
<ellipse fill="black" stroke="black" cx="543.185" cy="-415.631" rx="4.00002" ry="4.00002"/>
<text text-anchor="middle" x="372" y="-442.8" font-family="Helvetica,sans-Serif" font-size="8.00">benchmarks (metric)</text>
</g>
<!-- spike_metric_models_core_Result -->
<g id="node34" class="node"><title>spike_metric_models_core_Result</title>
<polygon fill="palegoldenrod" stroke="palegoldenrod" points="338,-905 338,-969 468,-969 468,-905 338,-905"/>
<polygon fill="#698b22" stroke="#698b22" points="338,-941 338,-969 468,-969 468,-941 338,-941"/>
<text text-anchor="start" x="390" y="-958.633" font-family="Helvetica Bold" font-size="8.00" fill="white">Result</text>
<text text-anchor="start" x="361.5" y="-949.033" font-family="Helvetica Bold" font-size="8.00" fill="white">&lt;</text>
<text text-anchor="start" x="366.5" y="-949.033" font-family="Helvetica Italic" font-size="8.00" fill="white">TimeStampedModel</text>
<text text-anchor="start" x="439.5" y="-949.033" font-family="Helvetica Bold" font-size="8.00" fill="white">&gt;</text>
<text text-anchor="start" x="340" y="-933.133" font-family="Helvetica Bold" font-size="8.00" fill="#7b7b7b">id</text>
<text text-anchor="start" x="387" y="-933.133" font-family="Helvetica Bold" font-size="8.00" fill="#7b7b7b">AutoField</text>
<text text-anchor="start" x="340" y="-921.133" font-family="Helvetica Italic" font-size="8.00">created</text>
<text text-anchor="start" x="387" y="-921.133" font-family="Helvetica Italic" font-size="8.00">AutoCreatedField</text>
<text text-anchor="start" x="340" y="-909.133" font-family="Helvetica Italic" font-size="8.00">modified</text>
<text text-anchor="start" x="387" y="-909.133" font-family="Helvetica Italic" font-size="8.00">AutoLastModifiedField</text>
</g>
<!-- spike_metric_models_core_Result&#45;&gt;spike_core_evaluation_models_Evaluation -->
<g id="edge44" class="edge"><title>spike_metric_models_core_Result&#45;&gt;spike_core_evaluation_models_Evaluation</title>
<path fill="none" stroke="black" d="M422.08,-900.73C437.76,-870.92 460.39,-827.9 479.27,-792.01"/>
<text text-anchor="middle" x="500" y="-814.8" font-family="Helvetica,sans-Serif" font-size="8.00">evaluation (result)</text>
</g>
<!-- spike_metric_models_core_Result&#45;&gt;spike_metric_models_core_Metric -->
<g id="edge42" class="edge"><title>spike_metric_models_core_Result&#45;&gt;spike_metric_models_core_Metric</title>
<path fill="none" stroke="black" d="M394.49,-900.75C387.74,-871.48 378.27,-829.19 371,-792 359.18,-731.56 347.54,-662.61 339.36,-612.13"/>
<text text-anchor="middle" x="396" y="-724.8" font-family="Helvetica,sans-Serif" font-size="8.00">metric (result)</text>
</g>
<!-- spike_metric_models_old_EvaluationResult -->
<g id="node37" class="node"><title>spike_metric_models_old_EvaluationResult</title>
<polygon fill="palegoldenrod" stroke="palegoldenrod" points="502,-844.5 502,-1029.5 604,-1029.5 604,-844.5 502,-844.5"/>
<polygon fill="#698b22" stroke="#698b22" points="502,-1012 502,-1029 604,-1029 604,-1012 502,-1012"/>
<text text-anchor="start" x="519" y="-1018.63" font-family="Helvetica Bold" font-size="8.00" fill="white">EvaluationResult</text>
<text text-anchor="start" x="504" y="-1004.13" font-family="Helvetica Bold" font-size="8.00">gt_unit</text>
<text text-anchor="start" x="554" y="-1004.13" font-family="Helvetica Bold" font-size="8.00">CharField</text>
<text text-anchor="start" x="504" y="-992.133" font-family="Helvetica Bold" font-size="8.00">found_unit</text>
<text text-anchor="start" x="554" y="-992.133" font-family="Helvetica Bold" font-size="8.00">CharField</text>
<text text-anchor="start" x="504" y="-980.133" font-family="Helvetica Bold" font-size="8.00">KS</text>
<text text-anchor="start" x="554" y="-980.133" font-family="Helvetica Bold" font-size="8.00">IntegerField</text>
<text text-anchor="start" x="504" y="-968.133" font-family="Helvetica Bold" font-size="8.00">KSO</text>
<text text-anchor="start" x="554" y="-968.133" font-family="Helvetica Bold" font-size="8.00">IntegerField</text>
<text text-anchor="start" x="504" y="-956.133" font-family="Helvetica Bold" font-size="8.00">FS</text>
<text text-anchor="start" x="554" y="-956.133" font-family="Helvetica Bold" font-size="8.00">IntegerField</text>
<text text-anchor="start" x="504" y="-944.133" font-family="Helvetica Bold" font-size="8.00">TP</text>
<text text-anchor="start" x="554" y="-944.133" font-family="Helvetica Bold" font-size="8.00">IntegerField</text>
<text text-anchor="start" x="504" y="-932.133" font-family="Helvetica Bold" font-size="8.00">TPO</text>
<text text-anchor="start" x="554" y="-932.133" font-family="Helvetica Bold" font-size="8.00">IntegerField</text>
<text text-anchor="start" x="504" y="-920.133" font-family="Helvetica Bold" font-size="8.00">FPA</text>
<text text-anchor="start" x="554" y="-920.133" font-family="Helvetica Bold" font-size="8.00">IntegerField</text>
<text text-anchor="start" x="504" y="-908.133" font-family="Helvetica Bold" font-size="8.00">FPAE</text>
<text text-anchor="start" x="554" y="-908.133" font-family="Helvetica Bold" font-size="8.00">IntegerField</text>
<text text-anchor="start" x="504" y="-896.133" font-family="Helvetica Bold" font-size="8.00">FPAO</text>
<text text-anchor="start" x="554" y="-896.133" font-family="Helvetica Bold" font-size="8.00">IntegerField</text>
<text text-anchor="start" x="504" y="-884.133" font-family="Helvetica Bold" font-size="8.00">FPAOE</text>
<text text-anchor="start" x="554" y="-884.133" font-family="Helvetica Bold" font-size="8.00">IntegerField</text>
<text text-anchor="start" x="504" y="-872.133" font-family="Helvetica Bold" font-size="8.00">FN</text>
<text text-anchor="start" x="554" y="-872.133" font-family="Helvetica Bold" font-size="8.00">IntegerField</text>
<text text-anchor="start" x="504" y="-860.133" font-family="Helvetica Bold" font-size="8.00">FNO</text>
<text text-anchor="start" x="554" y="-860.133" font-family="Helvetica Bold" font-size="8.00">IntegerField</text>
<text text-anchor="start" x="504" y="-848.133" font-family="Helvetica Bold" font-size="8.00">FP</text>
<text text-anchor="start" x="554" y="-848.133" font-family="Helvetica Bold" font-size="8.00">IntegerField</text>
</g>
<!-- spike_metric_models_old_EvaluationResultImg -->
<g id="node38" class="node"><title>spike_metric_models_old_EvaluationResultImg</title>
<polygon fill="palegoldenrod" stroke="palegoldenrod" points="637.5,-916.5 637.5,-957.5 730.5,-957.5 730.5,-916.5 637.5,-916.5"/>
<polygon fill="#698b22" stroke="#698b22" points="638,-940 638,-957 731,-957 731,-940 638,-940"/>
<text text-anchor="start" x="643.5" y="-946.633" font-family="Helvetica Bold" font-size="8.00" fill="white">EvaluationResultImg</text>
<text text-anchor="start" x="640" y="-932.133" font-family="Helvetica Bold" font-size="8.00">file</text>
<text text-anchor="start" x="686" y="-932.133" font-family="Helvetica Bold" font-size="8.00">ImageField</text>
<text text-anchor="start" x="640" y="-920.133" font-family="Helvetica Bold" font-size="8.00">file_type</text>
<text text-anchor="start" x="686" y="-920.133" font-family="Helvetica Bold" font-size="8.00">CharField</text>
</g>
</g>
</svg>
