<?xml version="1.0" encoding="UTF-8" standalone="no"?>
<!DOCTYPE svg PUBLIC "-//W3C//DTD SVG 1.1//EN"
 "http://www.w3.org/Graphics/SVG/1.1/DTD/svg11.dtd">
<!-- Generated by graphviz version 2.26.3 (20100126.1600)
 -->
<!-- Title: name Pages: 1 -->
<svg width="1134pt" height="1042pt"
 viewBox="0.00 0.00 1134.00 1042.00" xmlns="http://www.w3.org/2000/svg" xmlns:xlink="http://www.w3.org/1999/xlink">
<g id="graph1" class="graph" transform="scale(1 1) rotate(0) translate(4 1038)">
<title>name</title>
<polygon fill="white" stroke="white" points="-4,5 -4,-1038 1131,-1038 1131,5 -4,5"/>
<!-- model_utils_models_TimeStampedModel -->
<g id="node1" class="node"><title>model_utils_models_TimeStampedModel</title>
<polygon fill="palegoldenrod" stroke="palegoldenrod" points="395.5,-916.5 395.5,-957.5 534.5,-957.5 534.5,-916.5 395.5,-916.5"/>
<polygon fill="#698b22" stroke="#698b22" points="396,-940 396,-957 535,-957 535,-940 396,-940"/>
<text text-anchor="start" x="426.5" y="-946.633" font-family="Helvetica Bold" font-size="8.00" fill="white">TimeStampedModel</text>
<text text-anchor="start" x="398" y="-932.133" font-family="Helvetica Bold" font-size="8.00">created</text>
<text text-anchor="start" x="442" y="-932.133" font-family="Helvetica Bold" font-size="8.00">AutoCreatedField</text>
<text text-anchor="start" x="398" y="-920.133" font-family="Helvetica Bold" font-size="8.00">modified</text>
<text text-anchor="start" x="442" y="-920.133" font-family="Helvetica Bold" font-size="8.00">AutoLastModifiedField</text>
</g>
<!-- model_utils_models_StatusModel -->
<g id="node2" class="node"><title>model_utils_models_StatusModel</title>
<polygon fill="palegoldenrod" stroke="palegoldenrod" points="568,-916.5 568,-957.5 692,-957.5 692,-916.5 568,-916.5"/>
<polygon fill="#698b22" stroke="#698b22" points="568,-940 568,-957 692,-957 692,-940 568,-940"/>
<text text-anchor="start" x="605" y="-946.633" font-family="Helvetica Bold" font-size="8.00" fill="white">StatusModel</text>
<text text-anchor="start" x="570" y="-932.133" font-family="Helvetica Bold" font-size="8.00">status</text>
<text text-anchor="start" x="639" y="-932.133" font-family="Helvetica Bold" font-size="8.00">StatusField</text>
<text text-anchor="start" x="570" y="-920.133" font-family="Helvetica Bold" font-size="8.00">status_changed</text>
<text text-anchor="start" x="639" y="-920.133" font-family="Helvetica Bold" font-size="8.00">MonitorField</text>
</g>
<!-- spike_core_algorithm_models_Algorithm -->
<g id="node3" class="node"><title>spike_core_algorithm_models_Algorithm</title>
<polygon fill="palegoldenrod" stroke="palegoldenrod" points="134,-298 134,-398 268,-398 268,-298 134,-298"/>
<polygon fill="#698b22" stroke="#698b22" points="134,-370 134,-398 268,-398 268,-370 134,-370"/>
<text text-anchor="start" x="181" y="-387.633" font-family="Helvetica Bold" font-size="8.00" fill="white">Algorithm</text>
<text text-anchor="start" x="159.5" y="-378.033" font-family="Helvetica Bold" font-size="8.00" fill="white">&lt;</text>
<text text-anchor="start" x="164.5" y="-378.033" font-family="Helvetica Italic" font-size="8.00" fill="white">TimeStampedModel</text>
<text text-anchor="start" x="237.5" y="-378.033" font-family="Helvetica Bold" font-size="8.00" fill="white">&gt;</text>
<text text-anchor="start" x="136" y="-362.133" font-family="Helvetica Bold" font-size="8.00" fill="#7b7b7b">id</text>
<text text-anchor="start" x="187" y="-362.133" font-family="Helvetica Bold" font-size="8.00" fill="#7b7b7b">AutoField</text>
<text text-anchor="start" x="136" y="-350.133" font-family="Helvetica Italic" font-size="8.00">created</text>
<text text-anchor="start" x="187" y="-350.133" font-family="Helvetica Italic" font-size="8.00">AutoCreatedField</text>
<text text-anchor="start" x="136" y="-338.133" font-family="Helvetica Italic" font-size="8.00">modified</text>
<text text-anchor="start" x="187" y="-338.133" font-family="Helvetica Italic" font-size="8.00">AutoLastModifiedField</text>
<text text-anchor="start" x="136" y="-326.133" font-family="Helvetica Bold" font-size="8.00">name</text>
<text text-anchor="start" x="187" y="-326.133" font-family="Helvetica Bold" font-size="8.00">CharField</text>
<text text-anchor="start" x="136" y="-314.133" font-family="Helvetica Bold" font-size="8.00">version</text>
<text text-anchor="start" x="187" y="-314.133" font-family="Helvetica Bold" font-size="8.00">CharField</text>
<text text-anchor="start" x="136" y="-302.133" font-family="Helvetica Bold" font-size="8.00" fill="#7b7b7b">description</text>
<text text-anchor="start" x="187" y="-302.133" font-family="Helvetica Bold" font-size="8.00" fill="#7b7b7b">TextField</text>
</g>
<!-- spike_core_algorithm_models_Algorithm&#45;&gt;spike_core_algorithm_models_Algorithm -->
<g id="edge6" class="edge"><title>spike_core_algorithm_models_Algorithm&#45;&gt;spike_core_algorithm_models_Algorithm</title>
<path fill="none" stroke="black" d="M276.17,-364.15C286.84,-361.54 294,-356.16 294,-348 294,-339.84 286.84,-334.46 276.17,-331.85"/>
<text text-anchor="middle" x="324" y="-346.8" font-family="Helvetica,sans-Serif" font-size="8.00">parent (children)</text>
</g>
<!-- django_contrib_auth_models_User -->
<g id="node4" class="node"><title>django_contrib_auth_models_User</title>
<polygon fill="palegoldenrod" stroke="palegoldenrod" points="12.5,-147.5 12.5,-164.5 41.5,-164.5 41.5,-147.5 12.5,-147.5"/>
<polygon fill="#698b22" stroke="#698b22" points="13,-147 13,-164 42,-164 42,-147 13,-147"/>
<text text-anchor="start" x="18" y="-153.633" font-family="Helvetica Bold" font-size="8.00" fill="white">User</text>
</g>
<!-- spike_core_algorithm_models_Algorithm&#45;&gt;django_contrib_auth_models_User -->
<g id="edge2" class="edge"><title>spike_core_algorithm_models_Algorithm&#45;&gt;django_contrib_auth_models_User</title>
<path fill="none" stroke="black" d="M125.59,-313.21C81.76,-292.23 33.977,-267.74 28,-258 12.253,-232.34 16.979,-195.78 21.931,-174.11"/>
<text text-anchor="middle" x="60" y="-250.8" font-family="Helvetica,sans-Serif" font-size="8.00">owner (algorithm)</text>
</g>
<!-- spike_core_datafile_models_Datafile -->
<g id="node6" class="node"><title>spike_core_datafile_models_Datafile</title>
<polygon fill="palegoldenrod" stroke="palegoldenrod" points="600,-88 600,-224 730,-224 730,-88 600,-88"/>
<polygon fill="#698b22" stroke="#698b22" points="600,-196 600,-224 730,-224 730,-196 600,-196"/>
<text text-anchor="start" x="649.5" y="-213.633" font-family="Helvetica Bold" font-size="8.00" fill="white">Datafile</text>
<text text-anchor="start" x="623.5" y="-204.033" font-family="Helvetica Bold" font-size="8.00" fill="white">&lt;</text>
<text text-anchor="start" x="628.5" y="-204.033" font-family="Helvetica Italic" font-size="8.00" fill="white">TimeStampedModel</text>
<text text-anchor="start" x="701.5" y="-204.033" font-family="Helvetica Bold" font-size="8.00" fill="white">&gt;</text>
<text text-anchor="start" x="602" y="-188.133" font-family="Helvetica Bold" font-size="8.00" fill="#7b7b7b">id</text>
<text text-anchor="start" x="649" y="-188.133" font-family="Helvetica Bold" font-size="8.00" fill="#7b7b7b">AutoField</text>
<text text-anchor="start" x="602" y="-176.133" font-family="Helvetica Italic" font-size="8.00">created</text>
<text text-anchor="start" x="649" y="-176.133" font-family="Helvetica Italic" font-size="8.00">AutoCreatedField</text>
<text text-anchor="start" x="602" y="-164.133" font-family="Helvetica Italic" font-size="8.00">modified</text>
<text text-anchor="start" x="649" y="-164.133" font-family="Helvetica Italic" font-size="8.00">AutoLastModifiedField</text>
<text text-anchor="start" x="602" y="-152.133" font-family="Helvetica Bold" font-size="8.00">name</text>
<text text-anchor="start" x="649" y="-152.133" font-family="Helvetica Bold" font-size="8.00">CharField</text>
<text text-anchor="start" x="602" y="-140.133" font-family="Helvetica Bold" font-size="8.00" fill="#7b7b7b">ext</text>
<text text-anchor="start" x="649" y="-140.133" font-family="Helvetica Bold" font-size="8.00" fill="#7b7b7b">CharField</text>
<text text-anchor="start" x="602" y="-128.133" font-family="Helvetica Bold" font-size="8.00" fill="#7b7b7b">sha1</text>
<text text-anchor="start" x="649" y="-128.133" font-family="Helvetica Bold" font-size="8.00" fill="#7b7b7b">CharField</text>
<text text-anchor="start" x="602" y="-116.133" font-family="Helvetica Bold" font-size="8.00">file</text>
<text text-anchor="start" x="649" y="-116.133" font-family="Helvetica Bold" font-size="8.00">FileField</text>
<text text-anchor="start" x="602" y="-104.133" font-family="Helvetica Bold" font-size="8.00" fill="#7b7b7b">file_type</text>
<text text-anchor="start" x="649" y="-104.133" font-family="Helvetica Bold" font-size="8.00" fill="#7b7b7b">TextField</text>
<text text-anchor="start" x="602" y="-92.1333" font-family="Helvetica Bold" font-size="8.00">object_id</text>
<text text-anchor="start" x="649" y="-92.1333" font-family="Helvetica Bold" font-size="8.00">PositiveIntegerField</text>
</g>
<!-- spike_core_algorithm_models_Algorithm&#45;&gt;spike_core_datafile_models_Datafile -->
<g id="edge4" class="edge"><title>spike_core_algorithm_models_Algorithm&#45;&gt;spike_core_datafile_models_Datafile</title>
<path fill="none" stroke="black" stroke-dasharray="1,5" d="M285.48,-308.4C310.23,-297.36 337.5,-285.73 363,-276 387.42,-266.68 394.46,-267.01 419,-258 450.21,-246.54 523.98,-215.77 582.65,-191"/>
<polygon fill="black" stroke="black" points="283.811,-305.313 276.12,-312.6 286.676,-311.699 283.811,-305.313"/>
<polygon fill="black" stroke="black" points="584.08,-194.195 591.93,-187.08 581.356,-187.747 584.08,-194.195"/>
<text text-anchor="middle" x="490" y="-250.8" font-family="Helvetica,sans-Serif" font-size="8.00">datafile_set (algorithm)</text>
</g>
<!-- taggit_models_TaggedItem -->
<g id="node9" class="node"><title>taggit_models_TaggedItem</title>
<polygon fill="palegoldenrod" stroke="palegoldenrod" points="235.5,-147.5 235.5,-164.5 292.5,-164.5 292.5,-147.5 235.5,-147.5"/>
<polygon fill="#698b22" stroke="#698b22" points="236,-147 236,-164 293,-164 293,-147 236,-147"/>
<text text-anchor="start" x="241" y="-153.633" font-family="Helvetica Bold" font-size="8.00" fill="white">TaggedItem</text>
</g>
<!-- spike_core_algorithm_models_Algorithm&#45;&gt;taggit_models_TaggedItem -->
<g id="edge8" class="edge"><title>spike_core_algorithm_models_Algorithm&#45;&gt;taggit_models_TaggedItem</title>
<path fill="none" stroke="black" stroke-dasharray="1,5" d="M201.43,-283.78C202.79,-271.04 205.13,-257.93 209,-246 216.5,-222.86 231.03,-199.5 243.27,-182.38"/>
<polygon fill="black" stroke="black" points="197.931,-283.609 200.53,-293.88 204.904,-284.23 197.931,-283.609"/>
<polygon fill="black" stroke="black" points="246.306,-184.16 249.41,-174.03 240.666,-180.013 246.306,-184.16"/>
<text text-anchor="middle" x="254" y="-250.8" font-family="Helvetica,sans-Serif" font-size="8.00">tagged_items (algorithm)</text>
</g>
<!-- django_contrib_contenttypes_models_ContentType -->
<g id="node11" class="node"><title>django_contrib_contenttypes_models_ContentType</title>
<polygon fill="palegoldenrod" stroke="palegoldenrod" points="634.5,-9.5 634.5,-26.5 695.5,-26.5 695.5,-9.5 634.5,-9.5"/>
<polygon fill="#698b22" stroke="#698b22" points="635,-9 635,-26 696,-26 696,-9 635,-9"/>
<text text-anchor="start" x="639.5" y="-15.6333" font-family="Helvetica Bold" font-size="8.00" fill="white">ContentType</text>
</g>
<!-- spike_core_datafile_models_Datafile&#45;&gt;django_contrib_contenttypes_models_ContentType -->
<g id="edge10" class="edge"><title>spike_core_datafile_models_Datafile&#45;&gt;django_contrib_contenttypes_models_ContentType</title>
<path fill="none" stroke="black" d="M665,-83.767C665,-66.029 665,-48.576 665,-36.112"/>
<text text-anchor="middle" x="705" y="-58.8" font-family="Helvetica,sans-Serif" font-size="8.00">content_type (datafile)</text>
</g>
<!-- spike_core_benchmark_models_Benchmark -->
<g id="node13" class="node"><title>spike_core_benchmark_models_Benchmark</title>
<polygon fill="palegoldenrod" stroke="palegoldenrod" points="379.5,-280 379.5,-416 532.5,-416 532.5,-280 379.5,-280"/>
<polygon fill="#698b22" stroke="#698b22" points="380,-388 380,-416 533,-416 533,-388 380,-388"/>
<text text-anchor="start" x="434" y="-405.633" font-family="Helvetica Bold" font-size="8.00" fill="white">Benchmark</text>
<text text-anchor="start" x="392" y="-396.033" font-family="Helvetica Bold" font-size="8.00" fill="white">&lt;</text>
<text text-anchor="start" x="397" y="-396.033" font-family="Helvetica Italic" font-size="8.00" fill="white">StatusModel,TimeStampedModel</text>
<text text-anchor="start" x="516" y="-396.033" font-family="Helvetica Bold" font-size="8.00" fill="white">&gt;</text>
<text text-anchor="start" x="382" y="-380.133" font-family="Helvetica Bold" font-size="8.00" fill="#7b7b7b">id</text>
<text text-anchor="start" x="452" y="-380.133" font-family="Helvetica Bold" font-size="8.00" fill="#7b7b7b">AutoField</text>
<text text-anchor="start" x="382" y="-368.133" font-family="Helvetica Italic" font-size="8.00">created</text>
<text text-anchor="start" x="452" y="-368.133" font-family="Helvetica Italic" font-size="8.00">AutoCreatedField</text>
<text text-anchor="start" x="382" y="-356.133" font-family="Helvetica Italic" font-size="8.00">modified</text>
<text text-anchor="start" x="452" y="-356.133" font-family="Helvetica Italic" font-size="8.00">AutoLastModifiedField</text>
<text text-anchor="start" x="382" y="-344.133" font-family="Helvetica Italic" font-size="8.00">status</text>
<text text-anchor="start" x="452" y="-344.133" font-family="Helvetica Italic" font-size="8.00">StatusField</text>
<text text-anchor="start" x="382" y="-332.133" font-family="Helvetica Italic" font-size="8.00">status_changed</text>
<text text-anchor="start" x="452" y="-332.133" font-family="Helvetica Italic" font-size="8.00">MonitorField</text>
<text text-anchor="start" x="382" y="-320.133" font-family="Helvetica Bold" font-size="8.00">name</text>
<text text-anchor="start" x="452" y="-320.133" font-family="Helvetica Bold" font-size="8.00">CharField</text>
<text text-anchor="start" x="382" y="-308.133" font-family="Helvetica Bold" font-size="8.00" fill="#7b7b7b">description</text>
<text text-anchor="start" x="452" y="-308.133" font-family="Helvetica Bold" font-size="8.00" fill="#7b7b7b">TextField</text>
<text text-anchor="start" x="382" y="-296.133" font-family="Helvetica Bold" font-size="8.00">parameter</text>
<text text-anchor="start" x="452" y="-296.133" font-family="Helvetica Bold" font-size="8.00">CharField</text>
<text text-anchor="start" x="382" y="-284.133" font-family="Helvetica Bold" font-size="8.00">gt_access</text>
<text text-anchor="start" x="452" y="-284.133" font-family="Helvetica Bold" font-size="8.00">CharField</text>
</g>
<!-- spike_core_benchmark_models_Benchmark&#45;&gt;django_contrib_auth_models_User -->
<g id="edge12" class="edge"><title>spike_core_benchmark_models_Benchmark&#45;&gt;django_contrib_auth_models_User</title>
<path fill="none" stroke="black" d="M371.8,-279.78C368.89,-278.4 365.95,-277.14 363,-276 266.51,-238.78 225.15,-300.79 131,-258 90.478,-239.58 56.517,-198.28 39.249,-174.26"/>
<text text-anchor="middle" x="166.5" y="-250.8" font-family="Helvetica,sans-Serif" font-size="8.00">owner (benchmark)</text>
</g>
<!-- spike_core_benchmark_models_Benchmark&#45;&gt;spike_core_datafile_models_Datafile -->
<g id="edge14" class="edge"><title>spike_core_benchmark_models_Benchmark&#45;&gt;spike_core_datafile_models_Datafile</title>
<path fill="none" stroke="black" stroke-dasharray="1,5" d="M524.55,-268.13C531.93,-260.46 539.49,-252.95 547,-246 558.51,-235.35 571.21,-224.67 583.9,-214.58"/>
<polygon fill="black" stroke="black" points="521.571,-266.185 517.23,-275.85 526.65,-271.002 521.571,-266.185"/>
<polygon fill="black" stroke="black" points="586.078,-217.32 591.78,-208.39 581.754,-211.815 586.078,-217.32"/>
<text text-anchor="middle" x="591.5" y="-250.8" font-family="Helvetica,sans-Serif" font-size="8.00">datafile_set (benchmark)</text>
</g>
<!-- spike_core_benchmark_models_Benchmark&#45;&gt;taggit_models_TaggedItem -->
<g id="edge16" class="edge"><title>spike_core_benchmark_models_Benchmark&#45;&gt;taggit_models_TaggedItem</title>
<path fill="none" stroke="black" stroke-dasharray="1,5" d="M363.28,-276.17C363.19,-276.11 363.09,-276.06 363,-276 345.89,-265.83 336.78,-271.33 322,-258 299.33,-237.56 283.33,-206.11 273.96,-183.53"/>
<polygon fill="black" stroke="black" points="361.634,-279.267 371.98,-281.55 365.316,-273.314 361.634,-279.267"/>
<polygon fill="black" stroke="black" points="277.18,-182.156 270.23,-174.16 270.677,-184.745 277.18,-182.156"/>
<text text-anchor="middle" x="370.5" y="-250.8" font-family="Helvetica,sans-Serif" font-size="8.00">tagged_items (benchmark)</text>
</g>
<!-- spike_core_benchmark_models_Trial -->
<g id="node17" class="node"><title>spike_core_benchmark_models_Trial</title>
<polygon fill="palegoldenrod" stroke="palegoldenrod" points="612.5,-472 612.5,-608 749.5,-608 749.5,-472 612.5,-472"/>
<polygon fill="#698b22" stroke="#698b22" points="613,-580 613,-608 750,-608 750,-580 613,-580"/>
<text text-anchor="start" x="672.5" y="-597.633" font-family="Helvetica Bold" font-size="8.00" fill="white">Trial</text>
<text text-anchor="start" x="640" y="-588.033" font-family="Helvetica Bold" font-size="8.00" fill="white">&lt;</text>
<text text-anchor="start" x="645" y="-588.033" font-family="Helvetica Italic" font-size="8.00" fill="white">TimeStampedModel</text>
<text text-anchor="start" x="718" y="-588.033" font-family="Helvetica Bold" font-size="8.00" fill="white">&gt;</text>
<text text-anchor="start" x="615" y="-572.133" font-family="Helvetica Bold" font-size="8.00" fill="#7b7b7b">id</text>
<text text-anchor="start" x="669" y="-572.133" font-family="Helvetica Bold" font-size="8.00" fill="#7b7b7b">AutoField</text>
<text text-anchor="start" x="615" y="-560.133" font-family="Helvetica Italic" font-size="8.00">created</text>
<text text-anchor="start" x="669" y="-560.133" font-family="Helvetica Italic" font-size="8.00">AutoCreatedField</text>
<text text-anchor="start" x="615" y="-548.133" font-family="Helvetica Italic" font-size="8.00">modified</text>
<text text-anchor="start" x="669" y="-548.133" font-family="Helvetica Italic" font-size="8.00">AutoLastModifiedField</text>
<text text-anchor="start" x="615" y="-536.133" font-family="Helvetica Bold" font-size="8.00">name</text>
<text text-anchor="start" x="669" y="-536.133" font-family="Helvetica Bold" font-size="8.00">CharField</text>
<text text-anchor="start" x="615" y="-524.133" font-family="Helvetica Bold" font-size="8.00" fill="#7b7b7b">description</text>
<text text-anchor="start" x="669" y="-524.133" font-family="Helvetica Bold" font-size="8.00" fill="#7b7b7b">TextField</text>
<text text-anchor="start" x="615" y="-512.133" font-family="Helvetica Bold" font-size="8.00">parameter</text>
<text text-anchor="start" x="669" y="-512.133" font-family="Helvetica Bold" font-size="8.00">FloatField</text>
<text text-anchor="start" x="615" y="-500.133" font-family="Helvetica Bold" font-size="8.00" fill="#7b7b7b">valid_rd_log</text>
<text text-anchor="start" x="669" y="-500.133" font-family="Helvetica Bold" font-size="8.00" fill="#7b7b7b">TextField</text>
<text text-anchor="start" x="615" y="-488.133" font-family="Helvetica Bold" font-size="8.00" fill="#7b7b7b">valid_gt_log</text>
<text text-anchor="start" x="669" y="-488.133" font-family="Helvetica Bold" font-size="8.00" fill="#7b7b7b">TextField</text>
<text text-anchor="start" x="615" y="-476.133" font-family="Helvetica Bold" font-size="8.00">gt_type</text>
<text text-anchor="start" x="669" y="-476.133" font-family="Helvetica Bold" font-size="8.00">CharField</text>
</g>
<!-- spike_core_benchmark_models_Trial&#45;&gt;spike_core_datafile_models_Datafile -->
<g id="edge18" class="edge"><title>spike_core_benchmark_models_Trial&#45;&gt;spike_core_datafile_models_Datafile</title>
<path fill="none" stroke="black" stroke-dasharray="1,5" d="M677.56,-457.5C674.87,-392.77 671.13,-303.09 668.43,-238.39"/>
<polygon fill="black" stroke="black" points="674.075,-457.925 677.99,-467.77 681.069,-457.632 674.075,-457.925"/>
<polygon fill="black" stroke="black" points="671.92,-238.077 668.01,-228.23 664.926,-238.366 671.92,-238.077"/>
<text text-anchor="middle" x="706" y="-346.8" font-family="Helvetica,sans-Serif" font-size="8.00">datafile_set (trial)</text>
</g>
<!-- spike_core_benchmark_models_Trial&#45;&gt;spike_core_benchmark_models_Benchmark -->
<g id="edge20" class="edge"><title>spike_core_benchmark_models_Trial&#45;&gt;spike_core_benchmark_models_Benchmark</title>
<path fill="none" stroke="black" d="M604.83,-475C584.04,-457.26 561.41,-437.95 540.21,-419.86"/>
<text text-anchor="middle" x="605.5" y="-442.8" font-family="Helvetica,sans-Serif" font-size="8.00">benchmark (trial)</text>
</g>
<!-- spike_core_evaluation_models_Batch -->
<g id="node20" class="node"><title>spike_core_evaluation_models_Batch</title>
<polygon fill="palegoldenrod" stroke="palegoldenrod" points="379.5,-490 379.5,-590 532.5,-590 532.5,-490 379.5,-490"/>
<polygon fill="#698b22" stroke="#698b22" points="380,-562 380,-590 533,-590 533,-562 380,-562"/>
<text text-anchor="start" x="444.5" y="-579.633" font-family="Helvetica Bold" font-size="8.00" fill="white">Batch</text>
<text text-anchor="start" x="392" y="-570.033" font-family="Helvetica Bold" font-size="8.00" fill="white">&lt;</text>
<text text-anchor="start" x="397" y="-570.033" font-family="Helvetica Italic" font-size="8.00" fill="white">StatusModel,TimeStampedModel</text>
<text text-anchor="start" x="516" y="-570.033" font-family="Helvetica Bold" font-size="8.00" fill="white">&gt;</text>
<text text-anchor="start" x="382" y="-554.133" font-family="Helvetica Bold" font-size="8.00" fill="#7b7b7b">id</text>
<text text-anchor="start" x="452" y="-554.133" font-family="Helvetica Bold" font-size="8.00" fill="#7b7b7b">AutoField</text>
<text text-anchor="start" x="382" y="-542.133" font-family="Helvetica Italic" font-size="8.00">created</text>
<text text-anchor="start" x="452" y="-542.133" font-family="Helvetica Italic" font-size="8.00">AutoCreatedField</text>
<text text-anchor="start" x="382" y="-530.133" font-family="Helvetica Italic" font-size="8.00">modified</text>
<text text-anchor="start" x="452" y="-530.133" font-family="Helvetica Italic" font-size="8.00">AutoLastModifiedField</text>
<text text-anchor="start" x="382" y="-518.133" font-family="Helvetica Italic" font-size="8.00">status</text>
<text text-anchor="start" x="452" y="-518.133" font-family="Helvetica Italic" font-size="8.00">StatusField</text>
<text text-anchor="start" x="382" y="-506.133" font-family="Helvetica Italic" font-size="8.00">status_changed</text>
<text text-anchor="start" x="452" y="-506.133" font-family="Helvetica Italic" font-size="8.00">MonitorField</text>
<text text-anchor="start" x="382" y="-494.133" font-family="Helvetica Bold" font-size="8.00" fill="#7b7b7b">description</text>
<text text-anchor="start" x="452" y="-494.133" font-family="Helvetica Bold" font-size="8.00" fill="#7b7b7b">TextField</text>
</g>
<!-- spike_core_evaluation_models_Batch&#45;&gt;spike_core_algorithm_models_Algorithm -->
<g id="edge26" class="edge"><title>spike_core_evaluation_models_Batch&#45;&gt;spike_core_algorithm_models_Algorithm</title>
<path fill="none" stroke="black" d="M383.95,-485.75C349.19,-459.58 307.61,-428.27 272.87,-402.12"/>
<text text-anchor="middle" x="366.5" y="-442.8" font-family="Helvetica,sans-Serif" font-size="8.00">algorithm (batch)</text>
</g>
<!-- spike_core_evaluation_models_Batch&#45;&gt;django_contrib_auth_models_User -->
<g id="edge22" class="edge"><title>spike_core_evaluation_models_Batch&#45;&gt;django_contrib_auth_models_User</title>
<path fill="none" stroke="black" d="M371.79,-523.88C270.48,-502.86 108.67,-463.61 66,-420 -0.90858,-351.61 14.749,-221.78 23.306,-174.12"/>
<text text-anchor="middle" x="91.5" y="-346.8" font-family="Helvetica,sans-Serif" font-size="8.00">owner (batch)</text>
</g>
<!-- spike_core_evaluation_models_Batch&#45;&gt;spike_core_datafile_models_Datafile -->
<g id="edge24" class="edge"><title>spike_core_evaluation_models_Batch&#45;&gt;spike_core_datafile_models_Datafile</title>
<path fill="none" stroke="black" stroke-dasharray="1,5" d="M506.7,-477.69C513.94,-468.48 521.23,-459.04 528,-450 537.76,-436.97 541.68,-434.54 549,-420 579.33,-359.74 552.01,-326.27 597,-276 609.73,-261.78 623.59,-272.51 636,-258 641.22,-251.9 645.5,-244.92 649.01,-237.54"/>
<polygon fill="black" stroke="black" points="503.814,-475.697 500.35,-485.71 509.302,-480.043 503.814,-475.697"/>
<polygon fill="black" stroke="black" points="652.37,-238.582 653.06,-228.01 645.928,-235.844 652.37,-238.582"/>
<text text-anchor="middle" x="631.5" y="-346.8" font-family="Helvetica,sans-Serif" font-size="8.00">datafile_set (batch)</text>
</g>
<!-- spike_core_evaluation_models_Batch&#45;&gt;spike_core_benchmark_models_Benchmark -->
<g id="edge28" class="edge"><title>spike_core_evaluation_models_Batch&#45;&gt;spike_core_benchmark_models_Benchmark</title>
<path fill="none" stroke="black" d="M456,-485.75C456,-465.35 456,-441.82 456,-420.04"/>
<text text-anchor="middle" x="490" y="-442.8" font-family="Helvetica,sans-Serif" font-size="8.00">benchmark (batch)</text>
</g>
<!-- spike_core_evaluation_models_Evaluation -->
<g id="node25" class="node"><title>spike_core_evaluation_models_Evaluation</title>
<polygon fill="palegoldenrod" stroke="palegoldenrod" points="627.5,-664 627.5,-788 780.5,-788 780.5,-664 627.5,-664"/>
<polygon fill="#698b22" stroke="#698b22" points="628,-760 628,-788 781,-788 781,-760 628,-760"/>
<text text-anchor="start" x="683" y="-777.633" font-family="Helvetica Bold" font-size="8.00" fill="white">Evaluation</text>
<text text-anchor="start" x="640" y="-768.033" font-family="Helvetica Bold" font-size="8.00" fill="white">&lt;</text>
<text text-anchor="start" x="645" y="-768.033" font-family="Helvetica Italic" font-size="8.00" fill="white">StatusModel,TimeStampedModel</text>
<text text-anchor="start" x="764" y="-768.033" font-family="Helvetica Bold" font-size="8.00" fill="white">&gt;</text>
<text text-anchor="start" x="630" y="-752.133" font-family="Helvetica Bold" font-size="8.00" fill="#7b7b7b">id</text>
<text text-anchor="start" x="700" y="-752.133" font-family="Helvetica Bold" font-size="8.00" fill="#7b7b7b">AutoField</text>
<text text-anchor="start" x="630" y="-740.133" font-family="Helvetica Italic" font-size="8.00">created</text>
<text text-anchor="start" x="700" y="-740.133" font-family="Helvetica Italic" font-size="8.00">AutoCreatedField</text>
<text text-anchor="start" x="630" y="-728.133" font-family="Helvetica Italic" font-size="8.00">modified</text>
<text text-anchor="start" x="700" y="-728.133" font-family="Helvetica Italic" font-size="8.00">AutoLastModifiedField</text>
<text text-anchor="start" x="630" y="-716.133" font-family="Helvetica Italic" font-size="8.00">status</text>
<text text-anchor="start" x="700" y="-716.133" font-family="Helvetica Italic" font-size="8.00">StatusField</text>
<text text-anchor="start" x="630" y="-704.133" font-family="Helvetica Italic" font-size="8.00">status_changed</text>
<text text-anchor="start" x="700" y="-704.133" font-family="Helvetica Italic" font-size="8.00">MonitorField</text>
<text text-anchor="start" x="630" y="-692.133" font-family="Helvetica Bold" font-size="8.00" fill="#7b7b7b">task_id</text>
<text text-anchor="start" x="700" y="-692.133" font-family="Helvetica Bold" font-size="8.00" fill="#7b7b7b">CharField</text>
<text text-anchor="start" x="630" y="-680.133" font-family="Helvetica Bold" font-size="8.00" fill="#7b7b7b">task_log</text>
<text text-anchor="start" x="700" y="-680.133" font-family="Helvetica Bold" font-size="8.00" fill="#7b7b7b">TextField</text>
<text text-anchor="start" x="630" y="-668.133" font-family="Helvetica Bold" font-size="8.00" fill="#7b7b7b">valid_ev_log</text>
<text text-anchor="start" x="700" y="-668.133" font-family="Helvetica Bold" font-size="8.00" fill="#7b7b7b">TextField</text>
</g>
<!-- spike_core_evaluation_models_Evaluation&#45;&gt;spike_core_datafile_models_Datafile -->
<g id="edge30" class="edge"><title>spike_core_evaluation_models_Evaluation&#45;&gt;spike_core_datafile_models_Datafile</title>
<path fill="none" stroke="black" stroke-dasharray="1,5" d="M750.58,-650.83C752.12,-647.87 753.59,-644.92 755,-642 794.55,-559.83 786.95,-528.65 777,-438 768.95,-364.68 769.15,-344.17 741,-276 735.57,-262.85 728.73,-249.53 721.39,-236.79"/>
<polygon fill="black" stroke="black" points="747.462,-649.239 745.85,-659.71 753.64,-652.529 747.462,-649.239"/>
<polygon fill="black" stroke="black" points="724.339,-234.901 716.24,-228.07 718.312,-238.46 724.339,-234.901"/>
<text text-anchor="middle" x="820.5" y="-442.8" font-family="Helvetica,sans-Serif" font-size="8.00">datafile_set (evaluation)</text>
</g>
<!-- spike_core_evaluation_models_Evaluation&#45;&gt;spike_core_benchmark_models_Trial -->
<g id="edge32" class="edge"><title>spike_core_evaluation_models_Evaluation&#45;&gt;spike_core_benchmark_models_Trial</title>
<path fill="none" stroke="black" d="M695.83,-659.9C693.92,-644.45 691.87,-627.91 689.93,-612.2"/>
<text text-anchor="middle" x="722" y="-634.8" font-family="Helvetica,sans-Serif" font-size="8.00">trial (evaluation)</text>
</g>
<!-- spike_core_evaluation_models_Evaluation&#45;&gt;spike_core_evaluation_models_Batch -->
<g id="edge34" class="edge"><title>spike_core_evaluation_models_Evaluation&#45;&gt;spike_core_evaluation_models_Batch</title>
<path fill="none" stroke="black" d="M619.69,-662.77C589.92,-640.44 556.74,-615.56 528.08,-594.06"/>
<text text-anchor="middle" x="619" y="-634.8" font-family="Helvetica,sans-Serif" font-size="8.00">batch (evaluation)</text>
</g>
<!-- spike_metric_models_core_Metric -->
<g id="node29" class="node"><title>spike_metric_models_core_Metric</title>
<polygon fill="palegoldenrod" stroke="palegoldenrod" points="846,-472 846,-608 980,-608 980,-472 846,-472"/>
<polygon fill="#698b22" stroke="#698b22" points="846,-580 846,-608 980,-608 980,-580 846,-580"/>
<text text-anchor="start" x="900.5" y="-597.633" font-family="Helvetica Bold" font-size="8.00" fill="white">Metric</text>
<text text-anchor="start" x="871.5" y="-588.033" font-family="Helvetica Bold" font-size="8.00" fill="white">&lt;</text>
<text text-anchor="start" x="876.5" y="-588.033" font-family="Helvetica Italic" font-size="8.00" fill="white">TimeStampedModel</text>
<text text-anchor="start" x="949.5" y="-588.033" font-family="Helvetica Bold" font-size="8.00" fill="white">&gt;</text>
<text text-anchor="start" x="848" y="-572.133" font-family="Helvetica Bold" font-size="8.00" fill="#7b7b7b">id</text>
<text text-anchor="start" x="899" y="-572.133" font-family="Helvetica Bold" font-size="8.00" fill="#7b7b7b">AutoField</text>
<text text-anchor="start" x="848" y="-560.133" font-family="Helvetica Italic" font-size="8.00">created</text>
<text text-anchor="start" x="899" y="-560.133" font-family="Helvetica Italic" font-size="8.00">AutoCreatedField</text>
<text text-anchor="start" x="848" y="-548.133" font-family="Helvetica Italic" font-size="8.00">modified</text>
<text text-anchor="start" x="899" y="-548.133" font-family="Helvetica Italic" font-size="8.00">AutoLastModifiedField</text>
<text text-anchor="start" x="848" y="-536.133" font-family="Helvetica Bold" font-size="8.00">name</text>
<text text-anchor="start" x="899" y="-536.133" font-family="Helvetica Bold" font-size="8.00">CharField</text>
<text text-anchor="start" x="848" y="-524.133" font-family="Helvetica Bold" font-size="8.00" fill="#7b7b7b">version</text>
<text text-anchor="start" x="899" y="-524.133" font-family="Helvetica Bold" font-size="8.00" fill="#7b7b7b">CharField</text>
<text text-anchor="start" x="848" y="-512.133" font-family="Helvetica Bold" font-size="8.00" fill="#7b7b7b">description</text>
<text text-anchor="start" x="899" y="-512.133" font-family="Helvetica Bold" font-size="8.00" fill="#7b7b7b">TextField</text>
<text text-anchor="start" x="848" y="-500.133" font-family="Helvetica Bold" font-size="8.00">exec_name</text>
<text text-anchor="start" x="899" y="-500.133" font-family="Helvetica Bold" font-size="8.00">TextField</text>
<text text-anchor="start" x="848" y="-488.133" font-family="Helvetica Bold" font-size="8.00" fill="#7b7b7b">temp_name</text>
<text text-anchor="start" x="899" y="-488.133" font-family="Helvetica Bold" font-size="8.00" fill="#7b7b7b">TextField</text>
<text text-anchor="start" x="848" y="-476.133" font-family="Helvetica Bold" font-size="8.00" fill="#7b7b7b">rest_name</text>
<text text-anchor="start" x="899" y="-476.133" font-family="Helvetica Bold" font-size="8.00" fill="#7b7b7b">TextField</text>
</g>
<!-- spike_metric_models_core_Metric&#45;&gt;spike_core_datafile_models_Datafile -->
<g id="edge36" class="edge"><title>spike_metric_models_core_Metric&#45;&gt;spike_core_datafile_models_Datafile</title>
<path fill="none" stroke="black" stroke-dasharray="1,5" d="M906.5,-457.63C897.5,-393.35 876.07,-305.31 825,-246 804.17,-221.81 775.14,-202.77 747.52,-188.55"/>
<polygon fill="black" stroke="black" points="903.055,-458.277 907.84,-467.73 909.994,-457.357 903.055,-458.277"/>
<polygon fill="black" stroke="black" points="748.731,-185.243 738.22,-183.91 745.606,-191.506 748.731,-185.243"/>
<text text-anchor="middle" x="935.5" y="-346.8" font-family="Helvetica,sans-Serif" font-size="8.00">datafile_set (metric)</text>
</g>
<!-- spike_metric_models_core_Metric&#45;&gt;spike_core_benchmark_models_Benchmark -->
<g id="edge38" class="edge"><title>spike_metric_models_core_Metric&#45;&gt;spike_core_benchmark_models_Benchmark</title>
<path fill="none" stroke="black" d="M830.48,-495.61C809.81,-485.61 787.41,-475.69 766,-468 711.82,-448.55 696.18,-450.56 640,-438 601.89,-429.48 589.66,-435.92 554,-420 551.83,-419.03 549.66,-418.01 547.5,-416.94"/>
<ellipse fill="black" stroke="black" cx="834.127" cy="-497.393" rx="4.00002" ry="4.00002"/>
<ellipse fill="black" stroke="black" cx="543.728" cy="-414.977" rx="4.00002" ry="4.00002"/>
<text text-anchor="middle" x="736" y="-442.8" font-family="Helvetica,sans-Serif" font-size="8.00">benchmarks (metric)</text>
</g>
<!-- spike_metric_models_core_Result -->
<g id="node32" class="node"><title>spike_metric_models_core_Result</title>
<polygon fill="palegoldenrod" stroke="palegoldenrod" points="726,-905 726,-969 856,-969 856,-905 726,-905"/>
<polygon fill="#698b22" stroke="#698b22" points="726,-941 726,-969 856,-969 856,-941 726,-941"/>
<text text-anchor="start" x="778" y="-958.633" font-family="Helvetica Bold" font-size="8.00" fill="white">Result</text>
<text text-anchor="start" x="749.5" y="-949.033" font-family="Helvetica Bold" font-size="8.00" fill="white">&lt;</text>
<text text-anchor="start" x="754.5" y="-949.033" font-family="Helvetica Italic" font-size="8.00" fill="white">TimeStampedModel</text>
<text text-anchor="start" x="827.5" y="-949.033" font-family="Helvetica Bold" font-size="8.00" fill="white">&gt;</text>
<text text-anchor="start" x="728" y="-933.133" font-family="Helvetica Bold" font-size="8.00" fill="#7b7b7b">id</text>
<text text-anchor="start" x="775" y="-933.133" font-family="Helvetica Bold" font-size="8.00" fill="#7b7b7b">AutoField</text>
<text text-anchor="start" x="728" y="-921.133" font-family="Helvetica Italic" font-size="8.00">created</text>
<text text-anchor="start" x="775" y="-921.133" font-family="Helvetica Italic" font-size="8.00">AutoCreatedField</text>
<text text-anchor="start" x="728" y="-909.133" font-family="Helvetica Italic" font-size="8.00">modified</text>
<text text-anchor="start" x="775" y="-909.133" font-family="Helvetica Italic" font-size="8.00">AutoLastModifiedField</text>
</g>
<!-- spike_metric_models_core_Result&#45;&gt;spike_core_evaluation_models_Evaluation -->
<g id="edge42" class="edge"><title>spike_metric_models_core_Result&#45;&gt;spike_core_evaluation_models_Evaluation</title>
<path fill="none" stroke="black" d="M776.04,-900.73C763.75,-870.92 746.02,-827.9 731.22,-792.01"/>
<text text-anchor="middle" x="774" y="-814.8" font-family="Helvetica,sans-Serif" font-size="8.00">evaluation (result)</text>
</g>
<!-- spike_metric_models_core_Result&#45;&gt;spike_metric_models_core_Metric -->
<g id="edge40" class="edge"><title>spike_metric_models_core_Result&#45;&gt;spike_metric_models_core_Metric</title>
<path fill="none" stroke="black" d="M802.15,-900.72C822.18,-835.54 864.59,-697.52 890.76,-612.36"/>
<text text-anchor="middle" x="900" y="-724.8" font-family="Helvetica,sans-Serif" font-size="8.00">metric (result)</text>
</g>
<!-- spike_metric_models_old_EvaluationResult -->
<g id="node35" class="node"><title>spike_metric_models_old_EvaluationResult</title>
<polygon fill="palegoldenrod" stroke="palegoldenrod" points="890,-844.5 890,-1029.5 992,-1029.5 992,-844.5 890,-844.5"/>
<polygon fill="#698b22" stroke="#698b22" points="890,-1012 890,-1029 992,-1029 992,-1012 890,-1012"/>
<text text-anchor="start" x="907" y="-1018.63" font-family="Helvetica Bold" font-size="8.00" fill="white">EvaluationResult</text>
<text text-anchor="start" x="892" y="-1004.13" font-family="Helvetica Bold" font-size="8.00">gt_unit</text>
<text text-anchor="start" x="942" y="-1004.13" font-family="Helvetica Bold" font-size="8.00">CharField</text>
<text text-anchor="start" x="892" y="-992.133" font-family="Helvetica Bold" font-size="8.00">found_unit</text>
<text text-anchor="start" x="942" y="-992.133" font-family="Helvetica Bold" font-size="8.00">CharField</text>
<text text-anchor="start" x="892" y="-980.133" font-family="Helvetica Bold" font-size="8.00">KS</text>
<text text-anchor="start" x="942" y="-980.133" font-family="Helvetica Bold" font-size="8.00">IntegerField</text>
<text text-anchor="start" x="892" y="-968.133" font-family="Helvetica Bold" font-size="8.00">KSO</text>
<text text-anchor="start" x="942" y="-968.133" font-family="Helvetica Bold" font-size="8.00">IntegerField</text>
<text text-anchor="start" x="892" y="-956.133" font-family="Helvetica Bold" font-size="8.00">FS</text>
<text text-anchor="start" x="942" y="-956.133" font-family="Helvetica Bold" font-size="8.00">IntegerField</text>
<text text-anchor="start" x="892" y="-944.133" font-family="Helvetica Bold" font-size="8.00">TP</text>
<text text-anchor="start" x="942" y="-944.133" font-family="Helvetica Bold" font-size="8.00">IntegerField</text>
<text text-anchor="start" x="892" y="-932.133" font-family="Helvetica Bold" font-size="8.00">TPO</text>
<text text-anchor="start" x="942" y="-932.133" font-family="Helvetica Bold" font-size="8.00">IntegerField</text>
<text text-anchor="start" x="892" y="-920.133" font-family="Helvetica Bold" font-size="8.00">FPA</text>
<text text-anchor="start" x="942" y="-920.133" font-family="Helvetica Bold" font-size="8.00">IntegerField</text>
<text text-anchor="start" x="892" y="-908.133" font-family="Helvetica Bold" font-size="8.00">FPAE</text>
<text text-anchor="start" x="942" y="-908.133" font-family="Helvetica Bold" font-size="8.00">IntegerField</text>
<text text-anchor="start" x="892" y="-896.133" font-family="Helvetica Bold" font-size="8.00">FPAO</text>
<text text-anchor="start" x="942" y="-896.133" font-family="Helvetica Bold" font-size="8.00">IntegerField</text>
<text text-anchor="start" x="892" y="-884.133" font-family="Helvetica Bold" font-size="8.00">FPAOE</text>
<text text-anchor="start" x="942" y="-884.133" font-family="Helvetica Bold" font-size="8.00">IntegerField</text>
<text text-anchor="start" x="892" y="-872.133" font-family="Helvetica Bold" font-size="8.00">FN</text>
<text text-anchor="start" x="942" y="-872.133" font-family="Helvetica Bold" font-size="8.00">IntegerField</text>
<text text-anchor="start" x="892" y="-860.133" font-family="Helvetica Bold" font-size="8.00">FNO</text>
<text text-anchor="start" x="942" y="-860.133" font-family="Helvetica Bold" font-size="8.00">IntegerField</text>
<text text-anchor="start" x="892" y="-848.133" font-family="Helvetica Bold" font-size="8.00">FP</text>
<text text-anchor="start" x="942" y="-848.133" font-family="Helvetica Bold" font-size="8.00">IntegerField</text>
</g>
<!-- spike_metric_models_old_EvaluationResultImg -->
<g id="node36" class="node"><title>spike_metric_models_old_EvaluationResultImg</title>
<polygon fill="palegoldenrod" stroke="palegoldenrod" points="1025.5,-916.5 1025.5,-957.5 1118.5,-957.5 1118.5,-916.5 1025.5,-916.5"/>
<polygon fill="#698b22" stroke="#698b22" points="1026,-940 1026,-957 1119,-957 1119,-940 1026,-940"/>
<text text-anchor="start" x="1031.5" y="-946.633" font-family="Helvetica Bold" font-size="8.00" fill="white">EvaluationResultImg</text>
<text text-anchor="start" x="1028" y="-932.133" font-family="Helvetica Bold" font-size="8.00">file</text>
<text text-anchor="start" x="1074" y="-932.133" font-family="Helvetica Bold" font-size="8.00">ImageField</text>
<text text-anchor="start" x="1028" y="-920.133" font-family="Helvetica Bold" font-size="8.00">file_type</text>
<text text-anchor="start" x="1074" y="-920.133" font-family="Helvetica Bold" font-size="8.00">CharField</text>
</g>
</g>
</svg>
