<?xml version="1.0" encoding="UTF-8" standalone="no"?>
<!DOCTYPE svg PUBLIC "-//W3C//DTD SVG 1.1//EN"
 "http://www.w3.org/Graphics/SVG/1.1/DTD/svg11.dtd">
<!-- Generated by graphviz version 2.26.3 (20100126.1600)
 -->
<!-- Title: name Pages: 1 -->
<svg width="1071pt" height="1150pt"
 viewBox="0.00 0.00 1071.00 1150.00" xmlns="http://www.w3.org/2000/svg" xmlns:xlink="http://www.w3.org/1999/xlink">
<g id="graph1" class="graph" transform="scale(1 1) rotate(0) translate(4 1146)">
<title>name</title>
<polygon fill="white" stroke="white" points="-4,5 -4,-1146 1068,-1146 1068,5 -4,5"/>
<!-- model_utils_models_TimeStampedModel -->
<g id="node1" class="node"><title>model_utils_models_TimeStampedModel</title>
<polygon fill="palegoldenrod" stroke="palegoldenrod" points="7.5,-1024.5 7.5,-1065.5 146.5,-1065.5 146.5,-1024.5 7.5,-1024.5"/>
<polygon fill="#698b22" stroke="#698b22" points="8,-1048 8,-1065 147,-1065 147,-1048 8,-1048"/>
<text text-anchor="start" x="38.5" y="-1054.63" font-family="Helvetica Bold" font-size="8.00" fill="white">TimeStampedModel</text>
<text text-anchor="start" x="10" y="-1040.13" font-family="Helvetica Bold" font-size="8.00">created</text>
<text text-anchor="start" x="54" y="-1040.13" font-family="Helvetica Bold" font-size="8.00">AutoCreatedField</text>
<text text-anchor="start" x="10" y="-1028.13" font-family="Helvetica Bold" font-size="8.00">modified</text>
<text text-anchor="start" x="54" y="-1028.13" font-family="Helvetica Bold" font-size="8.00">AutoLastModifiedField</text>
</g>
<!-- model_utils_models_StatusModel -->
<g id="node2" class="node"><title>model_utils_models_StatusModel</title>
<polygon fill="palegoldenrod" stroke="palegoldenrod" points="180,-1024.5 180,-1065.5 304,-1065.5 304,-1024.5 180,-1024.5"/>
<polygon fill="#698b22" stroke="#698b22" points="180,-1048 180,-1065 304,-1065 304,-1048 180,-1048"/>
<text text-anchor="start" x="217" y="-1054.63" font-family="Helvetica Bold" font-size="8.00" fill="white">StatusModel</text>
<text text-anchor="start" x="182" y="-1040.13" font-family="Helvetica Bold" font-size="8.00">status</text>
<text text-anchor="start" x="251" y="-1040.13" font-family="Helvetica Bold" font-size="8.00">StatusField</text>
<text text-anchor="start" x="182" y="-1028.13" font-family="Helvetica Bold" font-size="8.00">status_changed</text>
<text text-anchor="start" x="251" y="-1028.13" font-family="Helvetica Bold" font-size="8.00">MonitorField</text>
</g>
<!-- spike_eval_models_algorithm_Algorithm -->
<g id="node3" class="node"><title>spike_eval_models_algorithm_Algorithm</title>
<polygon fill="palegoldenrod" stroke="palegoldenrod" points="583,-466 583,-566 717,-566 717,-466 583,-466"/>
<polygon fill="#698b22" stroke="#698b22" points="583,-538 583,-566 717,-566 717,-538 583,-538"/>
<text text-anchor="start" x="630" y="-555.633" font-family="Helvetica Bold" font-size="8.00" fill="white">Algorithm</text>
<text text-anchor="start" x="608.5" y="-546.033" font-family="Helvetica Bold" font-size="8.00" fill="white">&lt;</text>
<text text-anchor="start" x="613.5" y="-546.033" font-family="Helvetica Italic" font-size="8.00" fill="white">TimeStampedModel</text>
<text text-anchor="start" x="686.5" y="-546.033" font-family="Helvetica Bold" font-size="8.00" fill="white">&gt;</text>
<text text-anchor="start" x="585" y="-530.133" font-family="Helvetica Bold" font-size="8.00" fill="#7b7b7b">id</text>
<text text-anchor="start" x="636" y="-530.133" font-family="Helvetica Bold" font-size="8.00" fill="#7b7b7b">AutoField</text>
<text text-anchor="start" x="585" y="-518.133" font-family="Helvetica Italic" font-size="8.00">created</text>
<text text-anchor="start" x="636" y="-518.133" font-family="Helvetica Italic" font-size="8.00">AutoCreatedField</text>
<text text-anchor="start" x="585" y="-506.133" font-family="Helvetica Italic" font-size="8.00">modified</text>
<text text-anchor="start" x="636" y="-506.133" font-family="Helvetica Italic" font-size="8.00">AutoLastModifiedField</text>
<text text-anchor="start" x="585" y="-494.133" font-family="Helvetica Bold" font-size="8.00">name</text>
<text text-anchor="start" x="636" y="-494.133" font-family="Helvetica Bold" font-size="8.00">CharField</text>
<text text-anchor="start" x="585" y="-482.133" font-family="Helvetica Bold" font-size="8.00">version</text>
<text text-anchor="start" x="636" y="-482.133" font-family="Helvetica Bold" font-size="8.00">CharField</text>
<text text-anchor="start" x="585" y="-470.133" font-family="Helvetica Bold" font-size="8.00" fill="#7b7b7b">description</text>
<text text-anchor="start" x="636" y="-470.133" font-family="Helvetica Bold" font-size="8.00" fill="#7b7b7b">TextField</text>
</g>
<!-- spike_eval_models_algorithm_Algorithm&#45;&gt;spike_eval_models_algorithm_Algorithm -->
<g id="edge4" class="edge"><title>spike_eval_models_algorithm_Algorithm&#45;&gt;spike_eval_models_algorithm_Algorithm</title>
<path fill="none" stroke="black" d="M725.17,-532.15C735.84,-529.54 743,-524.16 743,-516 743,-507.84 735.84,-502.46 725.17,-499.85"/>
<text text-anchor="middle" x="769" y="-514.8" font-family="Helvetica,sans-Serif" font-size="8.00">parent (childs)</text>
</g>
<!-- django_contrib_auth_models_User -->
<g id="node4" class="node"><title>django_contrib_auth_models_User</title>
<polygon fill="palegoldenrod" stroke="palegoldenrod" points="773.5,-333.5 773.5,-350.5 802.5,-350.5 802.5,-333.5 773.5,-333.5"/>
<polygon fill="#698b22" stroke="#698b22" points="774,-333 774,-350 803,-350 803,-333 774,-333"/>
<text text-anchor="start" x="779" y="-339.633" font-family="Helvetica Bold" font-size="8.00" fill="white">User</text>
</g>
<!-- spike_eval_models_algorithm_Algorithm&#45;&gt;django_contrib_auth_models_User -->
<g id="edge2" class="edge"><title>spike_eval_models_algorithm_Algorithm&#45;&gt;django_contrib_auth_models_User</title>
<path fill="none" stroke="black" d="M725.27,-469.31C740.57,-456.86 755.26,-442.27 766,-426 779.29,-405.87 784.56,-378.09 786.65,-360.09"/>
<text text-anchor="middle" x="803" y="-418.8" font-family="Helvetica,sans-Serif" font-size="8.00">owner (algorithm)</text>
</g>
<!-- taggit_models_TaggedItem -->
<g id="node7" class="node"><title>taggit_models_TaggedItem</title>
<polygon fill="palegoldenrod" stroke="palegoldenrod" points="522.5,-333.5 522.5,-350.5 579.5,-350.5 579.5,-333.5 522.5,-333.5"/>
<polygon fill="#698b22" stroke="#698b22" points="523,-333 523,-350 580,-350 580,-333 523,-333"/>
<text text-anchor="start" x="528" y="-339.633" font-family="Helvetica Bold" font-size="8.00" fill="white">TaggedItem</text>
</g>
<!-- spike_eval_models_algorithm_Algorithm&#45;&gt;taggit_models_TaggedItem -->
<g id="edge6" class="edge"><title>spike_eval_models_algorithm_Algorithm&#45;&gt;taggit_models_TaggedItem</title>
<path fill="none" stroke="black" stroke-dasharray="1,5" d="M574.88,-453.99C567.84,-445.28 561.62,-435.9 557,-426 548.99,-408.83 547.55,-387.51 548.08,-370.65"/>
<polygon fill="black" stroke="black" points="572.4,-456.476 581.56,-461.8 577.72,-451.926 572.4,-456.476"/>
<polygon fill="black" stroke="black" points="551.595,-370.483 548.67,-360.3 544.606,-370.085 551.595,-370.483"/>
<text text-anchor="middle" x="602" y="-418.8" font-family="Helvetica,sans-Serif" font-size="8.00">tagged_items (algorithm)</text>
</g>
<!-- spike_eval_models_datafile_Datafile -->
<g id="node9" class="node"><title>spike_eval_models_datafile_Datafile</title>
<polygon fill="palegoldenrod" stroke="palegoldenrod" points="338,-88 338,-236 468,-236 468,-88 338,-88"/>
<polygon fill="#698b22" stroke="#698b22" points="338,-208 338,-236 468,-236 468,-208 338,-208"/>
<text text-anchor="start" x="387.5" y="-225.633" font-family="Helvetica Bold" font-size="8.00" fill="white">Datafile</text>
<text text-anchor="start" x="361.5" y="-216.033" font-family="Helvetica Bold" font-size="8.00" fill="white">&lt;</text>
<text text-anchor="start" x="366.5" y="-216.033" font-family="Helvetica Italic" font-size="8.00" fill="white">TimeStampedModel</text>
<text text-anchor="start" x="439.5" y="-216.033" font-family="Helvetica Bold" font-size="8.00" fill="white">&gt;</text>
<text text-anchor="start" x="340" y="-200.133" font-family="Helvetica Bold" font-size="8.00" fill="#7b7b7b">id</text>
<text text-anchor="start" x="387" y="-200.133" font-family="Helvetica Bold" font-size="8.00" fill="#7b7b7b">AutoField</text>
<text text-anchor="start" x="340" y="-188.133" font-family="Helvetica Italic" font-size="8.00">created</text>
<text text-anchor="start" x="387" y="-188.133" font-family="Helvetica Italic" font-size="8.00">AutoCreatedField</text>
<text text-anchor="start" x="340" y="-176.133" font-family="Helvetica Italic" font-size="8.00">modified</text>
<text text-anchor="start" x="387" y="-176.133" font-family="Helvetica Italic" font-size="8.00">AutoLastModifiedField</text>
<text text-anchor="start" x="340" y="-164.133" font-family="Helvetica Bold" font-size="8.00">name</text>
<text text-anchor="start" x="387" y="-164.133" font-family="Helvetica Bold" font-size="8.00">CharField</text>
<text text-anchor="start" x="340" y="-152.133" font-family="Helvetica Bold" font-size="8.00">file</text>
<text text-anchor="start" x="387" y="-152.133" font-family="Helvetica Bold" font-size="8.00">FileField</text>
<text text-anchor="start" x="340" y="-140.133" font-family="Helvetica Bold" font-size="8.00">file_type</text>
<text text-anchor="start" x="387" y="-140.133" font-family="Helvetica Bold" font-size="8.00">IntegerField</text>
<text text-anchor="start" x="340" y="-128.133" font-family="Helvetica Bold" font-size="8.00">task_state</text>
<text text-anchor="start" x="387" y="-128.133" font-family="Helvetica Bold" font-size="8.00">IntegerField</text>
<text text-anchor="start" x="340" y="-116.133" font-family="Helvetica Bold" font-size="8.00" fill="#7b7b7b">task_id</text>
<text text-anchor="start" x="387" y="-116.133" font-family="Helvetica Bold" font-size="8.00" fill="#7b7b7b">CharField</text>
<text text-anchor="start" x="340" y="-104.133" font-family="Helvetica Bold" font-size="8.00" fill="#7b7b7b">task_log</text>
<text text-anchor="start" x="387" y="-104.133" font-family="Helvetica Bold" font-size="8.00" fill="#7b7b7b">TextField</text>
<text text-anchor="start" x="340" y="-92.1333" font-family="Helvetica Bold" font-size="8.00">object_id</text>
<text text-anchor="start" x="387" y="-92.1333" font-family="Helvetica Bold" font-size="8.00">PositiveIntegerField</text>
</g>
<!-- spike_eval_models_algorithm_Algorithm&#45;&gt;spike_eval_models_datafile_Datafile -->
<g id="edge8" class="edge"><title>spike_eval_models_algorithm_Algorithm&#45;&gt;spike_eval_models_datafile_Datafile</title>
<path fill="none" stroke="black" stroke-dasharray="1,5" d="M651.58,-451.84C650.92,-439.2 649.54,-426.11 647,-414 634.58,-354.88 634.39,-334.65 596,-288 566.11,-251.67 522.96,-222.13 485.04,-200.81"/>
<polygon fill="black" stroke="black" points="648.083,-451.994 651.97,-461.85 655.078,-451.721 648.083,-451.994"/>
<polygon fill="black" stroke="black" points="486.477,-197.605 476.03,-195.84 483.096,-203.735 486.477,-197.605"/>
<text text-anchor="middle" x="684" y="-340.8" font-family="Helvetica,sans-Serif" font-size="8.00">datafile_set (algorithm)</text>
</g>
<!-- django_contrib_contenttypes_models_ContentType -->
<g id="node11" class="node"><title>django_contrib_contenttypes_models_ContentType</title>
<polygon fill="palegoldenrod" stroke="palegoldenrod" points="372.5,-9.5 372.5,-26.5 433.5,-26.5 433.5,-9.5 372.5,-9.5"/>
<polygon fill="#698b22" stroke="#698b22" points="373,-9 373,-26 434,-26 434,-9 373,-9"/>
<text text-anchor="start" x="377.5" y="-15.6333" font-family="Helvetica Bold" font-size="8.00" fill="white">ContentType</text>
</g>
<!-- spike_eval_models_datafile_Datafile&#45;&gt;django_contrib_contenttypes_models_ContentType -->
<g id="edge10" class="edge"><title>spike_eval_models_datafile_Datafile&#45;&gt;django_contrib_contenttypes_models_ContentType</title>
<path fill="none" stroke="black" d="M403,-83.679C403,-65.868 403,-48.578 403,-36.211"/>
<text text-anchor="middle" x="443" y="-58.8" font-family="Helvetica,sans-Serif" font-size="8.00">content_type (datafile)</text>
</g>
<!-- spike_eval_models_benchmark_Benchmark -->
<g id="node13" class="node"><title>spike_eval_models_benchmark_Benchmark</title>
<polygon fill="palegoldenrod" stroke="palegoldenrod" points="354.5,-448 354.5,-584 507.5,-584 507.5,-448 354.5,-448"/>
<polygon fill="#698b22" stroke="#698b22" points="355,-556 355,-584 508,-584 508,-556 355,-556"/>
<text text-anchor="start" x="409" y="-573.633" font-family="Helvetica Bold" font-size="8.00" fill="white">Benchmark</text>
<text text-anchor="start" x="367" y="-564.033" font-family="Helvetica Bold" font-size="8.00" fill="white">&lt;</text>
<text text-anchor="start" x="372" y="-564.033" font-family="Helvetica Italic" font-size="8.00" fill="white">StatusModel,TimeStampedModel</text>
<text text-anchor="start" x="491" y="-564.033" font-family="Helvetica Bold" font-size="8.00" fill="white">&gt;</text>
<text text-anchor="start" x="357" y="-548.133" font-family="Helvetica Bold" font-size="8.00" fill="#7b7b7b">id</text>
<text text-anchor="start" x="427" y="-548.133" font-family="Helvetica Bold" font-size="8.00" fill="#7b7b7b">AutoField</text>
<text text-anchor="start" x="357" y="-536.133" font-family="Helvetica Italic" font-size="8.00">created</text>
<text text-anchor="start" x="427" y="-536.133" font-family="Helvetica Italic" font-size="8.00">AutoCreatedField</text>
<text text-anchor="start" x="357" y="-524.133" font-family="Helvetica Italic" font-size="8.00">modified</text>
<text text-anchor="start" x="427" y="-524.133" font-family="Helvetica Italic" font-size="8.00">AutoLastModifiedField</text>
<text text-anchor="start" x="357" y="-512.133" font-family="Helvetica Italic" font-size="8.00">status</text>
<text text-anchor="start" x="427" y="-512.133" font-family="Helvetica Italic" font-size="8.00">StatusField</text>
<text text-anchor="start" x="357" y="-500.133" font-family="Helvetica Italic" font-size="8.00">status_changed</text>
<text text-anchor="start" x="427" y="-500.133" font-family="Helvetica Italic" font-size="8.00">MonitorField</text>
<text text-anchor="start" x="357" y="-488.133" font-family="Helvetica Bold" font-size="8.00">name</text>
<text text-anchor="start" x="427" y="-488.133" font-family="Helvetica Bold" font-size="8.00">CharField</text>
<text text-anchor="start" x="357" y="-476.133" font-family="Helvetica Bold" font-size="8.00" fill="#7b7b7b">description</text>
<text text-anchor="start" x="427" y="-476.133" font-family="Helvetica Bold" font-size="8.00" fill="#7b7b7b">TextField</text>
<text text-anchor="start" x="357" y="-464.133" font-family="Helvetica Bold" font-size="8.00">parameter</text>
<text text-anchor="start" x="427" y="-464.133" font-family="Helvetica Bold" font-size="8.00">CharField</text>
<text text-anchor="start" x="357" y="-452.133" font-family="Helvetica Bold" font-size="8.00">gt_access</text>
<text text-anchor="start" x="427" y="-452.133" font-family="Helvetica Bold" font-size="8.00">CharField</text>
</g>
<!-- spike_eval_models_benchmark_Benchmark&#45;&gt;django_contrib_auth_models_User -->
<g id="edge12" class="edge"><title>spike_eval_models_benchmark_Benchmark&#45;&gt;django_contrib_auth_models_User</title>
<path fill="none" stroke="black" d="M515.03,-466.54C531.55,-458.16 549.03,-450.18 566,-444 602.28,-430.78 613.64,-435.77 651,-426 653.7,-425.29 744.71,-397.61 747,-396 760.2,-386.73 771.01,-371.92 778.21,-360.15"/>
<text text-anchor="middle" x="723.5" y="-418.8" font-family="Helvetica,sans-Serif" font-size="8.00">owner (benchmark)</text>
</g>
<!-- spike_eval_models_benchmark_Benchmark&#45;&gt;taggit_models_TaggedItem -->
<g id="edge14" class="edge"><title>spike_eval_models_benchmark_Benchmark&#45;&gt;taggit_models_TaggedItem</title>
<path fill="none" stroke="black" stroke-dasharray="1,5" d="M439.09,-434.38C442.09,-427.01 445.98,-420.06 451,-414 464.74,-397.41 477.96,-407.78 496,-396 507.94,-388.21 519.46,-377.55 528.85,-367.76"/>
<polygon fill="black" stroke="black" points="435.761,-433.295 435.75,-443.89 442.366,-435.615 435.761,-433.295"/>
<polygon fill="black" stroke="black" points="531.656,-369.882 535.89,-360.17 526.523,-365.122 531.656,-369.882"/>
<text text-anchor="middle" x="499.5" y="-418.8" font-family="Helvetica,sans-Serif" font-size="8.00">tagged_items (benchmark)</text>
</g>
<!-- spike_eval_models_benchmark_Benchmark&#45;&gt;spike_eval_models_datafile_Datafile -->
<g id="edge16" class="edge"><title>spike_eval_models_benchmark_Benchmark&#45;&gt;spike_eval_models_datafile_Datafile</title>
<path fill="none" stroke="black" stroke-dasharray="1,5" d="M420.78,-433.69C419.39,-421.08 418.08,-408.2 417,-396 412.76,-347.86 409.44,-294.03 407.1,-250.15"/>
<polygon fill="black" stroke="black" points="417.313,-434.18 421.9,-443.73 424.27,-433.404 417.313,-434.18"/>
<polygon fill="black" stroke="black" points="410.591,-249.882 406.57,-240.08 403.601,-250.25 410.591,-249.882"/>
<text text-anchor="middle" x="461.5" y="-340.8" font-family="Helvetica,sans-Serif" font-size="8.00">datafile_set (benchmark)</text>
</g>
<!-- spike_eval_models_metric_Metric -->
<g id="node17" class="node"><title>spike_eval_models_metric_Metric</title>
<polygon fill="palegoldenrod" stroke="palegoldenrod" points="225,-292 225,-392 359,-392 359,-292 225,-292"/>
<polygon fill="#698b22" stroke="#698b22" points="225,-364 225,-392 359,-392 359,-364 225,-364"/>
<text text-anchor="start" x="279.5" y="-381.633" font-family="Helvetica Bold" font-size="8.00" fill="white">Metric</text>
<text text-anchor="start" x="250.5" y="-372.033" font-family="Helvetica Bold" font-size="8.00" fill="white">&lt;</text>
<text text-anchor="start" x="255.5" y="-372.033" font-family="Helvetica Italic" font-size="8.00" fill="white">TimeStampedModel</text>
<text text-anchor="start" x="328.5" y="-372.033" font-family="Helvetica Bold" font-size="8.00" fill="white">&gt;</text>
<text text-anchor="start" x="227" y="-356.133" font-family="Helvetica Bold" font-size="8.00" fill="#7b7b7b">id</text>
<text text-anchor="start" x="278" y="-356.133" font-family="Helvetica Bold" font-size="8.00" fill="#7b7b7b">AutoField</text>
<text text-anchor="start" x="227" y="-344.133" font-family="Helvetica Italic" font-size="8.00">created</text>
<text text-anchor="start" x="278" y="-344.133" font-family="Helvetica Italic" font-size="8.00">AutoCreatedField</text>
<text text-anchor="start" x="227" y="-332.133" font-family="Helvetica Italic" font-size="8.00">modified</text>
<text text-anchor="start" x="278" y="-332.133" font-family="Helvetica Italic" font-size="8.00">AutoLastModifiedField</text>
<text text-anchor="start" x="227" y="-320.133" font-family="Helvetica Bold" font-size="8.00">name</text>
<text text-anchor="start" x="278" y="-320.133" font-family="Helvetica Bold" font-size="8.00">CharField</text>
<text text-anchor="start" x="227" y="-308.133" font-family="Helvetica Bold" font-size="8.00" fill="#7b7b7b">version</text>
<text text-anchor="start" x="278" y="-308.133" font-family="Helvetica Bold" font-size="8.00" fill="#7b7b7b">CharField</text>
<text text-anchor="start" x="227" y="-296.133" font-family="Helvetica Bold" font-size="8.00" fill="#7b7b7b">description</text>
<text text-anchor="start" x="278" y="-296.133" font-family="Helvetica Bold" font-size="8.00" fill="#7b7b7b">TextField</text>
</g>
<!-- spike_eval_models_benchmark_Benchmark&#45;&gt;spike_eval_models_metric_Metric -->
<g id="edge18" class="edge"><title>spike_eval_models_benchmark_Benchmark&#45;&gt;spike_eval_models_metric_Metric</title>
<path fill="none" stroke="black" d="M340.83,-456.05C331.15,-446.85 322.21,-436.79 315,-426 310.53,-419.31 306.92,-411.76 304.01,-404.01"/>
<ellipse fill="black" stroke="black" cx="344.001" cy="-458.957" rx="4.00002" ry="4.00002"/>
<ellipse fill="black" stroke="black" cx="302.631" cy="-400.002" rx="4.00001" ry="4.00001"/>
<text text-anchor="middle" x="352" y="-418.8" font-family="Helvetica,sans-Serif" font-size="8.00">metrics (benchmark)</text>
</g>
<!-- spike_eval_models_metric_Metric&#45;&gt;spike_eval_models_datafile_Datafile -->
<g id="edge20" class="edge"><title>spike_eval_models_metric_Metric&#45;&gt;spike_eval_models_datafile_Datafile</title>
<path fill="none" stroke="black" stroke-dasharray="1,5" d="M308.58,-278.15C311.32,-271.17 314.45,-264.31 318,-258 319.94,-254.55 322.02,-251.12 324.21,-247.72"/>
<polygon fill="black" stroke="black" points="305.231,-277.116 305.08,-287.71 311.805,-279.523 305.231,-277.116"/>
<polygon fill="black" stroke="black" points="327.179,-249.577 329.87,-239.33 321.376,-245.663 327.179,-249.577"/>
<text text-anchor="middle" x="353.5" y="-262.8" font-family="Helvetica,sans-Serif" font-size="8.00">datafile_set (metric)</text>
</g>
<!-- spike_eval_models_benchmark_Trial -->
<g id="node20" class="node"><title>spike_eval_models_benchmark_Trial</title>
<polygon fill="palegoldenrod" stroke="palegoldenrod" points="225,-640 225,-740 359,-740 359,-640 225,-640"/>
<polygon fill="#698b22" stroke="#698b22" points="225,-712 225,-740 359,-740 359,-712 225,-712"/>
<text text-anchor="start" x="283" y="-729.633" font-family="Helvetica Bold" font-size="8.00" fill="white">Trial</text>
<text text-anchor="start" x="250.5" y="-720.033" font-family="Helvetica Bold" font-size="8.00" fill="white">&lt;</text>
<text text-anchor="start" x="255.5" y="-720.033" font-family="Helvetica Italic" font-size="8.00" fill="white">TimeStampedModel</text>
<text text-anchor="start" x="328.5" y="-720.033" font-family="Helvetica Bold" font-size="8.00" fill="white">&gt;</text>
<text text-anchor="start" x="227" y="-704.133" font-family="Helvetica Bold" font-size="8.00" fill="#7b7b7b">id</text>
<text text-anchor="start" x="278" y="-704.133" font-family="Helvetica Bold" font-size="8.00" fill="#7b7b7b">AutoField</text>
<text text-anchor="start" x="227" y="-692.133" font-family="Helvetica Italic" font-size="8.00">created</text>
<text text-anchor="start" x="278" y="-692.133" font-family="Helvetica Italic" font-size="8.00">AutoCreatedField</text>
<text text-anchor="start" x="227" y="-680.133" font-family="Helvetica Italic" font-size="8.00">modified</text>
<text text-anchor="start" x="278" y="-680.133" font-family="Helvetica Italic" font-size="8.00">AutoLastModifiedField</text>
<text text-anchor="start" x="227" y="-668.133" font-family="Helvetica Bold" font-size="8.00">name</text>
<text text-anchor="start" x="278" y="-668.133" font-family="Helvetica Bold" font-size="8.00">CharField</text>
<text text-anchor="start" x="227" y="-656.133" font-family="Helvetica Bold" font-size="8.00" fill="#7b7b7b">description</text>
<text text-anchor="start" x="278" y="-656.133" font-family="Helvetica Bold" font-size="8.00" fill="#7b7b7b">TextField</text>
<text text-anchor="start" x="227" y="-644.133" font-family="Helvetica Bold" font-size="8.00">parameter</text>
<text text-anchor="start" x="278" y="-644.133" font-family="Helvetica Bold" font-size="8.00">FloatField</text>
</g>
<!-- spike_eval_models_benchmark_Trial&#45;&gt;spike_eval_models_datafile_Datafile -->
<g id="edge24" class="edge"><title>spike_eval_models_benchmark_Trial&#45;&gt;spike_eval_models_datafile_Datafile</title>
<path fill="none" stroke="black" stroke-dasharray="1,5" d="M209.25,-633.74C193.61,-620.19 178.55,-604.74 167,-588 121.01,-521.36 97.776,-493.53 113,-414 127.03,-340.72 122.78,-311.29 175,-258 214.09,-218.11 272.3,-193.97 320.12,-179.88"/>
<polygon fill="black" stroke="black" points="207.063,-636.474 216.97,-640.23 211.568,-631.116 207.063,-636.474"/>
<polygon fill="black" stroke="black" points="321.182,-183.217 329.84,-177.11 319.264,-176.485 321.182,-183.217"/>
<text text-anchor="middle" x="144" y="-418.8" font-family="Helvetica,sans-Serif" font-size="8.00">datafile_set (trial)</text>
</g>
<!-- spike_eval_models_benchmark_Trial&#45;&gt;spike_eval_models_benchmark_Benchmark -->
<g id="edge22" class="edge"><title>spike_eval_models_benchmark_Trial&#45;&gt;spike_eval_models_benchmark_Benchmark</title>
<path fill="none" stroke="black" d="M335.22,-635.9C347.25,-620.84 360.52,-604.23 373.24,-588.3"/>
<text text-anchor="middle" x="387.5" y="-610.8" font-family="Helvetica,sans-Serif" font-size="8.00">benchmark (trial)</text>
</g>
<!-- spike_eval_models_evaluation_Batch -->
<g id="node23" class="node"><title>spike_eval_models_evaluation_Batch</title>
<polygon fill="palegoldenrod" stroke="palegoldenrod" points="573.5,-640 573.5,-740 726.5,-740 726.5,-640 573.5,-640"/>
<polygon fill="#698b22" stroke="#698b22" points="574,-712 574,-740 727,-740 727,-712 574,-712"/>
<text text-anchor="start" x="638.5" y="-729.633" font-family="Helvetica Bold" font-size="8.00" fill="white">Batch</text>
<text text-anchor="start" x="586" y="-720.033" font-family="Helvetica Bold" font-size="8.00" fill="white">&lt;</text>
<text text-anchor="start" x="591" y="-720.033" font-family="Helvetica Italic" font-size="8.00" fill="white">StatusModel,TimeStampedModel</text>
<text text-anchor="start" x="710" y="-720.033" font-family="Helvetica Bold" font-size="8.00" fill="white">&gt;</text>
<text text-anchor="start" x="576" y="-704.133" font-family="Helvetica Bold" font-size="8.00" fill="#7b7b7b">id</text>
<text text-anchor="start" x="646" y="-704.133" font-family="Helvetica Bold" font-size="8.00" fill="#7b7b7b">AutoField</text>
<text text-anchor="start" x="576" y="-692.133" font-family="Helvetica Italic" font-size="8.00">created</text>
<text text-anchor="start" x="646" y="-692.133" font-family="Helvetica Italic" font-size="8.00">AutoCreatedField</text>
<text text-anchor="start" x="576" y="-680.133" font-family="Helvetica Italic" font-size="8.00">modified</text>
<text text-anchor="start" x="646" y="-680.133" font-family="Helvetica Italic" font-size="8.00">AutoLastModifiedField</text>
<text text-anchor="start" x="576" y="-668.133" font-family="Helvetica Italic" font-size="8.00">status</text>
<text text-anchor="start" x="646" y="-668.133" font-family="Helvetica Italic" font-size="8.00">StatusField</text>
<text text-anchor="start" x="576" y="-656.133" font-family="Helvetica Italic" font-size="8.00">status_changed</text>
<text text-anchor="start" x="646" y="-656.133" font-family="Helvetica Italic" font-size="8.00">MonitorField</text>
<text text-anchor="start" x="576" y="-644.133" font-family="Helvetica Bold" font-size="8.00" fill="#7b7b7b">description</text>
<text text-anchor="start" x="646" y="-644.133" font-family="Helvetica Bold" font-size="8.00" fill="#7b7b7b">TextField</text>
</g>
<!-- spike_eval_models_evaluation_Batch&#45;&gt;spike_eval_models_algorithm_Algorithm -->
<g id="edge30" class="edge"><title>spike_eval_models_evaluation_Batch&#45;&gt;spike_eval_models_algorithm_Algorithm</title>
<path fill="none" stroke="black" d="M650,-635.9C650,-614.95 650,-591.01 650,-570.07"/>
<text text-anchor="middle" x="680.5" y="-610.8" font-family="Helvetica,sans-Serif" font-size="8.00">algorithm (batch)</text>
</g>
<!-- spike_eval_models_evaluation_Batch&#45;&gt;django_contrib_auth_models_User -->
<g id="edge28" class="edge"><title>spike_eval_models_evaluation_Batch&#45;&gt;django_contrib_auth_models_User</title>
<path fill="none" stroke="black" d="M734.12,-650.56C760.09,-634.55 786.45,-613.69 804,-588 826.25,-555.43 850.96,-451.58 839,-414 832.45,-393.42 817.64,-373.67 805.66,-360.07"/>
<text text-anchor="middle" x="867.5" y="-514.8" font-family="Helvetica,sans-Serif" font-size="8.00">owner (batch)</text>
</g>
<!-- spike_eval_models_evaluation_Batch&#45;&gt;spike_eval_models_datafile_Datafile -->
<g id="edge32" class="edge"><title>spike_eval_models_evaluation_Batch&#45;&gt;spike_eval_models_datafile_Datafile</title>
<path fill="none" stroke="black" stroke-dasharray="1,5" d="M744.21,-676.91C798.41,-664.02 862.28,-638.49 896,-588 931.55,-534.78 909.73,-506.51 896,-444 879.62,-369.42 881.68,-338.04 824,-288 773.35,-244.06 593.8,-201.06 486.22,-178.43"/>
<polygon fill="black" stroke="black" points="743.187,-673.553 734.21,-679.18 744.737,-680.379 743.187,-673.553"/>
<polygon fill="black" stroke="black" points="486.864,-174.989 476.36,-176.37 485.433,-181.841 486.864,-174.989"/>
<text text-anchor="middle" x="926.5" y="-418.8" font-family="Helvetica,sans-Serif" font-size="8.00">datafile_set (batch)</text>
</g>
<!-- spike_eval_models_evaluation_Batch&#45;&gt;spike_eval_models_benchmark_Benchmark -->
<g id="edge26" class="edge"><title>spike_eval_models_evaluation_Batch&#45;&gt;spike_eval_models_benchmark_Benchmark</title>
<path fill="none" stroke="black" d="M581.91,-635.9C560.81,-619.14 537.31,-600.47 515.26,-582.95"/>
<text text-anchor="middle" x="587" y="-610.8" font-family="Helvetica,sans-Serif" font-size="8.00">benchmark (batch)</text>
</g>
<!-- spike_eval_models_evaluation_Evaluation -->
<g id="node28" class="node"><title>spike_eval_models_evaluation_Evaluation</title>
<polygon fill="palegoldenrod" stroke="palegoldenrod" points="232,-796 232,-896 362,-896 362,-796 232,-796"/>
<polygon fill="#698b22" stroke="#698b22" points="232,-868 232,-896 362,-896 362,-868 232,-868"/>
<text text-anchor="start" x="275.5" y="-885.633" font-family="Helvetica Bold" font-size="8.00" fill="white">Evaluation</text>
<text text-anchor="start" x="255.5" y="-876.033" font-family="Helvetica Bold" font-size="8.00" fill="white">&lt;</text>
<text text-anchor="start" x="260.5" y="-876.033" font-family="Helvetica Italic" font-size="8.00" fill="white">TimeStampedModel</text>
<text text-anchor="start" x="333.5" y="-876.033" font-family="Helvetica Bold" font-size="8.00" fill="white">&gt;</text>
<text text-anchor="start" x="234" y="-860.133" font-family="Helvetica Bold" font-size="8.00" fill="#7b7b7b">id</text>
<text text-anchor="start" x="281" y="-860.133" font-family="Helvetica Bold" font-size="8.00" fill="#7b7b7b">AutoField</text>
<text text-anchor="start" x="234" y="-848.133" font-family="Helvetica Italic" font-size="8.00">created</text>
<text text-anchor="start" x="281" y="-848.133" font-family="Helvetica Italic" font-size="8.00">AutoCreatedField</text>
<text text-anchor="start" x="234" y="-836.133" font-family="Helvetica Italic" font-size="8.00">modified</text>
<text text-anchor="start" x="281" y="-836.133" font-family="Helvetica Italic" font-size="8.00">AutoLastModifiedField</text>
<text text-anchor="start" x="234" y="-824.133" font-family="Helvetica Bold" font-size="8.00">task_state</text>
<text text-anchor="start" x="281" y="-824.133" font-family="Helvetica Bold" font-size="8.00">IntegerField</text>
<text text-anchor="start" x="234" y="-812.133" font-family="Helvetica Bold" font-size="8.00" fill="#7b7b7b">task_id</text>
<text text-anchor="start" x="281" y="-812.133" font-family="Helvetica Bold" font-size="8.00" fill="#7b7b7b">CharField</text>
<text text-anchor="start" x="234" y="-800.133" font-family="Helvetica Bold" font-size="8.00" fill="#7b7b7b">task_log</text>
<text text-anchor="start" x="281" y="-800.133" font-family="Helvetica Bold" font-size="8.00" fill="#7b7b7b">TextField</text>
</g>
<!-- spike_eval_models_evaluation_Evaluation&#45;&gt;spike_eval_models_datafile_Datafile -->
<g id="edge38" class="edge"><title>spike_eval_models_evaluation_Evaluation&#45;&gt;spike_eval_models_datafile_Datafile</title>
<path fill="none" stroke="black" stroke-dasharray="1,5" d="M229.24,-784.08C207.53,-757.68 189,-724.93 189,-690 189,-690 189,-690 189,-342 189,-270.19 260.44,-221.28 320.76,-192.77"/>
<polygon fill="black" stroke="black" points="226.587,-786.363 235.74,-791.7 231.913,-781.82 226.587,-786.363"/>
<polygon fill="black" stroke="black" points="322.329,-195.901 329.95,-188.54 319.403,-189.542 322.329,-195.901"/>
<text text-anchor="middle" x="231.5" y="-514.8" font-family="Helvetica,sans-Serif" font-size="8.00">datafile_set (evaluation)</text>
</g>
<!-- spike_eval_models_evaluation_Evaluation&#45;&gt;spike_eval_models_benchmark_Trial -->
<g id="edge36" class="edge"><title>spike_eval_models_evaluation_Evaluation&#45;&gt;spike_eval_models_benchmark_Trial</title>
<path fill="none" stroke="black" d="M295.27,-791.88C294.77,-776.39 294.23,-759.51 293.73,-744.03"/>
<text text-anchor="middle" x="323" y="-766.8" font-family="Helvetica,sans-Serif" font-size="8.00">trial (evaluation)</text>
</g>
<!-- spike_eval_models_evaluation_Evaluation&#45;&gt;spike_eval_models_evaluation_Batch -->
<g id="edge34" class="edge"><title>spike_eval_models_evaluation_Evaluation&#45;&gt;spike_eval_models_evaluation_Batch</title>
<path fill="none" stroke="black" d="M370.14,-813.68C427.09,-788.51 506.2,-753.55 565.79,-727.21"/>
<text text-anchor="middle" x="516" y="-766.8" font-family="Helvetica,sans-Serif" font-size="8.00">batch (evaluation)</text>
</g>
<!-- spike_eval_models_result_Result -->
<g id="node32" class="node"><title>spike_eval_models_result_Result</title>
<polygon fill="palegoldenrod" stroke="palegoldenrod" points="338,-1013 338,-1077 468,-1077 468,-1013 338,-1013"/>
<polygon fill="#698b22" stroke="#698b22" points="338,-1049 338,-1077 468,-1077 468,-1049 338,-1049"/>
<text text-anchor="start" x="390" y="-1066.63" font-family="Helvetica Bold" font-size="8.00" fill="white">Result</text>
<text text-anchor="start" x="361.5" y="-1057.03" font-family="Helvetica Bold" font-size="8.00" fill="white">&lt;</text>
<text text-anchor="start" x="366.5" y="-1057.03" font-family="Helvetica Italic" font-size="8.00" fill="white">TimeStampedModel</text>
<text text-anchor="start" x="439.5" y="-1057.03" font-family="Helvetica Bold" font-size="8.00" fill="white">&gt;</text>
<text text-anchor="start" x="340" y="-1041.13" font-family="Helvetica Bold" font-size="8.00" fill="#7b7b7b">id</text>
<text text-anchor="start" x="387" y="-1041.13" font-family="Helvetica Bold" font-size="8.00" fill="#7b7b7b">AutoField</text>
<text text-anchor="start" x="340" y="-1029.13" font-family="Helvetica Italic" font-size="8.00">created</text>
<text text-anchor="start" x="387" y="-1029.13" font-family="Helvetica Italic" font-size="8.00">AutoCreatedField</text>
<text text-anchor="start" x="340" y="-1017.13" font-family="Helvetica Italic" font-size="8.00">modified</text>
<text text-anchor="start" x="387" y="-1017.13" font-family="Helvetica Italic" font-size="8.00">AutoLastModifiedField</text>
</g>
<!-- spike_eval_models_result_Result&#45;&gt;spike_eval_models_datafile_Datafile -->
<g id="edge42" class="edge"><title>spike_eval_models_result_Result&#45;&gt;spike_eval_models_datafile_Datafile</title>
<path fill="none" stroke="black" stroke-dasharray="1,5" d="M430.68,-1000.4C444.69,-981.46 463.33,-960.79 485,-948 584.34,-889.34 994,-961.36 994,-846 994,-846 994,-846 994,-342 994,-237.07 648.79,-187.39 486.04,-169.8"/>
<polygon fill="black" stroke="black" points="427.719,-998.524 424.77,-1008.7 433.421,-1002.58 427.719,-998.524"/>
<polygon fill="black" stroke="black" points="486.374,-166.316 476.06,-168.74 485.634,-173.277 486.374,-166.316"/>
<text text-anchor="middle" x="1028.5" y="-610.8" font-family="Helvetica,sans-Serif" font-size="8.00">datafile_set (result)</text>
</g>
<!-- spike_eval_models_result_Result&#45;&gt;spike_eval_models_metric_Metric -->
<g id="edge44" class="edge"><title>spike_eval_models_result_Result&#45;&gt;spike_eval_models_metric_Metric</title>
<path fill="none" stroke="black" d="M410.6,-1008.9C424.4,-933.69 446.1,-757.2 376,-636 368.78,-623.52 357.92,-629.33 349,-618 340.21,-606.84 341.87,-601.66 338,-588 317.96,-517.31 317.96,-498.33 305,-426 303.28,-416.41 301.59,-406.19 300.02,-396.29"/>
<text text-anchor="middle" x="439" y="-688.8" font-family="Helvetica,sans-Serif" font-size="8.00">metric (result)</text>
</g>
<!-- spike_eval_models_result_Result&#45;&gt;spike_eval_models_evaluation_Evaluation -->
<g id="edge40" class="edge"><title>spike_eval_models_result_Result&#45;&gt;spike_eval_models_evaluation_Evaluation</title>
<path fill="none" stroke="black" d="M374.63,-1008.8C358.48,-986.88 338.78,-957.9 325,-930 320.37,-920.63 316.22,-910.31 312.63,-900.21"/>
<text text-anchor="middle" x="357" y="-922.8" font-family="Helvetica,sans-Serif" font-size="8.00">evaluation (result)</text>
</g>
<!-- spike_eval_models_result_EvaluationResult -->
<g id="node36" class="node"><title>spike_eval_models_result_EvaluationResult</title>
<polygon fill="palegoldenrod" stroke="palegoldenrod" points="502,-952.5 502,-1137.5 604,-1137.5 604,-952.5 502,-952.5"/>
<polygon fill="#698b22" stroke="#698b22" points="502,-1120 502,-1137 604,-1137 604,-1120 502,-1120"/>
<text text-anchor="start" x="519" y="-1126.63" font-family="Helvetica Bold" font-size="8.00" fill="white">EvaluationResult</text>
<text text-anchor="start" x="504" y="-1112.13" font-family="Helvetica Bold" font-size="8.00">gt_unit</text>
<text text-anchor="start" x="554" y="-1112.13" font-family="Helvetica Bold" font-size="8.00">CharField</text>
<text text-anchor="start" x="504" y="-1100.13" font-family="Helvetica Bold" font-size="8.00">found_unit</text>
<text text-anchor="start" x="554" y="-1100.13" font-family="Helvetica Bold" font-size="8.00">CharField</text>
<text text-anchor="start" x="504" y="-1088.13" font-family="Helvetica Bold" font-size="8.00">KS</text>
<text text-anchor="start" x="554" y="-1088.13" font-family="Helvetica Bold" font-size="8.00">IntegerField</text>
<text text-anchor="start" x="504" y="-1076.13" font-family="Helvetica Bold" font-size="8.00">KSO</text>
<text text-anchor="start" x="554" y="-1076.13" font-family="Helvetica Bold" font-size="8.00">IntegerField</text>
<text text-anchor="start" x="504" y="-1064.13" font-family="Helvetica Bold" font-size="8.00">FS</text>
<text text-anchor="start" x="554" y="-1064.13" font-family="Helvetica Bold" font-size="8.00">IntegerField</text>
<text text-anchor="start" x="504" y="-1052.13" font-family="Helvetica Bold" font-size="8.00">TP</text>
<text text-anchor="start" x="554" y="-1052.13" font-family="Helvetica Bold" font-size="8.00">IntegerField</text>
<text text-anchor="start" x="504" y="-1040.13" font-family="Helvetica Bold" font-size="8.00">TPO</text>
<text text-anchor="start" x="554" y="-1040.13" font-family="Helvetica Bold" font-size="8.00">IntegerField</text>
<text text-anchor="start" x="504" y="-1028.13" font-family="Helvetica Bold" font-size="8.00">FPA</text>
<text text-anchor="start" x="554" y="-1028.13" font-family="Helvetica Bold" font-size="8.00">IntegerField</text>
<text text-anchor="start" x="504" y="-1016.13" font-family="Helvetica Bold" font-size="8.00">FPAE</text>
<text text-anchor="start" x="554" y="-1016.13" font-family="Helvetica Bold" font-size="8.00">IntegerField</text>
<text text-anchor="start" x="504" y="-1004.13" font-family="Helvetica Bold" font-size="8.00">FPAO</text>
<text text-anchor="start" x="554" y="-1004.13" font-family="Helvetica Bold" font-size="8.00">IntegerField</text>
<text text-anchor="start" x="504" y="-992.133" font-family="Helvetica Bold" font-size="8.00">FPAOE</text>
<text text-anchor="start" x="554" y="-992.133" font-family="Helvetica Bold" font-size="8.00">IntegerField</text>
<text text-anchor="start" x="504" y="-980.133" font-family="Helvetica Bold" font-size="8.00">FN</text>
<text text-anchor="start" x="554" y="-980.133" font-family="Helvetica Bold" font-size="8.00">IntegerField</text>
<text text-anchor="start" x="504" y="-968.133" font-family="Helvetica Bold" font-size="8.00">FNO</text>
<text text-anchor="start" x="554" y="-968.133" font-family="Helvetica Bold" font-size="8.00">IntegerField</text>
<text text-anchor="start" x="504" y="-956.133" font-family="Helvetica Bold" font-size="8.00">FP</text>
<text text-anchor="start" x="554" y="-956.133" font-family="Helvetica Bold" font-size="8.00">IntegerField</text>
</g>
<!-- spike_eval_models_result_EvaluationResultImg -->
<g id="node37" class="node"><title>spike_eval_models_result_EvaluationResultImg</title>
<polygon fill="palegoldenrod" stroke="palegoldenrod" points="637.5,-1024.5 637.5,-1065.5 730.5,-1065.5 730.5,-1024.5 637.5,-1024.5"/>
<polygon fill="#698b22" stroke="#698b22" points="638,-1048 638,-1065 731,-1065 731,-1048 638,-1048"/>
<text text-anchor="start" x="643.5" y="-1054.63" font-family="Helvetica Bold" font-size="8.00" fill="white">EvaluationResultImg</text>
<text text-anchor="start" x="640" y="-1040.13" font-family="Helvetica Bold" font-size="8.00">file</text>
<text text-anchor="start" x="686" y="-1040.13" font-family="Helvetica Bold" font-size="8.00">ImageField</text>
<text text-anchor="start" x="640" y="-1028.13" font-family="Helvetica Bold" font-size="8.00">file_type</text>
<text text-anchor="start" x="686" y="-1028.13" font-family="Helvetica Bold" font-size="8.00">CharField</text>
</g>
</g>
</svg>
